<svg width="512" height="512" viewBox="0 0 512 512" fill="none" xmlns="http://www.w3.org/2000/svg">
<path d="M205.98 198.096V175.83H185.418V139.262H201.464V158.081H221.986V198.096H205.98Z" fill="#C59F2E"/>
<path d="M197.501 143.106V161.925H218.024V194.016H209.902V171.75H189.379V143.106H197.501ZM205.425 135.182H181.455V179.674H201.978V201.94H225.948V154.001H205.425V135.182Z" fill="#C59F2E"/>
<path d="M163.153 218.661V198.099H140.887V182.053H180.902V202.615H199.761V218.661H163.153Z" fill="#C59F2E"/>
<path d="M176.939 186.013V206.496H195.798V214.618H167.114V194.055H144.848V186.131H176.939M184.863 178.208H136.924V201.979H159.19V222.541H203.722V198.572H184.863V178.009V178.208Z" fill="#C59F2E"/>
<path d="M83.0817 183.955H72.8203V194.375H83.0817V183.955Z" fill="#C59F2E"/>
<path d="M88.9842 178.009H66.8766V200.275H88.9842V178.009Z" fill="#C59F2E"/>
<path d="M105.348 206.219H94.928V216.48H105.348V206.219Z" fill="#C59F2E"/>
<path d="M111.29 200.275L88.9842 200.275L88.9844 222.423H111.29V200.275Z" fill="#C59F2E"/>
<path d="M127.654 228.367H117.234V238.906H127.654V228.367Z" fill="#C59F2E"/>
<path d="M133.557 222.424H111.291V244.848H133.557V222.424Z" fill="#C59F2E"/>
<path d="M149.76 250.791H139.498V261.211H149.76V250.791Z" fill="#C59F2E"/>
<path d="M155.704 244.848L133.557 244.848L133.557 267.154H155.704V244.848Z" fill="#C59F2E"/>
<path d="M83.0817 250.791H72.8203V261.211H83.0817V250.791Z" fill="#C59F2E"/>
<path d="M88.9842 244.848H66.8766V267.154H88.9842V244.848Z" fill="#C59F2E"/>
<path d="M194.373 250.791H183.953V261.211H194.373V250.791Z" fill="#C59F2E"/>
<path d="M200.275 244.848H178.009V267.154H200.275V244.848Z" fill="#C59F2E"/>
<path d="M127.654 139.541H117.234V149.961H127.654V139.541Z" fill="#C59F2E"/>
<path d="M133.557 133.598H111.291V155.864H133.557V133.598Z" fill="#C59F2E"/>
<path d="M105.348 161.807H94.928V172.068H105.348V161.807Z" fill="#C59F2E"/>
<path d="M111.291 155.864L88.9844 155.863V178.011H111.29L111.291 155.864Z" fill="#C59F2E"/>
<path d="M149.76 117.074H139.498V127.613H149.76V117.074Z" fill="#C59F2E"/>
<path d="M155.704 111.133H133.557L133.557 133.598L155.704 133.597V111.133Z" fill="#C59F2E"/>
<path d="M172.067 94.9688H161.647V105.23H172.067V94.9688Z" fill="#C59F2E"/>
<path d="M178.009 89.0255H155.703L155.704 111.133L178.009 111.133V89.0255Z" fill="#C59F2E"/>
<path d="M194.373 72.822H183.953V83.0832H194.373V72.822Z" fill="#C59F2E"/>
<path d="M200.275 66.8791H178.009L178.009 89.0255L200.275 89.0262V66.8791Z" fill="#C59F2E"/>
<path d="M216.639 94.9688H206.219V105.23H216.639V94.9688Z" fill="#C59F2E"/>
<path d="M222.581 89.0255L200.275 89.0262L200.275 111.133H222.581V89.0255Z" fill="#C59F2E"/>
<path d="M238.945 117.074H228.526V127.613H238.945V117.074Z" fill="#C59F2E"/>
<path d="M244.848 111.133H222.582V133.597H244.848V111.133Z" fill="#C59F2E"/>
<path d="M261.05 139.541H250.789V149.961H261.05V139.541Z" fill="#C59F2E"/>
<path d="M266.995 133.598H244.848V155.864H266.995V133.598Z" fill="#C59F2E"/>
<path d="M261.05 183.955H250.789V194.375H261.05V183.955Z" fill="#C59F2E"/>
<path d="M266.995 178.009H244.848V200.275H266.995V178.009Z" fill="#C59F2E"/>
<path d="M261.05 72.822H250.789V83.0832H261.05V72.822Z" fill="#C59F2E"/>
<path d="M266.995 66.8791H244.848V89.0262H266.995V66.8791Z" fill="#C59F2E"/>
<path d="M216.639 50.3552H206.219V60.9335H216.639V50.3552Z" fill="#C59F2E"/>
<path d="M222.581 44.4552H200.275L200.275 66.8791L222.581 66.8798V44.4552Z" fill="#C59F2E"/>
<path d="M238.945 28.2483H228.526V38.5096H238.945V28.2483Z" fill="#C59F2E"/>
<path d="M244.848 22.3067H222.582V44.4538H244.848V22.3067Z" fill="#C59F2E"/>
<path d="M261.05 5.94326H250.789V16.3631H261.05V5.94326Z" fill="#C59F2E"/>
<path d="M266.995 0H244.848V22.3057H266.995V0Z" fill="#C59F2E"/>
<path d="M16.2046 250.791H5.94326V261.211H16.2046V250.791Z" fill="#C59F2E"/>
<path d="M22.1472 244.848H0V267.154H22.1472V244.848Z" fill="#C59F2E"/>
<path d="M38.6284 228.367H28.0896V238.906H38.6284V228.367Z" fill="#C59F2E"/>
<path d="M44.5713 222.424H22.1468L22.1472 244.848L44.5713 244.848V222.424Z" fill="#C59F2E"/>
<path d="M60.9335 206.219H50.5136V216.48H60.9335V206.219Z" fill="#C59F2E"/>
<path d="M66.8766 200.275L44.572 200.275V222.423H66.8776L66.8766 200.275Z" fill="#C59F2E"/>
<path d="M283.2 228.367H228.526V283.359H283.2V228.367Z" fill="#C59F2E"/>
<path d="M277.257 234.23V277.415H234.468V234.23H277.257ZM289.143 222.344H222.582V289.3H289.143V222.344Z" fill="#C59F2E"/>
<path d="M289.855 198.096V158.081H310.418V139.262H326.463V175.83H305.901V198.096H289.855Z" fill="#C59F2E"/>
<path d="M322.383 143.106V171.75H301.821V194.016H293.897V161.925H314.459V143.106H322.383ZM330.307 135.182H306.535V154.001H285.973V201.94H309.744V179.674H330.307V135.182Z" fill="#C59F2E"/>
<path d="M312.121 218.661V202.615H330.94V182.053H370.956V198.099H348.729V218.661H312.121Z" fill="#C59F2E"/>
<path d="M366.993 186.013V193.936H344.766V214.499H316.082V206.496H334.901V185.933H366.993M374.917 178.009H326.977V198.572H308.158V222.541H352.69V201.979H374.917V178.009Z" fill="#C59F2E"/>
<path d="M439.221 183.955H428.959V194.375H439.221V183.955Z" fill="#C59F2E"/>
<path d="M445.123 178.009H423.016V200.275H445.123V178.009Z" fill="#C59F2E"/>
<path d="M417.072 206.219H406.652V216.48H417.072V206.219Z" fill="#C59F2E"/>
<path d="M423.016 200.275L400.709 200.275V222.423H423.015L423.016 200.275Z" fill="#C59F2E"/>
<path d="M394.765 228.367H384.227V238.906H394.765V228.367Z" fill="#C59F2E"/>
<path d="M400.71 222.424H378.285V244.848H400.71V222.424Z" fill="#C59F2E"/>
<path d="M372.342 250.791H362.08V261.211H372.342V250.791Z" fill="#C59F2E"/>
<path d="M378.285 244.848L356.139 244.848V267.154H378.286L378.285 244.848Z" fill="#C59F2E"/>
<path d="M439.221 250.791H428.959V261.211H439.221V250.791Z" fill="#C59F2E"/>
<path d="M445.123 244.848H423.016V267.154H445.123V244.848Z" fill="#C59F2E"/>
<path d="M327.929 250.791H317.668V261.211H327.929V250.791Z" fill="#C59F2E"/>
<path d="M333.832 244.848H311.725V267.154H333.832V244.848Z" fill="#C59F2E"/>
<path d="M394.765 139.541H384.227V149.961H394.765V139.541Z" fill="#C59F2E"/>
<path d="M400.71 133.598H378.285V155.864H400.71V133.598Z" fill="#C59F2E"/>
<path d="M417.072 161.807H406.652V172.068H417.072V161.807Z" fill="#C59F2E"/>
<path d="M423.015 155.863L400.71 155.864L400.709 178.011H423.015V155.863Z" fill="#C59F2E"/>
<path d="M372.342 117.074H362.08V127.613H372.342V117.074Z" fill="#C59F2E"/>
<path d="M378.286 111.133H356.139V133.597H378.286V111.133Z" fill="#C59F2E"/>
<path d="M350.195 94.9688H339.775V105.23H350.195V94.9688Z" fill="#C59F2E"/>
<path d="M356.138 89.0255H333.832V111.133L356.139 111.133L356.138 89.0255Z" fill="#C59F2E"/>
<path d="M327.929 72.822H317.668V83.0832H327.929V72.822Z" fill="#C59F2E"/>
<path d="M333.832 66.8791H311.725V89.0262L333.832 89.0255L333.832 66.8791Z" fill="#C59F2E"/>
<path d="M305.782 94.9688H295.084V105.23H305.782V94.9688Z" fill="#C59F2E"/>
<path d="M311.726 89.0255H289.143V111.133H311.726V89.0255Z" fill="#C59F2E"/>
<path d="M283.199 117.074H272.937V127.613H283.199V117.074Z" fill="#C59F2E"/>
<path d="M289.141 111.133H266.994V133.597H289.141V111.133Z" fill="#C59F2E"/>
<path d="M261.05 139.541H250.789V149.961H261.05V139.541Z" fill="#C59F2E"/>
<path d="M266.995 133.598H244.848V155.864H266.995V133.598Z" fill="#C59F2E"/>
<path d="M261.05 183.955H250.789V194.375H261.05V183.955Z" fill="#C59F2E"/>
<path d="M266.995 178.009H244.848V200.275H266.995V178.009Z" fill="#C59F2E"/>
<path d="M261.05 72.822H250.789V83.0832H261.05V72.822Z" fill="#C59F2E"/>
<path d="M266.995 66.8791H244.848V89.0262H266.995V66.8791Z" fill="#C59F2E"/>
<path d="M305.782 50.3552H295.084V60.9335H305.782V50.3552Z" fill="#C59F2E"/>
<path d="M311.726 44.4552H289.143V66.8798H311.726V44.4552Z" fill="#C59F2E"/>
<path d="M283.199 28.2483H272.937V38.5096H283.199V28.2483Z" fill="#C59F2E"/>
<path d="M289.141 22.3067H266.994V44.4538H289.141V22.3067Z" fill="#C59F2E"/>
<path d="M261.05 5.94326H250.789V16.3631H261.05V5.94326Z" fill="#C59F2E"/>
<path d="M266.995 0H244.848V22.3057H266.995V0Z" fill="#C59F2E"/>
<path d="M506.058 250.791H495.797V261.211H506.058V250.791Z" fill="#C59F2E"/>
<path d="M512 244.848H489.853V267.154H512V244.848Z" fill="#C59F2E"/>
<path d="M483.91 228.367H473.213V238.906H483.91V228.367Z" fill="#C59F2E"/>
<path d="M489.853 222.424H467.27V244.848L489.853 244.848L489.853 222.424Z" fill="#C59F2E"/>
<path d="M461.328 206.219H451.067V216.48H461.328V206.219Z" fill="#C59F2E"/>
<path d="M467.271 200.275L445.123 200.275L445.123 222.423H467.271V200.275Z" fill="#C59F2E"/>
<path d="M283.2 228.367H228.526V283.359H283.2V228.367Z" fill="#C59F2E"/>
<path d="M277.257 234.23V277.415H234.468V234.23H277.257ZM289.143 222.344H222.582V289.3H289.143V222.344Z" fill="#C59F2E"/>
<path d="M310.418 372.739V353.92H289.855V313.904H305.901V336.17H326.463V372.739H310.418Z" fill="#C59F2E"/>
<path d="M301.939 317.865V340.132H322.383V368.935H314.459V350.116H293.897V318.024H301.821M309.744 310.1H285.973V358.039H306.535V376.859H330.307V332.208H309.744V309.942V310.1Z" fill="#C59F2E"/>
<path d="M330.94 329.95V309.387H312.121V293.342H348.729V313.904H370.956V329.95H330.94Z" fill="#C59F2E"/>
<path d="M344.766 297.303V317.865H366.993V325.789H334.901V305.544H316.082V297.422H344.766M352.69 289.498H308.158V313.468H326.977V334.03H374.917V310.258H352.69V289.498Z" fill="#C59F2E"/>
<path d="M439.221 317.352H428.959V328.049H439.221V317.352Z" fill="#C59F2E"/>
<path d="M445.123 311.408H423.016V334.031H445.123V311.408Z" fill="#C59F2E"/>
<path d="M417.072 295.244H406.652V305.505H417.072V295.244Z" fill="#C59F2E"/>
<path d="M423.015 289.301H400.709V311.408L423.016 311.408L423.015 289.301Z" fill="#C59F2E"/>
<path d="M394.765 273.098H384.227V283.359H394.765V273.098Z" fill="#C59F2E"/>
<path d="M400.71 267.154L378.286 267.154L378.285 289.301L400.709 289.301L400.71 267.154Z" fill="#C59F2E"/>
<path d="M372.342 250.791H362.08V261.211H372.342V250.791Z" fill="#C59F2E"/>
<path d="M378.285 244.848L356.139 244.848V267.154H378.286L378.285 244.848Z" fill="#C59F2E"/>
<path d="M439.221 250.791H428.959V261.211H439.221V250.791Z" fill="#C59F2E"/>
<path d="M445.123 244.848H423.016V267.154H445.123V244.848Z" fill="#C59F2E"/>
<path d="M327.929 250.791H317.668V261.211H327.929V250.791Z" fill="#C59F2E"/>
<path d="M333.832 244.848H311.725V267.154H333.832V244.848Z" fill="#C59F2E"/>
<path d="M394.765 362.08H384.227V372.341H394.765V362.08Z" fill="#C59F2E"/>
<path d="M400.71 356.139H378.285V378.286H400.71V356.139Z" fill="#C59F2E"/>
<path d="M417.072 339.975H406.652V350.236H417.072V339.975Z" fill="#C59F2E"/>
<path d="M423.016 334.031L400.709 334.031L400.71 356.139L423.015 356.139L423.016 334.031Z" fill="#C59F2E"/>
<path d="M372.342 384.229H362.08V394.648H372.342V384.229Z" fill="#C59F2E"/>
<path d="M378.285 378.286L356.139 378.285V400.591H378.286L378.285 378.286Z" fill="#C59F2E"/>
<path d="M350.195 406.494H339.775V416.914H350.195V406.494Z" fill="#C59F2E"/>
<path d="M356.138 400.592H333.832V422.858H356.138V400.592Z" fill="#C59F2E"/>
<path d="M327.929 428.801H317.668V439.34H327.929V428.801Z" fill="#C59F2E"/>
<path d="M333.832 422.858L311.725 422.857V445.282H333.832L333.832 422.858Z" fill="#C59F2E"/>
<path d="M305.782 406.494H295.084V416.914H305.782V406.494Z" fill="#C59F2E"/>
<path d="M311.726 400.592H289.143V422.858H311.726V400.592Z" fill="#C59F2E"/>
<path d="M283.199 384.229H272.937V394.648H283.199V384.229Z" fill="#C59F2E"/>
<path d="M289.141 378.285H266.994V400.591H289.141V378.285Z" fill="#C59F2E"/>
<path d="M261.05 362.08H250.789V372.341H261.05V362.08Z" fill="#C59F2E"/>
<path d="M266.995 356.139H244.848V378.286L266.994 378.285L266.995 356.139Z" fill="#C59F2E"/>
<path d="M261.05 317.352H250.789V328.049H261.05V317.352Z" fill="#C59F2E"/>
<path d="M266.995 311.408H244.848V334.031H266.995V311.408Z" fill="#C59F2E"/>
<path d="M261.05 428.801H250.789V439.34H261.05V428.801Z" fill="#C59F2E"/>
<path d="M266.995 422.857H244.848V445.282H266.995V422.857Z" fill="#C59F2E"/>
<path d="M305.782 451.225H295.084V461.486H305.782V451.225Z" fill="#C59F2E"/>
<path d="M311.726 445.281H289.143V467.428H311.726V445.281Z" fill="#C59F2E"/>
<path d="M283.199 473.371H272.937V483.632H283.199V473.371Z" fill="#C59F2E"/>
<path d="M289.141 467.428H266.994V489.575H289.141V467.428Z" fill="#C59F2E"/>
<path d="M261.05 495.52H250.789V506.098H261.05V495.52Z" fill="#C59F2E"/>
<path d="M266.995 489.576H244.848V512H266.995V489.576Z" fill="#C59F2E"/>
<path d="M506.058 250.791H495.797V261.211H506.058V250.791Z" fill="#C59F2E"/>
<path d="M512 244.848H489.853V267.154H512V244.848Z" fill="#C59F2E"/>
<path d="M483.91 273.098H473.213V283.359H483.91V273.098Z" fill="#C59F2E"/>
<path d="M489.853 267.154L467.27 267.154V289.301H489.853L489.853 267.154Z" fill="#C59F2E"/>
<path d="M461.328 295.244H451.067V305.505H461.328V295.244Z" fill="#C59F2E"/>
<path d="M467.27 289.301L445.123 289.301L445.123 311.408L467.271 311.408L467.27 289.301Z" fill="#C59F2E"/>
<path d="M283.2 228.367H228.526V283.359H283.2V228.367Z" fill="#C59F2E"/>
<path d="M277.257 234.23V277.415H234.468V234.23H277.257ZM289.143 222.344H222.582V289.3H289.143V222.344Z" fill="#C59F2E"/>
<path d="M185.418 372.737V336.168H205.98V313.902H221.986V353.918H201.464V372.737H185.418Z" fill="#C59F2E"/>
<path d="M218.024 317.865V349.957H197.501V368.934H189.379V340.289H209.902V318.023H218.024M225.948 310.1H201.978V332.366H181.455V376.858H205.425V358.039H225.948V310.1Z" fill="#C59F2E"/>
<path d="M140.887 329.95V313.904H163.153V293.342H199.761V309.387H180.902V329.95H140.887Z" fill="#C59F2E"/>
<path d="M195.798 297.303V305.544H176.939V326.106H144.848V318.182H167.114V297.62H195.798M203.722 289.696H159.19V310.258H136.924V334.03H184.863V313.468H203.722V289.498V289.696Z" fill="#C59F2E"/>
<path d="M83.0817 317.352H72.8203V328.049H83.0817V317.352Z" fill="#C59F2E"/>
<path d="M88.9842 311.408H66.8766V334.031H88.9842V311.408Z" fill="#C59F2E"/>
<path d="M105.348 295.244H94.928V305.505H105.348V295.244Z" fill="#C59F2E"/>
<path d="M111.29 289.301H88.9844L88.9842 311.408L111.29 311.408V289.301Z" fill="#C59F2E"/>
<path d="M127.654 273.098H117.234V283.359H127.654V273.098Z" fill="#C59F2E"/>
<path d="M133.557 267.154L111.291 267.154L111.29 289.301L133.557 289.301L133.557 267.154Z" fill="#C59F2E"/>
<path d="M149.76 250.791H139.498V261.211H149.76V250.791Z" fill="#C59F2E"/>
<path d="M155.704 244.848L133.557 244.848L133.557 267.154H155.704V244.848Z" fill="#C59F2E"/>
<path d="M83.0817 250.791H72.8203V261.211H83.0817V250.791Z" fill="#C59F2E"/>
<path d="M88.9842 244.848H66.8766V267.154H88.9842V244.848Z" fill="#C59F2E"/>
<path d="M194.373 250.791H183.953V261.211H194.373V250.791Z" fill="#C59F2E"/>
<path d="M200.275 244.848H178.009V267.154H200.275V244.848Z" fill="#C59F2E"/>
<path d="M127.654 362.08H117.234V372.341H127.654V362.08Z" fill="#C59F2E"/>
<path d="M133.557 356.139H111.291V378.286H133.557V356.139Z" fill="#C59F2E"/>
<path d="M105.348 339.975H94.928V350.236H105.348V339.975Z" fill="#C59F2E"/>
<path d="M111.29 334.031L88.9842 334.031L88.9844 356.139L111.291 356.139L111.29 334.031Z" fill="#C59F2E"/>
<path d="M149.76 384.229H139.498V394.648H149.76V384.229Z" fill="#C59F2E"/>
<path d="M155.704 378.285L133.557 378.286L133.557 400.591H155.704V378.285Z" fill="#C59F2E"/>
<path d="M172.067 406.494H161.647V416.914H172.067V406.494Z" fill="#C59F2E"/>
<path d="M178.009 400.592H155.703V422.858H178.009V400.592Z" fill="#C59F2E"/>
<path d="M194.373 428.801H183.953V439.34H194.373V428.801Z" fill="#C59F2E"/>
<path d="M200.275 422.857L178.009 422.858L178.009 445.282H200.275V422.857Z" fill="#C59F2E"/>
<path d="M216.639 406.494H206.219V416.914H216.639V406.494Z" fill="#C59F2E"/>
<path d="M222.581 400.592H200.275L200.275 422.857L222.581 422.858V400.592Z" fill="#C59F2E"/>
<path d="M238.945 384.229H228.526V394.648H238.945V384.229Z" fill="#C59F2E"/>
<path d="M244.848 378.286L222.582 378.285V400.591H244.848L244.848 378.286Z" fill="#C59F2E"/>
<path d="M261.05 362.08H250.789V372.341H261.05V362.08Z" fill="#C59F2E"/>
<path d="M266.995 356.139H244.848V378.286L266.994 378.285L266.995 356.139Z" fill="#C59F2E"/>
<path d="M261.05 317.352H250.789V328.049H261.05V317.352Z" fill="#C59F2E"/>
<path d="M266.995 311.408H244.848V334.031H266.995V311.408Z" fill="#C59F2E"/>
<path d="M261.05 428.801H250.789V439.34H261.05V428.801Z" fill="#C59F2E"/>
<path d="M266.995 422.857H244.848V445.282H266.995V422.857Z" fill="#C59F2E"/>
<path d="M216.639 451.225H206.219V461.486H216.639V451.225Z" fill="#C59F2E"/>
<path d="M222.581 445.281L200.275 445.282L200.275 467.428H222.581V445.281Z" fill="#C59F2E"/>
<path d="M238.945 473.371H228.526V483.632H238.945V473.371Z" fill="#C59F2E"/>
<path d="M244.848 467.428H222.582V489.575L244.848 489.576L244.848 467.428Z" fill="#C59F2E"/>
<path d="M261.05 495.52H250.789V506.098H261.05V495.52Z" fill="#C59F2E"/>
<path d="M266.995 489.576H244.848V512H266.995V489.576Z" fill="#C59F2E"/>
<path d="M16.2046 250.791H5.94326V261.211H16.2046V250.791Z" fill="#C59F2E"/>
<path d="M22.1472 244.848H0V267.154H22.1472V244.848Z" fill="#C59F2E"/>
<path d="M38.6284 273.098H28.0896V283.359H38.6284V273.098Z" fill="#C59F2E"/>
<path d="M44.5713 267.154L22.1472 267.154L22.1468 289.301H44.5713V267.154Z" fill="#C59F2E"/>
<path d="M60.9335 295.244H50.5136V305.505H60.9335V295.244Z" fill="#C59F2E"/>
<path d="M66.8776 289.301L44.5713 289.301L44.572 311.408L66.8766 311.408L66.8776 289.301Z" fill="#C59F2E"/>
<path d="M283.2 228.367H228.526V283.359H283.2V228.367Z" fill="#C59F2E"/>
<path d="M277.257 234.23V277.415H234.468V234.23H277.257ZM289.143 222.344H222.582V289.3H289.143V222.344Z" fill="#C59F2E"/>
</svg>
