<svg width="282" height="74" viewBox="0 0 282 74" fill="none" xmlns="http://www.w3.org/2000/svg">
<g filter="url(#filter0_d_441_163136)">
<path d="M89.6809 38.56C89.4011 38.56 89.2612 38.4044 89.2612 38.0931C89.2612 37.7818 89.4011 37.6262 89.6809 37.6262L89.8674 37.6729C90.0229 37.7974 90.1006 37.953 90.1006 38.1398C90.1006 38.42 89.9607 38.56 89.6809 38.56ZM38.106 54.5756C29.0594 54.5756 21.4274 52.8168 15.2098 49.2993C9.36524 45.8752 5.38599 41.6262 3.27201 36.5522C2.09067 33.7507 1.5 30.8869 1.5 27.9608C1.5 20.4277 4.99739 13.9063 11.9922 8.39661C16.6554 4.72345 22.9507 2.10867 30.8781 0.552249L31.2045 0.505554C31.6397 0.505554 31.8574 0.645631 31.8574 0.925785C31.8574 1.33045 31.5776 1.56392 31.018 1.62618C23.1838 3.15147 16.9662 5.64174 12.3652 9.09699C7.73313 12.5522 4.67097 16.5678 3.17875 21.1437C2.46373 23.2604 2.10621 25.3927 2.10621 27.5406C2.10621 30.4978 2.72797 33.3927 3.97149 36.2254C5.99221 41.2371 9.81602 45.4394 15.4429 48.8324C21.6605 52.3188 29.1993 54.062 38.0594 54.062C51.8003 54.062 67.6085 49.7351 85.484 41.0814C86.0125 40.6768 86.4167 40.4744 86.6964 40.4744C87.1939 40.5678 87.4426 40.7701 87.4426 41.0814C87.4426 41.3305 87.2716 41.5639 86.9296 41.7818C85.997 42.2487 84.7379 43.525 83.1524 45.6106C82.4374 46.5756 82.0177 47.3849 81.8934 48.0386C81.8934 48.6301 82.2042 48.9258 82.826 48.9258C83.6343 48.9258 84.6913 48.6768 85.997 48.1787L86.4167 48.0386C89.9296 46.8869 93.6135 45.5172 97.4684 43.9297C100.733 42.6223 102.722 41.8752 103.437 41.6884C103.531 41.6884 103.577 41.7196 103.577 41.7818C103.577 41.8752 102.831 42.2176 101.339 42.8091C95.7741 45.1748 90.7845 47.1203 86.37 48.6456C84.6913 49.2682 83.4322 49.5795 82.5928 49.5795C81.4115 49.5795 80.8208 49.0347 80.8208 47.9452C80.9452 46.3577 82.0333 44.49 84.0851 42.3421C66.9556 50.4978 51.6293 54.5756 38.106 54.5756Z" fill="black"/>
<path d="M100.952 56.3966C100.579 56.3966 100.33 56.2877 100.205 56.0698C100.081 55.883 100.019 55.6495 100.019 55.3694C100.019 54.9958 100.097 54.5756 100.252 54.1087C100.998 51.9297 102.832 49.097 105.755 45.6106L107.014 44.2098C103.967 45.9219 101.931 46.9491 100.905 47.2915L100.579 47.3382C100.299 47.3382 100.066 47.2449 99.8791 47.0581C99.6614 46.8713 99.5526 46.6379 99.5526 46.3577L99.5993 46.0775C99.848 45.1126 100.594 44.0075 101.838 42.7624C102.708 41.8285 103.33 41.3616 103.703 41.3616C103.827 41.3616 103.952 41.4083 104.076 41.5017C104.262 41.6262 104.356 41.7663 104.356 41.9219C104.356 42.2643 103.889 42.8713 102.957 43.7429C101.775 44.8947 101.185 45.6106 101.185 45.8908C101.185 45.9842 101.247 46.0308 101.371 46.0308C101.527 46.0308 102.18 45.7507 103.33 45.1904C104.511 44.5989 105.739 43.9452 107.014 43.2293C108.319 42.5133 109.33 41.9219 110.045 41.455C110.48 41.1437 110.822 40.988 111.071 40.988C111.288 40.988 111.413 41.1437 111.444 41.455C111.444 41.5484 111.273 41.8129 110.931 42.2487C110.589 42.6534 110.169 43.1048 109.672 43.6028C107.465 45.8129 105.506 48.1164 103.796 50.5133C102.117 52.9102 101.278 54.5133 101.278 55.3227C101.278 55.4783 101.34 55.5561 101.465 55.5561C101.9 55.5561 103.283 54.8091 105.615 53.3149C109.749 50.7001 113.635 48.3344 117.273 46.2176C120.91 44.0698 123.568 42.6378 125.247 41.9219C125.496 41.8285 125.666 41.7818 125.76 41.7818C125.853 41.7818 125.9 41.7974 125.9 41.8285C125.9 41.8908 125.837 41.9686 125.713 42.062C125.62 42.1242 125.511 42.1865 125.387 42.2487C123.677 43.0581 121.128 44.4744 117.739 46.4978C114.35 48.49 111.273 50.3733 108.506 52.1476C107.045 53.0814 105.879 53.8285 105.009 54.3888C104.138 54.9491 103.454 55.3538 102.957 55.6028C102.49 55.883 102.148 56.0698 101.931 56.1631C101.682 56.2877 101.48 56.3499 101.325 56.3499L100.952 56.3966Z" fill="black"/>
<path d="M128.677 39.5873L131.615 37.8596C133.2 36.8635 135.05 35.634 137.164 34.1709C139.309 32.6768 141.097 31.4161 142.527 30.3888C142.9 30.0775 143.257 29.7974 143.599 29.5484C143.941 29.2993 144.221 29.097 144.439 28.9414C144.532 28.8791 144.594 28.8324 144.625 28.8013C146.366 27.4939 147.889 26.1398 149.195 24.739C150.501 23.3071 151.154 22.2643 151.154 21.6106C151.154 21.5172 151.138 21.455 151.107 21.4238C151.076 21.3616 151.029 21.3305 150.967 21.3305L150.594 21.3771C149.537 21.6262 147.719 22.7001 145.138 24.5989C142.558 26.4666 139.822 28.6768 136.931 31.2293C136.278 31.7896 135.392 32.6145 134.273 33.704C133.185 34.7624 132.143 35.8052 131.149 36.8324C130.154 37.8285 129.501 38.5289 129.19 38.9336L128.677 39.5873ZM116.366 60.3188C115.993 60.3188 115.698 60.2254 115.48 60.0386C115.138 59.7585 114.967 59.2915 114.967 58.6379C114.967 58.1398 115.076 57.5639 115.294 56.9102C116.32 53.8285 118.76 49.7974 122.615 44.8168C126.439 39.8363 130.667 35.2293 135.299 30.9958C138.128 28.4744 141.066 26.1865 144.112 24.132C147.159 22.0464 149.335 20.848 150.641 20.5367H150.827C151.449 20.5367 151.791 20.8324 151.853 21.4238V21.6573C151.511 23.6807 148.558 26.7157 142.993 30.7624C140.817 32.381 138.579 33.9842 136.278 35.5717C133.978 37.1281 132.423 38.1398 131.615 38.6067C131.46 38.669 131.32 38.7468 131.195 38.8402C131.071 38.9024 130.978 38.9647 130.915 39.027C130.636 39.2137 130.263 39.4316 129.796 39.6807C129.361 39.9297 128.941 40.1631 128.537 40.381C128.164 40.5989 127.931 40.7235 127.838 40.7546C127.558 40.8791 126.874 41.595 125.786 42.9024C124.698 44.2098 123.532 45.6884 122.289 47.3382C118.185 53.0347 116.133 56.8168 116.133 58.6845V59.3849C116.195 59.3849 116.258 59.3694 116.32 59.3382C116.693 59.3382 117.097 59.276 117.532 59.1515C117.936 59.027 118.543 58.7468 119.351 58.311C120.128 57.9063 121.294 57.2215 122.848 56.2565C124.371 55.3227 126.439 54.0153 129.05 52.3343C129.392 52.1164 129.781 51.8674 130.216 51.5873C130.651 51.3071 131.024 51.0736 131.335 50.8869C131.584 50.7312 131.833 50.5756 132.081 50.42C132.423 50.2643 132.672 50.1242 132.827 49.9997L142.247 44.2098L144.579 42.8557C145.791 42.1087 146.537 41.7351 146.817 41.7351C146.91 41.7351 146.957 41.7663 146.957 41.8285V41.9219C146.926 41.9842 146.693 42.1709 146.257 42.4822C145.822 42.7624 145.309 43.0892 144.719 43.4628C144.159 43.8052 143.677 44.0853 143.273 44.3032C142.9 44.49 141.89 45.097 140.242 46.1242C138.594 47.1203 136.822 48.2098 134.926 49.3927C133.029 50.5756 131.522 51.525 130.403 52.241C130.247 52.3343 130.029 52.4744 129.75 52.6612C129.377 52.9102 128.988 53.1748 128.584 53.455C127.838 53.9219 126.983 54.4666 126.019 55.0892C123.905 56.3966 122.149 57.5172 120.75 58.4511C118.822 59.6962 117.361 60.3188 116.366 60.3188Z" fill="black"/>
<path d="M144.116 49.5795C143.619 49.5795 143.199 49.4705 142.857 49.2526C142.515 49.0036 142.344 48.5678 142.344 47.9452L142.391 47.3382C142.67 45.9063 143.821 44.1631 145.841 42.1087C146.96 41.0192 147.769 40.4744 148.266 40.4744L148.453 40.5211C148.795 40.6768 148.966 40.8635 148.966 41.0814C148.966 41.3305 148.795 41.5639 148.453 41.7818C148.017 41.9997 147.427 42.4978 146.681 43.276C145.966 44.0231 145.297 44.8168 144.676 45.6573C144.054 46.4666 143.665 47.0892 143.51 47.525L143.463 48.0386C143.463 48.6923 143.821 48.988 144.536 48.9258C145.002 48.9258 145.515 48.848 146.074 48.6923C146.634 48.5056 147.116 48.3343 147.52 48.1787C147.707 48.1164 147.847 48.0698 147.94 48.0386C151.453 46.8869 155.137 45.5172 158.992 43.9297C161.23 43.027 163.095 42.311 164.587 41.7818L164.96 41.6884C165.054 41.6884 165.1 41.7196 165.1 41.7818C165.1 41.8441 164.976 41.9375 164.727 42.062C164.261 42.2487 163.639 42.4978 162.862 42.8091C160.966 43.6184 158.634 44.5834 155.867 45.704C153.131 46.7935 150.536 47.7585 148.08 48.5989C147.955 48.6301 147.815 48.6768 147.66 48.739C147.194 48.9258 146.634 49.1126 145.981 49.2993C145.328 49.4861 144.707 49.5795 144.116 49.5795ZM151.204 38.56C151.173 38.56 151.111 38.5445 151.017 38.5133C150.955 38.4822 150.909 38.4355 150.878 38.3733C150.815 38.2799 150.784 38.1865 150.784 38.0931C150.784 37.9686 150.831 37.8596 150.924 37.7663C151.017 37.6729 151.111 37.6262 151.204 37.6262L151.391 37.6729C151.577 37.7974 151.67 37.953 151.67 38.1398C151.67 38.2332 151.624 38.3266 151.53 38.42C151.468 38.5133 151.359 38.56 151.204 38.56Z" fill="black"/>
<path d="M165.133 43.276L166.532 42.5756C166.967 42.3266 167.433 42.0308 167.931 41.6884C168.428 41.346 168.848 41.0192 169.19 40.7079C169.532 40.3655 169.703 40.1476 169.703 40.0542V40.0075H169.609C169.423 40.0075 169.019 40.1787 168.397 40.5211C167.775 40.8324 167.216 41.1593 166.718 41.5017C166.47 41.7196 166.221 41.953 165.972 42.2021C165.723 42.42 165.506 42.6379 165.319 42.8557C165.164 43.0425 165.086 43.167 165.086 43.2293L165.133 43.276ZM170.449 50.42C169.609 50.42 168.832 50.3733 168.117 50.2799C167.309 50.1865 166.516 50.0153 165.739 49.7663C164.993 49.4861 164.418 49.2059 164.014 48.9258C163.112 48.1165 162.661 47.167 162.661 46.0775C162.661 45.7663 162.708 45.4394 162.801 45.097C163.112 44.1631 163.454 43.4472 163.827 42.9491C164.169 42.42 164.542 41.953 164.946 41.5484C165.444 41.0503 165.863 40.6768 166.205 40.4277C166.578 40.1476 166.998 39.8986 167.464 39.6807C168.366 39.2137 169.096 38.9803 169.656 38.9803C170.091 38.9803 170.402 39.1203 170.589 39.4005C170.682 39.525 170.729 39.6495 170.729 39.774C170.729 39.8985 170.666 40.0698 170.542 40.2877C170.231 40.9102 169.594 41.5795 168.63 42.2954C167.666 42.9803 166.594 43.5873 165.413 44.1164C165.071 44.241 164.806 44.3499 164.62 44.4433C164.464 44.5056 164.356 44.5989 164.293 44.7235C164.2 44.8168 164.122 44.9414 164.06 45.097C164.029 45.2215 163.998 45.3927 163.967 45.6106C163.905 45.8285 163.874 46.0153 163.874 46.1709C163.874 47.1359 164.48 47.9452 165.692 48.5989C166.936 49.2215 168.723 49.5328 171.055 49.5328C172.889 49.5328 175.143 49.2993 177.817 48.8324C180.521 48.3343 184.749 47.4939 190.5 46.311C194.76 45.4394 200.215 44.3343 206.868 42.9958C212.464 41.8441 218.013 40.6456 223.516 39.4005C223.796 39.3382 224.06 39.276 224.309 39.2137C224.526 39.1515 224.759 39.1048 225.008 39.0736C228.086 38.3266 232.345 37.3772 237.785 36.2254C243.257 35.0736 249.039 34.0153 255.132 33.0503C261.225 32.0853 266.557 31.6028 271.127 31.6028C274.826 31.6028 277.64 32.0542 279.567 32.9569C280.189 33.3616 280.5 33.704 280.5 33.9842C280.5 34.1398 280.438 34.2487 280.313 34.311L279.94 34.4044C279.661 34.4044 279.381 34.2799 279.101 34.0308C278.883 33.8441 278.635 33.704 278.355 33.6106C278.075 33.5172 277.687 33.4083 277.189 33.2838C277.158 33.2838 277.127 33.2838 277.096 33.2838C274.858 32.7857 272.293 32.5367 269.402 32.5367C265.422 32.5367 261.039 32.8947 256.251 33.6106C251.464 34.2954 246.739 35.1203 242.075 36.0853C237.443 37.0192 233.231 37.9219 229.438 38.7935C227.666 39.1982 226.065 39.5561 224.635 39.8674C222.179 40.3966 219.739 40.9258 217.314 41.455C213.894 42.2021 210.412 42.9336 206.868 43.6495C204.63 44.1165 202.656 44.5367 200.946 44.9102C198.459 45.4394 195.226 46.1087 191.247 46.918C185.651 48.1009 181.267 48.988 178.096 49.5795C174.957 50.1398 172.407 50.42 170.449 50.42Z" fill="black"/>
<path d="M27.4628 38.9336L27.1831 38.8402C27.1209 38.8091 27.0742 38.7468 27.0432 38.6534C26.981 38.56 26.9499 38.4511 26.9499 38.3266C26.9499 38.1087 27.0742 37.9219 27.323 37.7663C27.5406 37.5795 27.8204 37.455 28.1623 37.3927C28.3489 37.2993 29.0794 36.6456 30.354 35.4316C31.6597 34.1865 33.1519 32.739 34.8307 31.0892C36.5405 29.4083 38.0638 27.8674 39.4006 26.4666C40.7685 25.0659 41.6234 24.1476 41.9654 23.7118C42.183 23.4316 42.354 23.1515 42.4783 22.8713C42.6338 22.56 42.7115 22.3577 42.7115 22.2643C42.7115 21.953 42.5094 21.7974 42.1053 21.7974C41.6389 21.7974 40.9861 21.9997 40.1467 22.4044C39.3073 22.8091 38.4369 23.3538 37.5353 24.0386C36.6027 24.7546 35.7478 25.4705 34.9706 26.1865C34.2245 26.8713 33.7892 27.3538 33.6649 27.634C33.5405 27.9141 33.4162 28.0542 33.2918 28.0542C33.1364 28.0542 33.0431 27.9141 33.012 27.634C33.012 27.4783 33.1519 27.2449 33.4317 26.9336C33.7115 26.6223 34.2089 26.1554 34.9239 25.5328C36.5405 24.0386 37.8773 22.9647 38.9343 22.311C39.9913 21.6262 40.955 21.2526 41.8255 21.1904H42.3851C42.6027 21.1904 42.7581 21.2215 42.8514 21.2838C42.9757 21.3149 43.1001 21.3927 43.2244 21.5172C43.442 21.704 43.5508 21.953 43.5508 22.2643C43.5508 23.7896 40.3799 27.5717 34.0379 33.6106L30.1675 37.2526C30.1675 37.2838 30.3074 37.3305 30.5872 37.3927C30.8981 37.4238 31.2867 37.455 31.753 37.4861L32.8721 37.5328C34.2711 37.5328 35.3281 37.2838 36.0431 36.7857C36.3229 36.5989 36.6649 36.2877 37.069 35.8519C37.4732 35.3849 37.8462 34.9336 38.1882 34.4978C38.5301 34.062 38.7011 33.7818 38.7011 33.6573C38.7011 33.595 38.7322 33.5484 38.7944 33.5172C38.8566 33.455 38.9032 33.4238 38.9343 33.4238C39.1208 33.4238 39.2141 33.4861 39.2141 33.6106C39.2141 33.8908 38.7789 34.5756 37.9084 35.6651C37.069 36.7235 36.2763 37.4238 35.5302 37.7663C34.7841 38.1087 33.6027 38.2799 31.9861 38.2799H30.2608C29.639 38.2799 29.2038 38.311 28.9551 38.3733C28.6753 38.4044 28.411 38.4822 28.1623 38.6067C28.0069 38.7001 27.867 38.7779 27.7426 38.8402C27.5872 38.9024 27.4939 38.9336 27.4628 38.9336Z" fill="black"/>
<path d="M52.3504 27.8674C52.4437 27.8674 52.6147 27.7118 52.8634 27.4005C53.3608 26.8402 54.4644 25.7351 56.1742 24.0853C57.0758 23.2137 57.5266 22.6845 57.5266 22.4978C57.5266 22.4666 57.4955 22.4511 57.4333 22.4511C57.34 22.4511 57.1535 22.5133 56.8737 22.6379C56.0343 23.0736 55.1328 23.8052 54.1691 24.8324C53.2053 25.8285 52.5836 26.7001 52.3038 27.4472L52.2572 27.7273C52.2572 27.8207 52.2883 27.8674 52.3504 27.8674ZM45.8686 40.3343C45.6821 40.3343 45.4955 40.2877 45.309 40.1943C45.0603 39.9764 44.936 39.7429 44.936 39.4939C44.936 39.276 44.9981 39.0736 45.1225 38.8869C45.2157 38.7001 45.309 38.6067 45.4023 38.6067C45.4955 38.6067 45.5422 38.7312 45.5422 38.9803V39.0736C45.5422 39.3849 45.6665 39.525 45.9152 39.4939C46.1328 39.4939 46.4126 39.4005 46.7546 39.2137C47.0966 38.9958 47.4074 38.7779 47.6872 38.56C47.967 38.3421 48.1536 38.1865 48.2468 38.0931C48.8375 37.5017 49.6769 36.3655 50.7649 34.6845C51.853 33.0036 52.9722 31.0892 54.1224 28.9414L56.0343 25.6262C56.252 25.3149 56.4385 25.0192 56.5939 24.739C56.7805 24.4589 56.8737 24.2721 56.8737 24.1787V24.132C56.7805 24.132 55.7235 25.1904 53.7028 27.3071C52.8323 28.2721 52.2261 28.7546 51.8841 28.7546C51.6976 28.7546 51.5577 28.6456 51.4644 28.4277C51.4333 28.3343 51.4178 28.2098 51.4178 28.0542C51.4178 27.5561 51.7442 26.8091 52.3971 25.8129C53.3919 24.3188 54.6354 23.1826 56.1276 22.4044C56.4696 22.2176 56.7338 22.0931 56.9204 22.0308C57.138 21.9375 57.3245 21.8908 57.4799 21.8908L58.3193 21.9842C58.4748 21.9842 58.6146 21.9375 58.739 21.8441C58.8633 21.7507 59.0499 21.595 59.2986 21.3771C59.4851 21.1904 59.6872 21.0192 59.9048 20.8635C60.1535 20.7079 60.3245 20.6301 60.4177 20.6301C60.4799 20.6301 60.511 20.6612 60.511 20.7235C60.511 20.8168 60.3867 21.0347 60.138 21.3771C60.1069 21.4394 60.0602 21.5172 59.9981 21.6106C59.8115 21.8908 59.5628 22.2176 59.2519 22.5912C58.91 23.0892 58.5369 23.634 58.1328 24.2254C57.7597 24.8168 57.2312 25.6729 56.5473 26.7935C55.8945 27.883 54.9774 29.455 53.796 31.5094C52.9256 33.0347 52.0396 34.4511 51.138 35.7585C50.2365 37.0659 49.4903 37.9997 48.8997 38.56C48.5888 38.9024 48.138 39.2915 47.5473 39.7273C46.9567 40.132 46.3971 40.3343 45.8686 40.3343Z" fill="black"/>
<path d="M202.127 71.6184L201.848 71.525C201.786 71.4939 201.739 71.4316 201.708 71.3382C201.646 71.2449 201.615 71.1359 201.615 71.0114C201.615 70.7935 201.739 70.6067 201.988 70.4511C202.205 70.2643 202.485 70.1398 202.827 70.0775C203.013 69.9842 203.744 69.3305 205.019 68.1164C206.324 66.8713 207.817 65.4238 209.495 63.774C211.205 62.0931 212.728 60.5522 214.065 59.1515C215.433 57.7507 216.288 56.8324 216.63 56.3966C216.848 56.1164 217.019 55.8363 217.143 55.5561C217.298 55.2449 217.376 55.0425 217.376 54.9491C217.376 54.6378 217.174 54.4822 216.77 54.4822C216.304 54.4822 215.651 54.6845 214.811 55.0892C213.972 55.4939 213.102 56.0386 212.2 56.7235C211.267 57.4394 210.412 58.1554 209.635 58.8713C208.889 59.5561 208.454 60.0386 208.33 60.3188C208.205 60.5989 208.081 60.739 207.956 60.739C207.801 60.739 207.708 60.5989 207.677 60.3188C207.677 60.1631 207.817 59.9297 208.096 59.6184C208.376 59.3071 208.874 58.8402 209.589 58.2176C211.205 56.7235 212.542 55.6495 213.599 54.9958C214.656 54.311 215.62 53.9375 216.49 53.8752H217.05C217.267 53.8752 217.423 53.9063 217.516 53.9686C217.64 53.9997 217.765 54.0775 217.889 54.202C218.107 54.3888 218.215 54.6378 218.215 54.9491C218.215 56.4744 215.045 60.2565 208.703 66.2954L204.832 69.9375C204.832 69.9686 204.972 70.0153 205.252 70.0775C205.563 70.1087 205.951 70.1398 206.418 70.1709L207.537 70.2176C208.936 70.2176 209.993 69.9686 210.708 69.4705C210.988 69.2838 211.329 68.9725 211.734 68.5367C212.138 68.0698 212.511 67.6184 212.853 67.1826C213.195 66.7468 213.366 66.4666 213.366 66.3421C213.366 66.2799 213.397 66.2332 213.459 66.2021C213.521 66.1398 213.568 66.1087 213.599 66.1087C213.785 66.1087 213.879 66.1709 213.879 66.2954C213.879 66.5756 213.443 67.2604 212.573 68.3499C211.734 69.4083 210.941 70.1087 210.195 70.4511C209.449 70.7935 208.267 70.9647 206.651 70.9647H204.925C204.304 70.9647 203.868 70.9958 203.62 71.0581C203.34 71.0892 203.076 71.167 202.827 71.2915C202.672 71.3849 202.532 71.4627 202.407 71.525C202.252 71.5873 202.159 71.6184 202.127 71.6184Z" fill="black"/>
<path d="M221.886 72.5056C221.512 72.5056 221.202 72.381 220.953 72.132C220.487 71.6962 220.253 71.0736 220.253 70.2643C220.253 69.0192 220.797 67.3227 221.886 65.1748C222.849 63.2137 224.155 61.3149 225.803 59.4783C227.45 57.6417 229.005 56.3499 230.466 55.6028C231.056 55.2915 231.554 55.1359 231.958 55.1359C232.269 55.1359 232.549 55.2293 232.797 55.4161C232.984 55.5406 233.093 55.6962 233.124 55.883C233.186 56.0386 233.217 56.241 233.217 56.49C233.217 57.0503 233.062 57.595 232.751 58.1242C232.471 58.6534 232.191 58.918 231.911 58.918H231.818C231.725 58.8869 231.678 58.8402 231.678 58.7779C231.678 58.6534 231.787 58.4511 232.005 58.1709C232.16 57.8908 232.284 57.595 232.378 57.2838C232.502 56.9725 232.564 56.7235 232.564 56.5367L232.518 56.3032C232.393 56.1476 232.238 56.0698 232.051 56.0698C231.367 56.0698 230.326 56.6768 228.927 57.8908C227.528 59.0736 226.191 60.5211 224.917 62.2332C223.766 63.7896 222.865 65.2838 222.212 66.7157C221.559 68.1476 221.233 69.2838 221.233 70.1242C221.233 70.4666 221.295 70.7312 221.419 70.918C221.575 71.1982 221.823 71.3382 222.165 71.3382C222.88 71.3382 223.922 70.7779 225.29 69.6573C229.269 66.1709 232.176 61.9686 234.01 57.0503C234.227 56.4589 234.336 56.0542 234.336 55.8363C234.336 55.774 234.321 55.7273 234.29 55.6962C234.259 55.634 234.212 55.5873 234.15 55.5561C233.963 55.4316 233.87 55.3071 233.87 55.1826C233.87 55.027 233.963 54.9024 234.15 54.8091L234.29 54.7624C234.663 54.7624 234.88 55.1359 234.942 55.883C234.942 56.2565 234.818 56.7857 234.569 57.4705C232.922 62.5756 230.046 66.8402 225.943 70.2643C225.507 70.6378 224.886 71.1048 224.077 71.6651C223.3 72.2254 222.569 72.5056 221.886 72.5056Z" fill="black"/>
<path d="M235.28 71.6184L235 71.525C234.938 71.4939 234.891 71.4316 234.86 71.3382C234.798 71.2449 234.767 71.1359 234.767 71.0114C234.767 70.7935 234.891 70.6067 235.14 70.4511C235.358 70.2643 235.637 70.1398 235.979 70.0775C236.166 69.9842 236.896 69.3305 238.171 68.1164C239.477 66.8713 240.969 65.4238 242.648 63.774C244.357 62.0931 245.881 60.5522 247.218 59.1515C248.585 57.7507 249.44 56.8324 249.782 56.3966C250 56.1164 250.171 55.8363 250.295 55.5561C250.451 55.2449 250.528 55.0425 250.528 54.9491C250.528 54.6378 250.326 54.4822 249.922 54.4822C249.456 54.4822 248.803 54.6845 247.964 55.0892C247.124 55.4939 246.254 56.0386 245.352 56.7235C244.42 57.4394 243.565 58.1554 242.788 58.8713C242.041 59.5561 241.606 60.0386 241.482 60.3188C241.358 60.5989 241.233 60.739 241.109 60.739C240.953 60.739 240.86 60.5989 240.829 60.3188C240.829 60.1631 240.969 59.9297 241.249 59.6184C241.528 59.3071 242.026 58.8402 242.741 58.2176C244.357 56.7235 245.694 55.6495 246.751 54.9958C247.808 54.311 248.772 53.9375 249.642 53.8752H250.202C250.42 53.8752 250.575 53.9063 250.668 53.9686C250.793 53.9997 250.917 54.0775 251.041 54.202C251.259 54.3888 251.368 54.6378 251.368 54.9491C251.368 56.4744 248.197 60.2565 241.855 66.2954L237.984 69.9375C237.984 69.9686 238.124 70.0153 238.404 70.0775C238.715 70.1087 239.104 70.1398 239.57 70.1709L240.689 70.2176C242.088 70.2176 243.145 69.9686 243.86 69.4705C244.14 69.2838 244.482 68.9725 244.886 68.5367C245.29 68.0698 245.663 67.6184 246.005 67.1826C246.347 66.7468 246.518 66.4666 246.518 66.3421C246.518 66.2799 246.549 66.2332 246.611 66.2021C246.674 66.1398 246.72 66.1087 246.751 66.1087C246.938 66.1087 247.031 66.1709 247.031 66.2954C247.031 66.5756 246.596 67.2604 245.725 68.3499C244.886 69.4083 244.093 70.1087 243.347 70.4511C242.601 70.7935 241.42 70.9647 239.803 70.9647H238.078C237.456 70.9647 237.021 70.9958 236.772 71.0581C236.492 71.0892 236.228 71.167 235.979 71.2915C235.824 71.3849 235.684 71.4627 235.56 71.525C235.404 71.5873 235.311 71.6184 235.28 71.6184Z" fill="black"/>
<path d="M253.406 71.8986C252.939 71.8986 252.535 71.8207 252.193 71.6651C251.882 71.5406 251.68 71.3849 251.587 71.1982C251.494 71.0114 251.447 70.7468 251.447 70.4044C251.447 69.2215 252.442 67.8519 254.432 66.2954C256.297 64.9258 257.665 64.241 258.535 64.241C258.691 64.241 258.831 64.2721 258.955 64.3343C259.142 64.4589 259.235 64.5678 259.235 64.6612C259.235 64.7546 259.157 64.8168 259.002 64.848L258.862 64.8013L258.582 64.7546C258.116 64.7546 257.416 65.0347 256.483 65.595C255.582 66.1554 254.727 66.8091 253.919 67.5561C253.142 68.3032 252.613 68.988 252.333 69.6106C252.24 69.8908 252.193 70.1242 252.193 70.311C252.193 70.7468 252.489 70.9491 253.079 70.918C254.603 70.8246 256.25 70.2021 258.022 69.0503C259.794 67.8985 261.162 66.6067 262.126 65.1748C262.406 64.7079 262.546 64.2098 262.546 63.6807C262.546 62.9647 262.297 62.3421 261.8 61.8129C261.24 61.2838 260.96 60.8635 260.96 60.5522C260.991 60.4277 261.069 60.3188 261.193 60.2254C261.349 60.1009 261.551 59.9919 261.8 59.8985C261.955 59.8052 262.126 59.7118 262.312 59.6184C263.587 58.9024 264.629 58.1554 265.437 57.3771C266.245 56.5989 266.649 55.9608 266.649 55.4628C266.649 55.2137 266.54 55.027 266.323 54.9024C266.198 54.8402 266.012 54.8091 265.763 54.8091C265.204 54.8091 264.426 54.9958 263.432 55.3694C262.468 55.7118 261.597 56.1164 260.82 56.5834C260.043 57.0503 259.654 57.4394 259.654 57.7507C259.654 57.8129 259.608 57.8752 259.515 57.9375C259.452 57.9686 259.39 57.9842 259.328 57.9842C259.079 57.9842 258.971 57.8908 259.002 57.704C259.002 57.455 259.204 57.1126 259.608 56.6768C260.043 56.2721 260.649 55.8674 261.426 55.4628C262.204 55.0581 262.934 54.7624 263.618 54.5756C264.395 54.2954 265.126 54.1554 265.81 54.1554C266.276 54.1554 266.665 54.2487 266.976 54.4355C267.287 54.6223 267.442 54.9336 267.442 55.3694C267.442 55.5561 267.411 55.774 267.349 56.0231C266.913 57.2993 265.561 58.6378 263.292 60.0386C263.261 60.0386 263.245 60.0542 263.245 60.0853C262.623 60.4277 262.312 60.6612 262.312 60.7857L262.406 60.8791C262.468 60.9102 262.561 61.0192 262.686 61.2059C262.841 61.3616 262.981 61.5639 263.105 61.8129C263.416 62.311 263.572 62.8402 263.572 63.4005C263.572 64.0231 263.354 64.739 262.919 65.5484C261.955 67.2293 260.494 68.7079 258.535 69.9842C256.577 71.2604 254.867 71.8986 253.406 71.8986Z" fill="black"/>
<path d="M89.6809 38.56C89.4011 38.56 89.2612 38.4044 89.2612 38.0931C89.2612 37.7818 89.4011 37.6262 89.6809 37.6262L89.8674 37.6729C90.0229 37.7974 90.1006 37.953 90.1006 38.1398C90.1006 38.42 89.9607 38.56 89.6809 38.56ZM38.106 54.5756C29.0594 54.5756 21.4274 52.8168 15.2098 49.2993C9.36524 45.8752 5.38599 41.6262 3.27201 36.5522C2.09067 33.7507 1.5 30.8869 1.5 27.9608C1.5 20.4277 4.99739 13.9063 11.9922 8.39661C16.6554 4.72345 22.9507 2.10867 30.8781 0.552249L31.2045 0.505554C31.6397 0.505554 31.8574 0.645631 31.8574 0.925785C31.8574 1.33045 31.5776 1.56392 31.018 1.62618C23.1838 3.15147 16.9662 5.64174 12.3652 9.09699C7.73313 12.5522 4.67097 16.5678 3.17875 21.1437C2.46373 23.2604 2.10621 25.3927 2.10621 27.5406C2.10621 30.4978 2.72797 33.3927 3.97149 36.2254C5.99221 41.2371 9.81602 45.4394 15.4429 48.8324C21.6605 52.3188 29.1993 54.062 38.0594 54.062C51.8003 54.062 67.6085 49.7351 85.484 41.0814C86.0125 40.6768 86.4167 40.4744 86.6964 40.4744C87.1939 40.5678 87.4426 40.7701 87.4426 41.0814C87.4426 41.3305 87.2716 41.5639 86.9296 41.7818C85.997 42.2487 84.7379 43.525 83.1524 45.6106C82.4374 46.5756 82.0177 47.3849 81.8934 48.0386C81.8934 48.6301 82.2042 48.9258 82.826 48.9258C83.6343 48.9258 84.6913 48.6768 85.997 48.1787L86.4167 48.0386C89.9296 46.8869 93.6135 45.5172 97.4684 43.9297C100.733 42.6223 102.722 41.8752 103.437 41.6884C103.531 41.6884 103.577 41.7196 103.577 41.7818C103.577 41.8752 102.831 42.2176 101.339 42.8091C95.7741 45.1748 90.7845 47.1203 86.37 48.6456C84.6913 49.2682 83.4322 49.5795 82.5928 49.5795C81.4115 49.5795 80.8208 49.0347 80.8208 47.9452C80.9452 46.3577 82.0333 44.49 84.0851 42.3421C66.9556 50.4978 51.6293 54.5756 38.106 54.5756Z" stroke="black" stroke-width="0.25"/>
<path d="M100.952 56.3966C100.579 56.3966 100.33 56.2877 100.205 56.0698C100.081 55.883 100.019 55.6495 100.019 55.3694C100.019 54.9958 100.097 54.5756 100.252 54.1087C100.998 51.9297 102.832 49.097 105.755 45.6106L107.014 44.2098C103.967 45.9219 101.931 46.9491 100.905 47.2915L100.579 47.3382C100.299 47.3382 100.066 47.2449 99.8791 47.0581C99.6614 46.8713 99.5526 46.6379 99.5526 46.3577L99.5993 46.0775C99.848 45.1126 100.594 44.0075 101.838 42.7624C102.708 41.8285 103.33 41.3616 103.703 41.3616C103.827 41.3616 103.952 41.4083 104.076 41.5017C104.262 41.6262 104.356 41.7663 104.356 41.9219C104.356 42.2643 103.889 42.8713 102.957 43.7429C101.775 44.8947 101.185 45.6106 101.185 45.8908C101.185 45.9842 101.247 46.0308 101.371 46.0308C101.527 46.0308 102.18 45.7507 103.33 45.1904C104.511 44.5989 105.739 43.9452 107.014 43.2293C108.319 42.5133 109.33 41.9219 110.045 41.455C110.48 41.1437 110.822 40.988 111.071 40.988C111.288 40.988 111.413 41.1437 111.444 41.455C111.444 41.5484 111.273 41.8129 110.931 42.2487C110.589 42.6534 110.169 43.1048 109.672 43.6028C107.465 45.8129 105.506 48.1164 103.796 50.5133C102.117 52.9102 101.278 54.5133 101.278 55.3227C101.278 55.4783 101.34 55.5561 101.465 55.5561C101.9 55.5561 103.283 54.8091 105.615 53.3149C109.749 50.7001 113.635 48.3344 117.273 46.2176C120.91 44.0698 123.568 42.6378 125.247 41.9219C125.496 41.8285 125.666 41.7818 125.76 41.7818C125.853 41.7818 125.9 41.7974 125.9 41.8285C125.9 41.8908 125.837 41.9686 125.713 42.062C125.62 42.1242 125.511 42.1865 125.387 42.2487C123.677 43.0581 121.128 44.4744 117.739 46.4978C114.35 48.49 111.273 50.3733 108.506 52.1476C107.045 53.0814 105.879 53.8285 105.009 54.3888C104.138 54.9491 103.454 55.3538 102.957 55.6028C102.49 55.883 102.148 56.0698 101.931 56.1631C101.682 56.2877 101.48 56.3499 101.325 56.3499L100.952 56.3966Z" stroke="black" stroke-width="0.25"/>
<path d="M128.677 39.5873L131.615 37.8596C133.2 36.8635 135.05 35.634 137.164 34.1709C139.309 32.6768 141.097 31.4161 142.527 30.3888C142.9 30.0775 143.257 29.7974 143.599 29.5484C143.941 29.2993 144.221 29.097 144.439 28.9414C144.532 28.8791 144.594 28.8324 144.625 28.8013C146.366 27.4939 147.889 26.1398 149.195 24.739C150.501 23.3071 151.154 22.2643 151.154 21.6106C151.154 21.5172 151.138 21.455 151.107 21.4238C151.076 21.3616 151.029 21.3305 150.967 21.3305L150.594 21.3771C149.537 21.6262 147.719 22.7001 145.138 24.5989C142.558 26.4666 139.822 28.6768 136.931 31.2293C136.278 31.7896 135.392 32.6145 134.273 33.704C133.185 34.7624 132.143 35.8052 131.149 36.8324C130.154 37.8285 129.501 38.5289 129.19 38.9336L128.677 39.5873ZM116.366 60.3188C115.993 60.3188 115.698 60.2254 115.48 60.0386C115.138 59.7585 114.967 59.2915 114.967 58.6379C114.967 58.1398 115.076 57.5639 115.294 56.9102C116.32 53.8285 118.76 49.7974 122.615 44.8168C126.439 39.8363 130.667 35.2293 135.299 30.9958C138.128 28.4744 141.066 26.1865 144.112 24.132C147.159 22.0464 149.335 20.848 150.641 20.5367H150.827C151.449 20.5367 151.791 20.8324 151.853 21.4238V21.6573C151.511 23.6807 148.558 26.7157 142.993 30.7624C140.817 32.381 138.579 33.9842 136.278 35.5717C133.978 37.1281 132.423 38.1398 131.615 38.6067C131.46 38.669 131.32 38.7468 131.195 38.8402C131.071 38.9024 130.978 38.9647 130.915 39.027C130.636 39.2137 130.263 39.4316 129.796 39.6807C129.361 39.9297 128.941 40.1631 128.537 40.381C128.164 40.5989 127.931 40.7235 127.838 40.7546C127.558 40.8791 126.874 41.595 125.786 42.9024C124.698 44.2098 123.532 45.6884 122.289 47.3382C118.185 53.0347 116.133 56.8168 116.133 58.6845V59.3849C116.195 59.3849 116.258 59.3694 116.32 59.3382C116.693 59.3382 117.097 59.276 117.532 59.1515C117.936 59.027 118.543 58.7468 119.351 58.311C120.128 57.9063 121.294 57.2215 122.848 56.2565C124.371 55.3227 126.439 54.0153 129.05 52.3343C129.392 52.1164 129.781 51.8674 130.216 51.5873C130.651 51.3071 131.024 51.0736 131.335 50.8869C131.584 50.7312 131.833 50.5756 132.081 50.42C132.423 50.2643 132.672 50.1242 132.827 49.9997L142.247 44.2098L144.579 42.8557C145.791 42.1087 146.537 41.7351 146.817 41.7351C146.91 41.7351 146.957 41.7663 146.957 41.8285V41.9219C146.926 41.9842 146.693 42.1709 146.257 42.4822C145.822 42.7624 145.309 43.0892 144.719 43.4628C144.159 43.8052 143.677 44.0853 143.273 44.3032C142.9 44.49 141.89 45.097 140.242 46.1242C138.594 47.1203 136.822 48.2098 134.926 49.3927C133.029 50.5756 131.522 51.525 130.403 52.241C130.247 52.3343 130.029 52.4744 129.75 52.6612C129.377 52.9102 128.988 53.1748 128.584 53.455C127.838 53.9219 126.983 54.4666 126.019 55.0892C123.905 56.3966 122.149 57.5172 120.75 58.4511C118.822 59.6962 117.361 60.3188 116.366 60.3188Z" stroke="black" stroke-width="0.25"/>
<path d="M144.116 49.5795C143.619 49.5795 143.199 49.4705 142.857 49.2526C142.515 49.0036 142.344 48.5678 142.344 47.9452L142.391 47.3382C142.67 45.9063 143.821 44.1631 145.841 42.1087C146.96 41.0192 147.769 40.4744 148.266 40.4744L148.453 40.5211C148.795 40.6768 148.966 40.8635 148.966 41.0814C148.966 41.3305 148.795 41.5639 148.453 41.7818C148.017 41.9997 147.427 42.4978 146.681 43.276C145.966 44.0231 145.297 44.8168 144.676 45.6573C144.054 46.4666 143.665 47.0892 143.51 47.525L143.463 48.0386C143.463 48.6923 143.821 48.988 144.536 48.9258C145.002 48.9258 145.515 48.848 146.074 48.6923C146.634 48.5056 147.116 48.3343 147.52 48.1787C147.707 48.1164 147.847 48.0698 147.94 48.0386C151.453 46.8869 155.137 45.5172 158.992 43.9297C161.23 43.027 163.095 42.311 164.587 41.7818L164.96 41.6884C165.054 41.6884 165.1 41.7196 165.1 41.7818C165.1 41.8441 164.976 41.9375 164.727 42.062C164.261 42.2487 163.639 42.4978 162.862 42.8091C160.966 43.6184 158.634 44.5834 155.867 45.704C153.131 46.7935 150.536 47.7585 148.08 48.5989C147.955 48.6301 147.815 48.6768 147.66 48.739C147.194 48.9258 146.634 49.1126 145.981 49.2993C145.328 49.4861 144.707 49.5795 144.116 49.5795ZM151.204 38.56C151.173 38.56 151.111 38.5445 151.017 38.5133C150.955 38.4822 150.909 38.4355 150.878 38.3733C150.815 38.2799 150.784 38.1865 150.784 38.0931C150.784 37.9686 150.831 37.8596 150.924 37.7663C151.017 37.6729 151.111 37.6262 151.204 37.6262L151.391 37.6729C151.577 37.7974 151.67 37.953 151.67 38.1398C151.67 38.2332 151.624 38.3266 151.53 38.42C151.468 38.5133 151.359 38.56 151.204 38.56Z" stroke="black" stroke-width="0.25"/>
<path d="M165.133 43.276L166.532 42.5756C166.967 42.3266 167.433 42.0308 167.931 41.6884C168.428 41.346 168.848 41.0192 169.19 40.7079C169.532 40.3655 169.703 40.1476 169.703 40.0542V40.0075H169.609C169.423 40.0075 169.019 40.1787 168.397 40.5211C167.775 40.8324 167.216 41.1593 166.718 41.5017C166.47 41.7196 166.221 41.953 165.972 42.2021C165.723 42.42 165.506 42.6379 165.319 42.8557C165.164 43.0425 165.086 43.167 165.086 43.2293L165.133 43.276ZM170.449 50.42C169.609 50.42 168.832 50.3733 168.117 50.2799C167.309 50.1865 166.516 50.0153 165.739 49.7663C164.993 49.4861 164.418 49.2059 164.014 48.9258C163.112 48.1165 162.661 47.167 162.661 46.0775C162.661 45.7663 162.708 45.4394 162.801 45.097C163.112 44.1631 163.454 43.4472 163.827 42.9491C164.169 42.42 164.542 41.953 164.946 41.5484C165.444 41.0503 165.863 40.6768 166.205 40.4277C166.578 40.1476 166.998 39.8986 167.464 39.6807C168.366 39.2137 169.096 38.9803 169.656 38.9803C170.091 38.9803 170.402 39.1203 170.589 39.4005C170.682 39.525 170.729 39.6495 170.729 39.774C170.729 39.8985 170.666 40.0698 170.542 40.2877C170.231 40.9102 169.594 41.5795 168.63 42.2954C167.666 42.9803 166.594 43.5873 165.413 44.1164C165.071 44.241 164.806 44.3499 164.62 44.4433C164.464 44.5056 164.356 44.5989 164.293 44.7235C164.2 44.8168 164.122 44.9414 164.06 45.097C164.029 45.2215 163.998 45.3927 163.967 45.6106C163.905 45.8285 163.874 46.0153 163.874 46.1709C163.874 47.1359 164.48 47.9452 165.692 48.5989C166.936 49.2215 168.723 49.5328 171.055 49.5328C172.889 49.5328 175.143 49.2993 177.817 48.8324C180.521 48.3343 184.749 47.4939 190.5 46.311C194.76 45.4394 200.215 44.3343 206.868 42.9958C212.464 41.8441 218.013 40.6456 223.516 39.4005C223.796 39.3382 224.06 39.276 224.309 39.2137C224.526 39.1515 224.759 39.1048 225.008 39.0736C228.086 38.3266 232.345 37.3772 237.785 36.2254C243.257 35.0736 249.039 34.0153 255.132 33.0503C261.225 32.0853 266.557 31.6028 271.127 31.6028C274.826 31.6028 277.64 32.0542 279.567 32.9569C280.189 33.3616 280.5 33.704 280.5 33.9842C280.5 34.1398 280.438 34.2487 280.313 34.311L279.94 34.4044C279.661 34.4044 279.381 34.2799 279.101 34.0308C278.883 33.8441 278.635 33.704 278.355 33.6106C278.075 33.5172 277.687 33.4083 277.189 33.2838C277.158 33.2838 277.127 33.2838 277.096 33.2838C274.858 32.7857 272.293 32.5367 269.402 32.5367C265.422 32.5367 261.039 32.8947 256.251 33.6106C251.464 34.2954 246.739 35.1203 242.075 36.0853C237.443 37.0192 233.231 37.9219 229.438 38.7935C227.666 39.1982 226.065 39.5561 224.635 39.8674C222.179 40.3966 219.739 40.9258 217.314 41.455C213.894 42.2021 210.412 42.9336 206.868 43.6495C204.63 44.1165 202.656 44.5367 200.946 44.9102C198.459 45.4394 195.226 46.1087 191.247 46.918C185.651 48.1009 181.267 48.988 178.096 49.5795C174.957 50.1398 172.407 50.42 170.449 50.42Z" stroke="black" stroke-width="0.25"/>
<path d="M27.4628 38.9336L27.1831 38.8402C27.1209 38.8091 27.0742 38.7468 27.0432 38.6534C26.981 38.56 26.9499 38.4511 26.9499 38.3266C26.9499 38.1087 27.0742 37.9219 27.323 37.7663C27.5406 37.5795 27.8204 37.455 28.1623 37.3927C28.3489 37.2993 29.0794 36.6456 30.354 35.4316C31.6597 34.1865 33.1519 32.739 34.8307 31.0892C36.5405 29.4083 38.0638 27.8674 39.4006 26.4666C40.7685 25.0659 41.6234 24.1476 41.9654 23.7118C42.183 23.4316 42.354 23.1515 42.4783 22.8713C42.6338 22.56 42.7115 22.3577 42.7115 22.2643C42.7115 21.953 42.5094 21.7974 42.1053 21.7974C41.6389 21.7974 40.9861 21.9997 40.1467 22.4044C39.3073 22.8091 38.4369 23.3538 37.5353 24.0386C36.6027 24.7546 35.7478 25.4705 34.9706 26.1865C34.2245 26.8713 33.7892 27.3538 33.6649 27.634C33.5405 27.9141 33.4162 28.0542 33.2918 28.0542C33.1364 28.0542 33.0431 27.9141 33.012 27.634C33.012 27.4783 33.1519 27.2449 33.4317 26.9336C33.7115 26.6223 34.2089 26.1554 34.9239 25.5328C36.5405 24.0386 37.8773 22.9647 38.9343 22.311C39.9913 21.6262 40.955 21.2526 41.8255 21.1904H42.3851C42.6027 21.1904 42.7581 21.2215 42.8514 21.2838C42.9757 21.3149 43.1001 21.3927 43.2244 21.5172C43.442 21.704 43.5508 21.953 43.5508 22.2643C43.5508 23.7896 40.3799 27.5717 34.0379 33.6106L30.1675 37.2526C30.1675 37.2838 30.3074 37.3305 30.5872 37.3927C30.8981 37.4238 31.2867 37.455 31.753 37.4861L32.8721 37.5328C34.2711 37.5328 35.3281 37.2838 36.0431 36.7857C36.3229 36.5989 36.6649 36.2877 37.069 35.8519C37.4732 35.3849 37.8462 34.9336 38.1882 34.4978C38.5301 34.062 38.7011 33.7818 38.7011 33.6573C38.7011 33.595 38.7322 33.5484 38.7944 33.5172C38.8566 33.455 38.9032 33.4238 38.9343 33.4238C39.1208 33.4238 39.2141 33.4861 39.2141 33.6106C39.2141 33.8908 38.7789 34.5756 37.9084 35.6651C37.069 36.7235 36.2763 37.4238 35.5302 37.7663C34.7841 38.1087 33.6027 38.2799 31.9861 38.2799H30.2608C29.639 38.2799 29.2038 38.311 28.9551 38.3733C28.6753 38.4044 28.411 38.4822 28.1623 38.6067C28.0069 38.7001 27.867 38.7779 27.7426 38.8402C27.5872 38.9024 27.4939 38.9336 27.4628 38.9336Z" stroke="black" stroke-width="0.25"/>
<path d="M52.3504 27.8674C52.4437 27.8674 52.6147 27.7118 52.8634 27.4005C53.3608 26.8402 54.4644 25.7351 56.1742 24.0853C57.0758 23.2137 57.5266 22.6845 57.5266 22.4978C57.5266 22.4666 57.4955 22.4511 57.4333 22.4511C57.34 22.4511 57.1535 22.5133 56.8737 22.6379C56.0343 23.0736 55.1328 23.8052 54.1691 24.8324C53.2053 25.8285 52.5836 26.7001 52.3038 27.4472L52.2572 27.7273C52.2572 27.8207 52.2883 27.8674 52.3504 27.8674ZM45.8686 40.3343C45.6821 40.3343 45.4955 40.2877 45.309 40.1943C45.0603 39.9764 44.936 39.7429 44.936 39.4939C44.936 39.276 44.9981 39.0736 45.1225 38.8869C45.2157 38.7001 45.309 38.6067 45.4023 38.6067C45.4955 38.6067 45.5422 38.7312 45.5422 38.9803V39.0736C45.5422 39.3849 45.6665 39.525 45.9152 39.4939C46.1328 39.4939 46.4126 39.4005 46.7546 39.2137C47.0966 38.9958 47.4074 38.7779 47.6872 38.56C47.967 38.3421 48.1536 38.1865 48.2468 38.0931C48.8375 37.5017 49.6769 36.3655 50.7649 34.6845C51.853 33.0036 52.9722 31.0892 54.1224 28.9414L56.0343 25.6262C56.252 25.3149 56.4385 25.0192 56.5939 24.739C56.7805 24.4589 56.8737 24.2721 56.8737 24.1787V24.132C56.7805 24.132 55.7235 25.1904 53.7028 27.3071C52.8323 28.2721 52.2261 28.7546 51.8841 28.7546C51.6976 28.7546 51.5577 28.6456 51.4644 28.4277C51.4333 28.3343 51.4178 28.2098 51.4178 28.0542C51.4178 27.5561 51.7442 26.8091 52.3971 25.8129C53.3919 24.3188 54.6354 23.1826 56.1276 22.4044C56.4696 22.2176 56.7338 22.0931 56.9204 22.0308C57.138 21.9375 57.3245 21.8908 57.4799 21.8908L58.3193 21.9842C58.4748 21.9842 58.6146 21.9375 58.739 21.8441C58.8633 21.7507 59.0499 21.595 59.2986 21.3771C59.4851 21.1904 59.6872 21.0192 59.9048 20.8635C60.1535 20.7079 60.3245 20.6301 60.4177 20.6301C60.4799 20.6301 60.511 20.6612 60.511 20.7235C60.511 20.8168 60.3867 21.0347 60.138 21.3771C60.1069 21.4394 60.0602 21.5172 59.9981 21.6106C59.8115 21.8908 59.5628 22.2176 59.2519 22.5912C58.91 23.0892 58.5369 23.634 58.1328 24.2254C57.7597 24.8168 57.2312 25.6729 56.5473 26.7935C55.8945 27.883 54.9774 29.455 53.796 31.5094C52.9256 33.0347 52.0396 34.4511 51.138 35.7585C50.2365 37.0659 49.4903 37.9997 48.8997 38.56C48.5888 38.9024 48.138 39.2915 47.5473 39.7273C46.9567 40.132 46.3971 40.3343 45.8686 40.3343Z" stroke="black" stroke-width="0.25"/>
<path d="M202.127 71.6184L201.848 71.525C201.786 71.4939 201.739 71.4316 201.708 71.3382C201.646 71.2449 201.615 71.1359 201.615 71.0114C201.615 70.7935 201.739 70.6067 201.988 70.4511C202.205 70.2643 202.485 70.1398 202.827 70.0775C203.013 69.9842 203.744 69.3305 205.019 68.1164C206.324 66.8713 207.817 65.4238 209.495 63.774C211.205 62.0931 212.728 60.5522 214.065 59.1515C215.433 57.7507 216.288 56.8324 216.63 56.3966C216.848 56.1164 217.019 55.8363 217.143 55.5561C217.298 55.2449 217.376 55.0425 217.376 54.9491C217.376 54.6378 217.174 54.4822 216.77 54.4822C216.304 54.4822 215.651 54.6845 214.811 55.0892C213.972 55.4939 213.102 56.0386 212.2 56.7235C211.267 57.4394 210.412 58.1554 209.635 58.8713C208.889 59.5561 208.454 60.0386 208.33 60.3188C208.205 60.5989 208.081 60.739 207.956 60.739C207.801 60.739 207.708 60.5989 207.677 60.3188C207.677 60.1631 207.817 59.9297 208.096 59.6184C208.376 59.3071 208.874 58.8402 209.589 58.2176C211.205 56.7235 212.542 55.6495 213.599 54.9958C214.656 54.311 215.62 53.9375 216.49 53.8752H217.05C217.267 53.8752 217.423 53.9063 217.516 53.9686C217.64 53.9997 217.765 54.0775 217.889 54.202C218.107 54.3888 218.215 54.6378 218.215 54.9491C218.215 56.4744 215.045 60.2565 208.703 66.2954L204.832 69.9375C204.832 69.9686 204.972 70.0153 205.252 70.0775C205.563 70.1087 205.951 70.1398 206.418 70.1709L207.537 70.2176C208.936 70.2176 209.993 69.9686 210.708 69.4705C210.988 69.2838 211.329 68.9725 211.734 68.5367C212.138 68.0698 212.511 67.6184 212.853 67.1826C213.195 66.7468 213.366 66.4666 213.366 66.3421C213.366 66.2799 213.397 66.2332 213.459 66.2021C213.521 66.1398 213.568 66.1087 213.599 66.1087C213.785 66.1087 213.879 66.1709 213.879 66.2954C213.879 66.5756 213.443 67.2604 212.573 68.3499C211.734 69.4083 210.941 70.1087 210.195 70.4511C209.449 70.7935 208.267 70.9647 206.651 70.9647H204.925C204.304 70.9647 203.868 70.9958 203.62 71.0581C203.34 71.0892 203.076 71.167 202.827 71.2915C202.672 71.3849 202.532 71.4627 202.407 71.525C202.252 71.5873 202.159 71.6184 202.127 71.6184Z" stroke="black" stroke-width="0.25"/>
<path d="M221.886 72.5056C221.512 72.5056 221.202 72.381 220.953 72.132C220.487 71.6962 220.253 71.0736 220.253 70.2643C220.253 69.0192 220.797 67.3227 221.886 65.1748C222.849 63.2137 224.155 61.3149 225.803 59.4783C227.45 57.6417 229.005 56.3499 230.466 55.6028C231.056 55.2915 231.554 55.1359 231.958 55.1359C232.269 55.1359 232.549 55.2293 232.797 55.4161C232.984 55.5406 233.093 55.6962 233.124 55.883C233.186 56.0386 233.217 56.241 233.217 56.49C233.217 57.0503 233.062 57.595 232.751 58.1242C232.471 58.6534 232.191 58.918 231.911 58.918H231.818C231.725 58.8869 231.678 58.8402 231.678 58.7779C231.678 58.6534 231.787 58.4511 232.005 58.1709C232.16 57.8908 232.284 57.595 232.378 57.2838C232.502 56.9725 232.564 56.7235 232.564 56.5367L232.518 56.3032C232.393 56.1476 232.238 56.0698 232.051 56.0698C231.367 56.0698 230.326 56.6768 228.927 57.8908C227.528 59.0736 226.191 60.5211 224.917 62.2332C223.766 63.7896 222.865 65.2838 222.212 66.7157C221.559 68.1476 221.233 69.2838 221.233 70.1242C221.233 70.4666 221.295 70.7312 221.419 70.918C221.575 71.1982 221.823 71.3382 222.165 71.3382C222.88 71.3382 223.922 70.7779 225.29 69.6573C229.269 66.1709 232.176 61.9686 234.01 57.0503C234.227 56.4589 234.336 56.0542 234.336 55.8363C234.336 55.774 234.321 55.7273 234.29 55.6962C234.259 55.634 234.212 55.5873 234.15 55.5561C233.963 55.4316 233.87 55.3071 233.87 55.1826C233.87 55.027 233.963 54.9024 234.15 54.8091L234.29 54.7624C234.663 54.7624 234.88 55.1359 234.942 55.883C234.942 56.2565 234.818 56.7857 234.569 57.4705C232.922 62.5756 230.046 66.8402 225.943 70.2643C225.507 70.6378 224.886 71.1048 224.077 71.6651C223.3 72.2254 222.569 72.5056 221.886 72.5056Z" stroke="black" stroke-width="0.25"/>
<path d="M235.28 71.6184L235 71.525C234.938 71.4939 234.891 71.4316 234.86 71.3382C234.798 71.2449 234.767 71.1359 234.767 71.0114C234.767 70.7935 234.891 70.6067 235.14 70.4511C235.358 70.2643 235.637 70.1398 235.979 70.0775C236.166 69.9842 236.896 69.3305 238.171 68.1164C239.477 66.8713 240.969 65.4238 242.648 63.774C244.357 62.0931 245.881 60.5522 247.218 59.1515C248.585 57.7507 249.44 56.8324 249.782 56.3966C250 56.1164 250.171 55.8363 250.295 55.5561C250.451 55.2449 250.528 55.0425 250.528 54.9491C250.528 54.6378 250.326 54.4822 249.922 54.4822C249.456 54.4822 248.803 54.6845 247.964 55.0892C247.124 55.4939 246.254 56.0386 245.352 56.7235C244.42 57.4394 243.565 58.1554 242.788 58.8713C242.041 59.5561 241.606 60.0386 241.482 60.3188C241.358 60.5989 241.233 60.739 241.109 60.739C240.953 60.739 240.86 60.5989 240.829 60.3188C240.829 60.1631 240.969 59.9297 241.249 59.6184C241.528 59.3071 242.026 58.8402 242.741 58.2176C244.357 56.7235 245.694 55.6495 246.751 54.9958C247.808 54.311 248.772 53.9375 249.642 53.8752H250.202C250.42 53.8752 250.575 53.9063 250.668 53.9686C250.793 53.9997 250.917 54.0775 251.041 54.202C251.259 54.3888 251.368 54.6378 251.368 54.9491C251.368 56.4744 248.197 60.2565 241.855 66.2954L237.984 69.9375C237.984 69.9686 238.124 70.0153 238.404 70.0775C238.715 70.1087 239.104 70.1398 239.57 70.1709L240.689 70.2176C242.088 70.2176 243.145 69.9686 243.86 69.4705C244.14 69.2838 244.482 68.9725 244.886 68.5367C245.29 68.0698 245.663 67.6184 246.005 67.1826C246.347 66.7468 246.518 66.4666 246.518 66.3421C246.518 66.2799 246.549 66.2332 246.611 66.2021C246.674 66.1398 246.72 66.1087 246.751 66.1087C246.938 66.1087 247.031 66.1709 247.031 66.2954C247.031 66.5756 246.596 67.2604 245.725 68.3499C244.886 69.4083 244.093 70.1087 243.347 70.4511C242.601 70.7935 241.42 70.9647 239.803 70.9647H238.078C237.456 70.9647 237.021 70.9958 236.772 71.0581C236.492 71.0892 236.228 71.167 235.979 71.2915C235.824 71.3849 235.684 71.4627 235.56 71.525C235.404 71.5873 235.311 71.6184 235.28 71.6184Z" stroke="black" stroke-width="0.25"/>
<path d="M253.406 71.8986C252.939 71.8986 252.535 71.8207 252.193 71.6651C251.882 71.5406 251.68 71.3849 251.587 71.1982C251.494 71.0114 251.447 70.7468 251.447 70.4044C251.447 69.2215 252.442 67.8519 254.432 66.2954C256.297 64.9258 257.665 64.241 258.535 64.241C258.691 64.241 258.831 64.2721 258.955 64.3343C259.142 64.4589 259.235 64.5678 259.235 64.6612C259.235 64.7546 259.157 64.8168 259.002 64.848L258.862 64.8013L258.582 64.7546C258.116 64.7546 257.416 65.0347 256.483 65.595C255.582 66.1554 254.727 66.8091 253.919 67.5561C253.142 68.3032 252.613 68.988 252.333 69.6106C252.24 69.8908 252.193 70.1242 252.193 70.311C252.193 70.7468 252.489 70.9491 253.079 70.918C254.603 70.8246 256.25 70.2021 258.022 69.0503C259.794 67.8985 261.162 66.6067 262.126 65.1748C262.406 64.7079 262.546 64.2098 262.546 63.6807C262.546 62.9647 262.297 62.3421 261.8 61.8129C261.24 61.2838 260.96 60.8635 260.96 60.5522C260.991 60.4277 261.069 60.3188 261.193 60.2254C261.349 60.1009 261.551 59.9919 261.8 59.8985C261.955 59.8052 262.126 59.7118 262.312 59.6184C263.587 58.9024 264.629 58.1554 265.437 57.3771C266.245 56.5989 266.649 55.9608 266.649 55.4628C266.649 55.2137 266.54 55.027 266.323 54.9024C266.198 54.8402 266.012 54.8091 265.763 54.8091C265.204 54.8091 264.426 54.9958 263.432 55.3694C262.468 55.7118 261.597 56.1164 260.82 56.5834C260.043 57.0503 259.654 57.4394 259.654 57.7507C259.654 57.8129 259.608 57.8752 259.515 57.9375C259.452 57.9686 259.39 57.9842 259.328 57.9842C259.079 57.9842 258.971 57.8908 259.002 57.704C259.002 57.455 259.204 57.1126 259.608 56.6768C260.043 56.2721 260.649 55.8674 261.426 55.4628C262.204 55.0581 262.934 54.7624 263.618 54.5756C264.395 54.2954 265.126 54.1554 265.81 54.1554C266.276 54.1554 266.665 54.2487 266.976 54.4355C267.287 54.6223 267.442 54.9336 267.442 55.3694C267.442 55.5561 267.411 55.774 267.349 56.0231C266.913 57.2993 265.561 58.6378 263.292 60.0386C263.261 60.0386 263.245 60.0542 263.245 60.0853C262.623 60.4277 262.312 60.6612 262.312 60.7857L262.406 60.8791C262.468 60.9102 262.561 61.0192 262.686 61.2059C262.841 61.3616 262.981 61.5639 263.105 61.8129C263.416 62.311 263.572 62.8402 263.572 63.4005C263.572 64.0231 263.354 64.739 262.919 65.5484C261.955 67.2293 260.494 68.7079 258.535 69.9842C256.577 71.2604 254.867 71.8986 253.406 71.8986Z" stroke="black" stroke-width="0.25"/>
</g>
<defs>
<filter id="filter0_d_441_163136" x="0.875" y="0.380554" width="280.25" height="73.25" filterUnits="userSpaceOnUse" color-interpolation-filters="sRGB">
<feFlood flood-opacity="0" result="BackgroundImageFix"/>
<feColorMatrix in="SourceAlpha" type="matrix" values="0 0 0 0 0 0 0 0 0 0 0 0 0 0 0 0 0 0 127 0" result="hardAlpha"/>
<feOffset dy="0.5"/>
<feGaussianBlur stdDeviation="0.25"/>
<feComposite in2="hardAlpha" operator="out"/>
<feColorMatrix type="matrix" values="0 0 0 0 1 0 0 0 0 1 0 0 0 0 1 0 0 0 1 0"/>
<feBlend mode="normal" in2="BackgroundImageFix" result="effect1_dropShadow_441_163136"/>
<feBlend mode="normal" in="SourceGraphic" in2="effect1_dropShadow_441_163136" result="shape"/>
</filter>
</defs>
</svg>
