<svg width="304" height="64" viewBox="0 0 304 64" fill="none" xmlns="http://www.w3.org/2000/svg">
<path d="M122.004 15.684L122.688 15.072C122.88 14.904 123.336 14.52 124.056 13.92C124.8 13.296 125.628 12.612 126.54 11.868C128.1 10.524 129.348 9.408 130.284 8.52C131.244 7.608 131.724 7.092 131.724 6.972V6.936H131.688C131.424 6.936 130.608 7.5 129.24 8.628C127.872 9.756 126.48 11.004 125.064 12.372C123.648 13.716 122.628 14.82 122.004 15.684ZM93.24 63.816C93.048 63.816 92.892 63.744 92.772 63.6C92.628 63.432 92.556 63.156 92.556 62.772C92.556 61.26 93.84 57.912 96.408 52.728C101.352 42.528 107.028 33.156 113.436 24.612C113.844 24.084 114.048 23.784 114.048 23.712H114.012L113.832 23.856C112.728 24.84 111.036 26.352 108.756 28.392C106.5 30.432 104.16 32.544 101.736 34.728C99.312 36.912 97.332 38.712 95.796 40.128C93.132 42.6 91.056 44.496 89.568 45.816C88.08 47.136 86.964 48.072 86.22 48.624C85.5 49.2 84.936 49.56 84.528 49.704C84.336 49.776 84.168 49.812 84.024 49.812C83.856 49.812 83.688 49.752 83.52 49.632C83.208 49.44 83.052 49.116 83.052 48.66C83.052 47.652 83.94 45.6 85.716 42.504C88.164 38.232 90.852 33.984 93.78 29.76C94.596 28.56 95.376 27.396 96.12 26.268L93.492 28.464C87.732 33.12 80.064 37.992 70.488 43.08C60.912 48.144 52.728 51.888 45.936 54.312C41.76 55.776 37.608 56.928 33.48 57.768C29.376 58.632 25.428 59.064 21.636 59.064C19.404 59.064 17.232 58.896 15.12 58.56C13.368 58.272 11.604 57.804 9.828 57.156C8.076 56.532 6.468 55.704 5.004 54.672C3.516 53.664 2.316 52.44 1.404 51C0.468 49.56 0 47.88 0 45.96C0 45.312 0.0599999 44.628 0.18 43.908C0.612 41.34 1.956 38.544 4.212 35.52C4.5 35.28 4.764 35.16 5.004 35.16C5.196 35.16 5.364 35.232 5.508 35.376C5.628 35.52 5.688 35.688 5.688 35.88C5.688 36.072 5.616 36.264 5.472 36.456C4.2 36.984 3.168 38.052 2.376 39.66C1.584 41.244 1.08 42.708 0.864 44.052C0.744 44.772 0.684 45.456 0.684 46.104C0.684 48 1.128 49.632 2.016 51C2.88 52.368 4.02 53.52 5.436 54.456C6.852 55.392 8.412 56.136 10.116 56.688C11.82 57.264 13.524 57.696 15.228 57.984C17.364 58.344 19.572 58.524 21.852 58.524C25.596 58.524 29.484 58.104 33.516 57.264C37.548 56.424 41.628 55.284 45.756 53.844C52.644 51.372 60.792 47.592 70.2 42.504C79.632 37.392 87.276 32.472 93.132 27.744C93.732 27.24 94.26 26.808 94.716 26.448C95.556 25.8 96.24 25.224 96.768 24.72C97.32 24.216 97.872 23.592 98.424 22.848C103.272 16.152 107.316 11.736 110.556 9.6C111.444 9 112.056 8.7 112.392 8.7C112.536 8.7 112.656 8.736 112.752 8.808C112.944 8.928 113.04 9.108 113.04 9.348C113.04 10.02 112.068 11.388 110.124 13.452C108.996 14.724 107.796 15.972 106.524 17.196C105.252 18.396 103.68 19.8 101.808 21.408C100.992 22.128 100.356 22.704 99.9 23.136C99.444 23.568 99.036 24 98.676 24.432C98.34 24.84 97.932 25.392 97.452 26.088C96.996 26.76 96.504 27.468 95.976 28.212C94.176 30.732 91.944 34.128 89.28 38.4C87.576 41.256 86.412 43.32 85.788 44.592C85.188 45.864 84.78 46.86 84.564 47.58C84.444 47.916 84.312 48.264 84.168 48.624L84.636 48.408C85.716 47.904 88.668 45.492 93.492 41.172C96.684 38.268 99.444 35.772 101.772 33.684C104.1 31.596 107.004 29.016 110.484 25.944C112.788 23.904 114.492 22.344 115.596 21.264C116.724 20.184 117.552 19.32 118.08 18.672C122.76 13.08 126.768 9.192 130.104 7.008C130.944 6.48 131.556 6.216 131.94 6.216C132.18 6.216 132.336 6.324 132.408 6.54L132.444 6.756C132.444 6.996 132.252 7.344 131.868 7.8C131.508 8.232 130.812 8.916 129.78 9.852C128.772 10.764 127.32 12.024 125.424 13.632C125.256 13.776 125.1 13.908 124.956 14.028C122.724 15.924 121.032 17.4 119.88 18.456C118.752 19.512 117.732 20.604 116.82 21.732C115.908 22.86 114.684 24.504 113.148 26.664C112.932 26.952 112.716 27.24 112.5 27.528C108.78 32.664 105.42 37.884 102.42 43.188C99.3 48.684 96.816 53.652 94.968 58.092C94.584 59.076 94.236 60.024 93.924 60.936C93.636 61.872 93.492 62.472 93.492 62.736L93.528 62.844L93.636 62.88C93.9 62.88 94.548 62.4 95.58 61.44C96.612 60.504 98.376 58.704 100.872 56.04C103.368 53.376 106.884 49.524 111.42 44.484C113.868 41.796 116.004 39.516 117.828 37.644C119.652 35.748 120.912 34.536 121.608 34.008C121.704 33.96 121.776 33.936 121.824 33.936C121.92 33.936 121.968 33.972 121.968 34.044C121.968 34.116 121.908 34.212 121.788 34.332C120.924 35.076 119.532 36.456 117.612 38.472C115.716 40.488 113.856 42.504 112.032 44.52C109.152 47.688 106.668 50.46 104.58 52.836C101.292 56.556 98.808 59.268 97.128 60.972C95.208 62.868 93.912 63.816 93.24 63.816ZM101.124 21.12C101.196 21.12 101.544 20.832 102.168 20.256C102.6 19.872 103.212 19.308 104.004 18.564C104.796 17.796 105.588 17.016 106.38 16.224C107.748 14.88 108.972 13.608 110.052 12.408C111.156 11.184 111.852 10.344 112.14 9.888L112.248 9.636H112.212L111.924 9.744C109.884 10.8 107.052 13.584 103.428 18.096C101.844 20.04 101.076 21.048 101.124 21.12Z" fill="black"/>
<path d="M119.946 45.168C119.658 45.168 119.466 45.084 119.37 44.916C119.274 44.772 119.226 44.592 119.226 44.376C119.226 44.088 119.286 43.764 119.406 43.404C119.982 41.724 121.398 39.54 123.654 36.852L124.626 35.772C122.274 37.092 120.702 37.884 119.91 38.148L119.658 38.184C119.442 38.184 119.262 38.112 119.118 37.968C118.95 37.824 118.866 37.644 118.866 37.428L118.902 37.212C119.094 36.468 119.67 35.616 120.63 34.656C121.302 33.936 121.782 33.576 122.07 33.576C122.166 33.576 122.262 33.612 122.358 33.684C122.502 33.78 122.574 33.888 122.574 34.008C122.574 34.272 122.214 34.74 121.494 35.412C120.582 36.3 120.126 36.852 120.126 37.068C120.126 37.14 120.174 37.176 120.27 37.176C120.39 37.176 120.894 36.96 121.782 36.528C122.694 36.072 123.642 35.568 124.626 35.016C125.634 34.464 126.414 34.008 126.966 33.648C127.302 33.408 127.566 33.288 127.758 33.288C127.926 33.288 128.022 33.408 128.046 33.648C128.046 33.72 127.914 33.924 127.65 34.26C127.386 34.572 127.062 34.92 126.678 35.304C124.974 37.008 123.462 38.784 122.142 40.632C120.846 42.48 120.198 43.716 120.198 44.34C120.198 44.46 120.246 44.52 120.342 44.52C120.678 44.52 121.746 43.944 123.546 42.792C126.738 40.776 129.738 38.952 132.546 37.32C135.354 35.664 137.406 34.56 138.702 34.008C138.894 33.936 139.026 33.9 139.098 33.9C139.17 33.9 139.206 33.912 139.206 33.936C139.206 33.984 139.158 34.044 139.062 34.116C138.99 34.164 138.906 34.212 138.81 34.26C137.49 34.884 135.522 35.976 132.906 37.536C130.29 39.072 127.914 40.524 125.778 41.892C124.65 42.612 123.75 43.188 123.078 43.62C122.406 44.052 121.878 44.364 121.494 44.556C121.134 44.772 120.87 44.916 120.702 44.988C120.51 45.084 120.354 45.132 120.234 45.132L119.946 45.168Z" fill="black"/>
<path d="M141.351 32.208L143.619 30.876C144.843 30.108 146.271 29.16 147.903 28.032C149.559 26.88 150.939 25.908 152.043 25.116C152.331 24.876 152.607 24.66 152.871 24.468C153.135 24.276 153.351 24.12 153.519 24C153.591 23.952 153.639 23.916 153.663 23.892C155.007 22.884 156.183 21.84 157.191 20.76C158.199 19.656 158.703 18.852 158.703 18.348C158.703 18.276 158.691 18.228 158.667 18.204C158.643 18.156 158.607 18.132 158.559 18.132L158.271 18.168C157.455 18.36 156.051 19.188 154.059 20.652C152.067 22.092 149.955 23.796 147.723 25.764C147.219 26.196 146.535 26.832 145.671 27.672C144.831 28.488 144.027 29.292 143.259 30.084C142.491 30.852 141.987 31.392 141.747 31.704L141.351 32.208ZM131.847 48.192C131.559 48.192 131.331 48.12 131.163 47.976C130.899 47.76 130.767 47.4 130.767 46.896C130.767 46.512 130.851 46.068 131.019 45.564C131.811 43.188 133.695 40.08 136.671 36.24C139.623 32.4 142.887 28.848 146.463 25.584C148.647 23.64 150.915 21.876 153.267 20.292C155.619 18.684 157.299 17.76 158.307 17.52H158.451C158.931 17.52 159.195 17.748 159.243 18.204V18.384C158.979 19.944 156.699 22.284 152.403 25.404C150.723 26.652 148.995 27.888 147.219 29.112C145.443 30.312 144.243 31.092 143.619 31.452C143.499 31.5 143.391 31.56 143.295 31.632C143.199 31.68 143.127 31.728 143.079 31.776C142.863 31.92 142.575 32.088 142.215 32.28C141.879 32.472 141.555 32.652 141.243 32.82C140.955 32.988 140.775 33.084 140.703 33.108C140.487 33.204 139.959 33.756 139.119 34.764C138.279 35.772 137.379 36.912 136.419 38.184C133.251 42.576 131.667 45.492 131.667 46.932V47.472C131.715 47.472 131.763 47.46 131.811 47.436C132.099 47.436 132.411 47.388 132.747 47.292C133.059 47.196 133.527 46.98 134.151 46.644C134.751 46.332 135.651 45.804 136.851 45.06C138.027 44.34 139.623 43.332 141.639 42.036C141.903 41.868 142.203 41.676 142.539 41.46C142.875 41.244 143.163 41.064 143.403 40.92C143.595 40.8 143.787 40.68 143.979 40.56C144.243 40.44 144.435 40.332 144.555 40.236L151.827 35.772L153.627 34.728C154.563 34.152 155.139 33.864 155.355 33.864C155.427 33.864 155.463 33.888 155.463 33.936V34.008C155.439 34.056 155.259 34.2 154.923 34.44C154.587 34.656 154.191 34.908 153.735 35.196C153.303 35.46 152.931 35.676 152.619 35.844C152.331 35.988 151.551 36.456 150.279 37.248C149.007 38.016 147.639 38.856 146.175 39.768C144.711 40.68 143.547 41.412 142.683 41.964C142.563 42.036 142.395 42.144 142.179 42.288C141.891 42.48 141.591 42.684 141.279 42.9C140.703 43.26 140.043 43.68 139.299 44.16C137.667 45.168 136.311 46.032 135.231 46.752C133.743 47.712 132.615 48.192 131.847 48.192Z" fill="black"/>
<path d="M116.153 24.036C118.073 22.26 120.185 20.844 122.489 19.788C124.793 18.732 127.277 17.988 129.941 17.556C132.605 17.1 135.389 16.872 138.293 16.872C142.613 16.872 147.137 17.232 151.865 17.952C156.569 18.672 161.321 19.488 166.121 20.4L166.301 20.436C168.149 18.612 169.541 17.292 170.477 16.476C171.437 15.66 172.157 15.144 172.637 14.928C172.877 14.808 173.081 14.748 173.249 14.748C173.465 14.748 173.585 14.832 173.609 15C173.609 15.144 173.441 15.36 173.105 15.648C172.097 16.368 171.101 17.172 170.117 18.06C170.045 18.132 169.985 18.204 169.937 18.276C169.793 18.396 169.541 18.636 169.181 18.996C168.845 19.332 168.317 19.896 167.597 20.688C172.037 21.552 176.381 22.296 180.629 22.92C184.877 23.544 188.921 23.856 192.761 23.856C196.721 23.856 200.393 23.388 203.777 22.452C207.161 21.492 210.125 19.836 212.669 17.484C213.149 17.028 213.629 16.5 214.109 15.9C214.589 15.3 214.889 14.868 215.009 14.604V14.496C215.009 14.208 215.117 14.076 215.333 14.1C215.501 14.1 215.669 14.172 215.837 14.316C216.005 14.436 216.089 14.592 216.089 14.784C216.089 14.88 216.041 14.988 215.945 15.108C214.193 17.436 212.153 19.272 209.825 20.616C207.497 21.96 204.929 22.92 202.121 23.496C199.337 24.048 196.361 24.324 193.193 24.324C189.209 24.324 185.009 24 180.593 23.352C176.201 22.704 171.737 21.948 167.201 21.084C167.201 21.084 166.685 21.672 165.653 22.848C164.621 24.024 163.373 25.476 161.909 27.204C160.445 28.932 159.005 30.66 157.589 32.388C156.197 34.092 155.081 35.544 154.241 36.744C149.993 42.792 147.845 46.788 147.797 48.732L147.761 48.912C147.761 49.56 148.001 49.872 148.481 49.848C148.913 49.848 149.609 49.608 150.569 49.128C151.505 48.648 153.029 47.772 155.141 46.5C155.909 46.02 156.881 45.432 158.057 44.736C159.257 44.04 160.421 43.368 161.549 42.72C161.693 42.624 161.849 42.528 162.017 42.432C164.777 40.776 167.633 38.964 170.585 36.996C172.025 36.036 173.525 35.052 175.085 34.044C175.301 33.9 175.457 33.828 175.553 33.828C175.625 33.828 175.661 33.864 175.661 33.936C175.661 34.032 175.457 34.224 175.049 34.512C173.321 35.664 171.185 37.068 168.641 38.724C166.121 40.38 163.973 41.748 162.197 42.828C161.717 43.14 161.261 43.428 160.829 43.692C160.277 44.028 159.785 44.34 159.353 44.628C153.497 48.276 150.113 50.232 149.201 50.496C148.793 50.616 148.433 50.676 148.121 50.676C148.001 50.676 147.893 50.664 147.797 50.64C147.149 50.424 146.825 49.812 146.825 48.804V48.66C146.873 47.508 147.353 46.056 148.265 44.304C149.177 42.576 150.593 40.236 152.513 37.284C153.377 35.94 154.541 34.356 156.005 32.532C157.469 30.684 158.957 28.872 160.469 27.096C161.981 25.32 163.265 23.844 164.321 22.668C165.401 21.468 165.941 20.868 165.941 20.868C161.285 19.956 156.689 19.164 152.153 18.492C147.593 17.796 143.225 17.448 139.049 17.448C136.649 17.448 134.333 17.604 132.101 17.916C129.869 18.204 127.745 18.696 125.729 19.392C124.025 19.944 122.393 20.64 120.833 21.48C119.273 22.32 117.905 23.436 116.729 24.828C116.201 25.38 115.793 25.656 115.505 25.656C115.337 25.656 115.241 25.572 115.217 25.404C115.217 25.14 115.529 24.684 116.153 24.036Z" fill="black"/>
<path d="M173.525 45.168C173.237 45.168 173.045 45.084 172.949 44.916C172.853 44.772 172.805 44.592 172.805 44.376C172.805 44.088 172.864 43.764 172.984 43.404C173.56 41.724 174.976 39.54 177.232 36.852L178.204 35.772C175.852 37.092 174.28 37.884 173.488 38.148L173.236 38.184C173.02 38.184 172.841 38.112 172.697 37.968C172.529 37.824 172.445 37.644 172.445 37.428L172.48 37.212C172.672 36.468 173.248 35.616 174.208 34.656C174.88 33.936 175.36 33.576 175.648 33.576C175.744 33.576 175.84 33.612 175.936 33.684C176.08 33.78 176.152 33.888 176.152 34.008C176.152 34.272 175.792 34.74 175.072 35.412C174.16 36.3 173.704 36.852 173.704 37.068C173.704 37.14 173.752 37.176 173.848 37.176C173.968 37.176 174.473 36.96 175.361 36.528C176.273 36.072 177.22 35.568 178.204 35.016C179.212 34.464 179.992 34.008 180.544 33.648C180.88 33.408 181.145 33.288 181.337 33.288C181.505 33.288 181.6 33.408 181.624 33.648C181.624 33.72 181.493 33.924 181.229 34.26C180.965 34.572 180.641 34.92 180.257 35.304C178.553 37.008 177.041 38.784 175.721 40.632C174.425 42.48 173.777 43.716 173.777 44.34C173.777 44.46 173.825 44.52 173.921 44.52C174.257 44.52 175.324 43.944 177.124 42.792C180.316 40.776 183.316 38.952 186.124 37.32C188.932 35.664 190.985 34.56 192.281 34.008C192.473 33.936 192.604 33.9 192.676 33.9C192.748 33.9 192.785 33.912 192.785 33.936C192.785 33.984 192.737 34.044 192.641 34.116C192.569 34.164 192.485 34.212 192.389 34.26C191.069 34.884 189.1 35.976 186.484 37.536C183.868 39.072 181.493 40.524 179.357 41.892C178.229 42.612 177.328 43.188 176.656 43.62C175.984 44.052 175.456 44.364 175.072 44.556C174.712 44.772 174.449 44.916 174.281 44.988C174.089 45.084 173.933 45.132 173.812 45.132L173.525 45.168Z" fill="black"/>
<path d="M197.665 42.792C197.473 42.792 197.317 42.708 197.197 42.54C197.053 42.42 196.981 42.24 196.981 42C196.981 41.568 197.269 40.776 197.845 39.624C198.301 38.664 198.793 37.74 199.321 36.852C199.873 35.94 200.725 34.632 201.877 32.928C202.669 31.752 203.209 30.924 203.497 30.444C203.809 29.94 203.965 29.628 203.965 29.508L203.929 29.4L203.857 29.364C203.713 29.364 203.437 29.46 203.029 29.652C202.645 29.82 202.261 30.012 201.877 30.228C198.613 32.196 195.445 34.644 192.373 37.572C191.869 38.052 191.509 38.376 191.293 38.544C191.053 38.712 190.873 38.796 190.753 38.796H190.681C190.561 38.772 190.465 38.736 190.393 38.688C190.297 38.64 190.213 38.544 190.141 38.4C190.093 38.28 190.069 38.16 190.069 38.04C190.069 37.968 190.081 37.884 190.105 37.788C190.129 37.668 190.177 37.512 190.249 37.32C190.489 36.768 190.837 36.096 191.293 35.304C191.749 34.488 192.121 33.864 192.409 33.432C192.889 32.808 193.297 32.496 193.633 32.496C193.849 32.496 194.017 32.64 194.137 32.928L194.209 33.108C194.209 33.204 194.173 33.312 194.101 33.432C194.053 33.528 193.957 33.684 193.813 33.9C193.549 34.26 193.273 34.656 192.985 35.088C192.697 35.52 192.445 35.904 192.229 36.24C192.037 36.576 191.941 36.768 191.941 36.816C191.965 36.816 192.097 36.72 192.337 36.528C192.601 36.336 192.901 36.096 193.237 35.808C195.421 34.008 197.725 32.304 200.149 30.696C202.237 29.28 203.557 28.572 204.109 28.572C204.661 28.572 204.961 28.908 205.009 29.58C205.009 29.844 204.925 30.144 204.757 30.48C204.709 30.648 204.433 31.14 203.929 31.956C203.449 32.772 202.873 33.732 202.201 34.836C199.825 38.772 198.637 40.848 198.637 41.064V41.1C198.685 41.1 198.841 41.016 199.105 40.848C199.369 40.656 199.681 40.428 200.041 40.164C201.865 38.748 203.521 37.596 205.009 36.708C206.521 35.82 207.529 35.376 208.033 35.376C208.489 35.376 208.777 35.844 208.897 36.78C208.945 37.98 209.317 38.58 210.013 38.58C210.301 38.58 210.649 38.496 211.057 38.328C211.297 38.232 211.873 37.968 212.785 37.536C213.697 37.08 214.729 36.576 215.881 36.024C216.793 35.52 217.621 35.088 218.365 34.728C219.133 34.368 219.673 34.128 219.985 34.008L220.237 33.936C220.309 33.936 220.357 33.96 220.381 34.008C220.381 34.056 220.285 34.128 220.093 34.224C219.541 34.584 217.225 35.832 213.145 37.968C212.185 38.448 211.465 38.784 210.985 38.976C210.529 39.168 210.145 39.264 209.833 39.264L209.365 39.192C208.981 39.096 208.681 38.868 208.465 38.508C208.273 38.124 208.141 37.536 208.069 36.744C208.045 36.528 208.021 36.372 207.997 36.276C207.973 36.156 207.937 36.084 207.889 36.06C207.865 36.012 207.829 35.988 207.781 35.988C207.541 36.012 207.133 36.168 206.557 36.456C206.005 36.744 205.453 37.056 204.901 37.392C204.037 37.968 203.365 38.436 202.885 38.796C202.429 39.132 201.901 39.576 201.301 40.128C200.173 41.112 199.345 41.808 198.817 42.216C198.313 42.6 197.929 42.792 197.665 42.792Z" fill="black"/>
<path d="M217.992 39.912C217.608 39.912 217.284 39.828 217.02 39.66C216.756 39.468 216.624 39.132 216.624 38.652L216.66 38.184C216.876 37.08 217.764 35.736 219.324 34.152C220.188 33.312 220.812 32.892 221.196 32.892L221.34 32.928C221.604 33.048 221.736 33.192 221.736 33.36C221.736 33.552 221.604 33.732 221.34 33.9C221.004 34.068 220.548 34.452 219.972 35.052C219.42 35.628 218.904 36.24 218.424 36.888C217.944 37.512 217.644 37.992 217.524 38.328L217.488 38.724C217.488 39.228 217.764 39.456 218.316 39.408C218.676 39.408 219.072 39.348 219.504 39.228C219.936 39.084 220.308 38.952 220.62 38.832C220.764 38.784 220.872 38.748 220.944 38.724C223.656 37.836 226.5 36.78 229.476 35.556C231.204 34.86 232.644 34.308 233.796 33.9L234.084 33.828C234.156 33.828 234.192 33.852 234.192 33.9C234.192 33.948 234.096 34.02 233.904 34.116C233.544 34.26 233.064 34.452 232.464 34.692C231 35.316 229.2 36.06 227.064 36.924C224.952 37.764 222.948 38.508 221.052 39.156C220.956 39.18 220.848 39.216 220.728 39.264C220.368 39.408 219.936 39.552 219.432 39.696C218.928 39.84 218.448 39.912 217.992 39.912ZM223.464 31.416C223.44 31.416 223.392 31.404 223.32 31.38C223.272 31.356 223.236 31.32 223.212 31.272C223.164 31.2 223.14 31.128 223.14 31.056C223.14 30.96 223.176 30.876 223.248 30.804C223.32 30.732 223.392 30.696 223.464 30.696L223.608 30.732C223.752 30.828 223.824 30.948 223.824 31.092C223.824 31.164 223.788 31.236 223.716 31.308C223.668 31.38 223.584 31.416 223.464 31.416Z" fill="black"/>
<path d="M257.293 56.868C255.853 56.868 254.473 56.712 253.153 56.4C251.833 56.112 250.645 55.62 249.589 54.924C248.365 54.084 247.501 53.088 246.997 51.936C246.493 50.784 246.241 49.548 246.241 48.228C246.241 46.668 246.493 45.096 246.997 43.512C247.501 41.904 248.077 40.428 248.725 39.084C248.725 39.084 248.761 39.012 248.833 38.868C248.953 38.604 249.121 38.232 249.337 37.752C249.577 37.248 249.793 36.744 249.985 36.24C250.177 35.736 250.273 35.364 250.273 35.124C250.273 34.98 250.225 34.908 250.129 34.908C249.913 34.956 249.517 35.124 248.941 35.412C248.389 35.676 247.837 35.988 247.285 36.348C246.397 36.924 245.725 37.38 245.269 37.716C244.813 38.052 244.273 38.496 243.649 39.048C242.521 40.056 241.693 40.764 241.165 41.172C240.637 41.556 240.253 41.748 240.013 41.748C239.845 41.748 239.701 41.664 239.581 41.496C239.437 41.352 239.365 41.16 239.365 40.92C239.365 40.464 239.653 39.672 240.229 38.544C240.661 37.608 241.153 36.696 241.705 35.808C242.257 34.896 243.109 33.588 244.261 31.884C245.029 30.732 245.569 29.904 245.881 29.4C246.193 28.896 246.349 28.584 246.349 28.464C246.349 28.416 246.337 28.38 246.313 28.356H246.241C246.097 28.356 245.821 28.44 245.413 28.608C245.029 28.752 244.633 28.944 244.225 29.184C241.009 31.104 237.853 33.564 234.757 36.564C234.373 36.9 234.073 37.164 233.857 37.356C233.665 37.524 233.509 37.644 233.389 37.716C233.269 37.764 233.161 37.788 233.065 37.788C232.825 37.74 232.657 37.596 232.561 37.356C232.489 37.236 232.453 37.116 232.453 36.996C232.453 36.828 232.525 36.588 232.669 36.276C232.885 35.724 233.221 35.04 233.677 34.224C234.109 33.408 234.481 32.796 234.793 32.388C235.249 31.74 235.645 31.416 235.981 31.416C236.221 31.416 236.413 31.56 236.557 31.848L236.593 32.064C236.593 32.16 236.557 32.268 236.485 32.388C236.437 32.484 236.329 32.64 236.161 32.856C235.921 33.216 235.657 33.612 235.369 34.044C235.081 34.476 234.829 34.86 234.613 35.196C234.421 35.508 234.325 35.7 234.325 35.772C234.349 35.772 234.541 35.628 234.901 35.34C235.117 35.172 235.369 34.98 235.657 34.764C237.817 32.964 240.097 31.26 242.497 29.652C244.633 28.26 245.977 27.564 246.529 27.564C247.057 27.564 247.333 27.9 247.357 28.572C247.357 28.836 247.297 29.124 247.177 29.436C247.057 29.628 246.721 30.192 246.169 31.128C245.713 31.896 245.197 32.784 244.621 33.792C243.325 35.928 242.401 37.476 241.849 38.436C241.297 39.372 241.021 39.9 241.021 40.02L241.057 40.056C241.081 40.056 241.225 39.972 241.489 39.804C241.753 39.612 242.065 39.372 242.425 39.084C244.273 37.692 245.929 36.552 247.393 35.664C248.881 34.776 249.877 34.332 250.381 34.332C250.669 34.332 250.861 34.44 250.957 34.656C251.077 34.848 251.137 35.076 251.137 35.34C251.137 35.628 251.101 35.892 251.029 36.132C250.861 36.636 250.657 37.164 250.417 37.716C250.201 38.268 250.009 38.736 249.841 39.12C249.793 39.24 249.757 39.336 249.733 39.408C249.109 40.704 248.521 42.156 247.969 43.764C247.441 45.348 247.177 46.92 247.177 48.48C247.177 49.584 247.369 50.628 247.753 51.612C248.161 52.62 248.845 53.508 249.805 54.276C250.789 55.02 251.941 55.548 253.261 55.86C254.605 56.196 256.021 56.364 257.509 56.364C259.717 56.364 261.925 56.1 264.133 55.572C266.341 55.068 268.237 54.492 269.821 53.844C270.253 53.628 270.685 53.424 271.117 53.232C273.109 52.368 274.885 51.48 276.445 50.568C280.885 47.808 284.797 44.496 288.181 40.632C291.493 36.96 294.373 32.976 296.821 28.68C298.669 25.368 300.085 22.212 301.069 19.212C302.053 16.188 302.545 13.524 302.545 11.22C302.545 9.78 302.341 8.52 301.933 7.44L301.645 6.792C301.429 6.792 301.321 6.72 301.321 6.576C301.321 6.456 301.381 6.336 301.501 6.216C301.645 6.072 301.789 6 301.933 6C302.101 6 302.269 6.096 302.437 6.288L302.761 7.008C303.169 8.064 303.373 9.3 303.373 10.716C303.373 15.492 301.345 21.564 297.289 28.932C294.769 33.372 291.697 37.596 288.073 41.604C284.449 45.588 280.453 48.852 276.085 51.396C274.813 52.092 273.505 52.728 272.161 53.304L270.037 54.204C268.333 54.9 266.341 55.512 264.061 56.04C261.805 56.592 259.549 56.868 257.293 56.868Z" fill="black"/>
<path d="M135.088 57.42C134.981 57.42 134.928 57.356 134.928 57.228C134.928 57.164 134.981 57.0573 135.088 56.908C135.195 56.78 135.333 56.6413 135.504 56.492L136.56 55.436C136.837 55.0947 137.061 54.924 137.232 54.924C137.339 54.924 137.424 54.9987 137.488 55.148L137.552 55.34C137.552 55.6173 137.136 56.0653 136.304 56.684C135.685 57.1747 135.28 57.42 135.088 57.42Z" fill="black"/>
</svg>
