<svg width="153" height="62" viewBox="0 0 153 62" fill="none" xmlns="http://www.w3.org/2000/svg">
<path d="M66.8391 22.9151C66.8991 22.9151 67.1791 22.6451 67.6791 22.1051C68.1991 21.5651 68.7391 20.9551 69.2991 20.2751C70.0991 19.2351 70.6691 18.3551 71.0091 17.6351C71.3691 16.9151 71.5491 16.4551 71.5491 16.2551C71.5491 16.1551 71.5191 16.1151 71.4591 16.1351C70.7391 16.1551 69.5491 17.7051 67.8891 20.7851C67.5891 21.3051 67.3391 21.7651 67.1391 22.1651C66.9591 22.5651 66.8591 22.8151 66.8391 22.9151ZM12.7191 61.2251C11.0591 61.2251 9.4691 61.0051 7.9491 60.5651C6.4291 60.1251 5.0591 59.3851 3.8391 58.3451C2.6391 57.3251 1.6791 55.9351 0.959102 54.1751C0.319102 52.6351 -0.000898425 50.9951 -0.000898425 49.2551C-0.000898425 47.3551 0.399102 45.3651 1.1991 43.2851C1.9991 41.2251 3.1991 39.2751 4.7991 37.4351C6.3991 35.5751 8.3991 33.9951 10.7991 32.6951L11.0091 32.6351C11.1691 32.6351 11.2891 32.7151 11.3691 32.8751C11.4491 33.0151 11.4891 33.1651 11.4891 33.3251C11.4891 33.4251 11.4691 33.5151 11.4291 33.5951C11.3891 33.6551 11.3391 33.6851 11.2791 33.6851H11.2491C7.8691 35.4251 5.3191 37.5851 3.5991 40.1651C2.6591 41.6251 1.9591 43.1051 1.4991 44.6051C1.0391 46.1251 0.809102 47.6051 0.809102 49.0451C0.809102 50.7651 1.1291 52.3851 1.7691 53.9051C2.4891 55.5851 3.4091 56.9151 4.5291 57.8951C5.6491 58.8951 6.9191 59.6051 8.3391 60.0251C9.7591 60.4451 11.2391 60.6551 12.7791 60.6551C14.4391 60.6551 16.1191 60.4651 17.8191 60.0851C19.5391 59.7051 21.1691 59.2451 22.7091 58.7051C27.9291 56.6851 32.2391 54.5051 35.6391 52.1651C40.2391 49.1251 45.0391 45.3451 50.0391 40.8251C55.0391 36.3051 60.0091 31.0651 64.9491 25.1051C65.1091 24.8251 65.2291 24.6251 65.3091 24.5051C65.3891 24.3651 65.4391 24.2551 65.4591 24.1751C65.4991 24.0951 65.5391 24.0151 65.5791 23.9351C65.6191 23.8551 65.6691 23.7451 65.7291 23.6051C65.7891 23.4451 65.8891 23.2351 66.0291 22.9751C66.6291 21.7151 67.1191 20.7451 67.4991 20.0651C67.8991 19.3651 68.3191 18.7051 68.7591 18.0851C69.9391 16.4451 70.8391 15.6251 71.4591 15.6251C71.7591 15.6251 71.9391 15.8551 71.9991 16.3151C71.9991 16.9151 71.6091 17.8551 70.8291 19.1351C70.0691 20.3951 68.9691 21.8051 67.5291 23.3651C67.1491 23.7451 66.8191 24.1051 66.5391 24.4451C66.2791 24.7651 66.1191 24.9651 66.0591 25.0451C65.0591 26.8051 64.0491 29.4351 63.0291 32.9351C62.0091 36.4151 61.1391 39.7351 60.4191 42.8951C59.7191 46.0751 59.3691 47.8251 59.3691 48.1451L59.3991 48.1751C59.3991 48.1551 59.4191 48.1151 59.4591 48.0551C59.6191 47.7951 59.8791 47.3551 60.2391 46.7351C60.5991 46.1351 60.9891 45.5251 61.4091 44.9051C66.3491 37.5451 70.8091 31.3251 74.7891 26.2451C74.9691 26.0251 75.1691 25.7851 75.3891 25.5251C75.8691 24.9251 76.4191 24.2651 77.0391 23.5451C78.5991 21.5251 80.1291 19.6751 81.6291 17.9951C83.9891 15.1951 86.5191 12.5551 89.2191 10.0751C91.9391 7.57512 94.9291 5.46512 98.1891 3.74511C100.309 2.62511 102.429 1.82512 104.549 1.34512C106.669 0.845115 108.839 0.595114 111.059 0.595114C111.539 0.575115 111.779 0.695116 111.779 0.955116C111.779 1.07511 111.729 1.18511 111.629 1.28511C111.549 1.38511 111.469 1.43511 111.389 1.43511C111.329 1.43511 111.289 1.41511 111.269 1.37511H110.939C108.759 1.37511 106.649 1.57511 104.609 1.97511C102.589 2.35511 100.539 3.08512 98.4591 4.16512C95.1391 5.94512 92.1791 8.07512 89.5791 10.5551C86.9791 13.0151 84.4691 15.6451 82.0491 18.4451C79.1491 21.7451 76.5491 24.8651 74.2491 27.8051C72.5491 30.0251 70.3791 33.0651 67.7391 36.9251C65.1191 40.7851 62.8991 44.1551 61.0791 47.0351C60.5591 47.8551 60.1391 48.4851 59.8191 48.9251C59.4991 49.3651 59.2091 49.5851 58.9491 49.5851C58.5691 49.5851 58.3591 49.1751 58.3191 48.3551L58.3491 47.9951C58.7491 45.0351 59.4991 41.5751 60.5991 37.6151C61.7191 33.6551 62.8091 30.2151 63.8691 27.2951C59.1291 32.8951 54.3991 37.7951 49.6791 41.9951C44.9591 46.2151 40.4091 49.7451 36.0291 52.5851C34.7491 53.4051 33.2391 54.3051 31.4991 55.2851C29.7591 56.2851 27.8591 57.2251 25.7991 58.1051C23.7391 59.0051 21.5991 59.7451 19.3791 60.3251C17.1591 60.9251 14.9391 61.2251 12.7191 61.2251ZM76.9634 34.6151L77.0834 34.5551C77.1034 34.5351 77.1134 34.5051 77.1134 34.4651C77.1334 34.4251 77.1434 34.3851 77.1434 34.3451V34.2551C77.1034 34.1751 77.0634 34.1351 77.0234 34.1351L76.9334 34.1651C76.8934 34.2051 76.8734 34.2651 76.8734 34.3451L76.9034 34.4951C76.9234 34.5751 76.9434 34.6151 76.9634 34.6151ZM74.0234 37.2551C74.1234 37.2551 74.4834 37.0151 75.1034 36.5351L76.1534 35.6351C76.1534 35.6351 76.1534 35.6251 76.1534 35.6051C76.2734 35.4851 76.3634 35.3951 76.4234 35.3351C76.4634 35.2751 76.4834 35.2151 76.4834 35.1551C76.4834 35.0951 76.4534 35.0351 76.3934 34.9751C76.3134 34.8151 76.2434 34.7351 76.1834 34.7351C76.1034 34.7351 75.9534 34.8551 75.7334 35.0951C75.4934 35.3151 75.2434 35.5751 74.9834 35.8751C74.7234 36.1751 74.4934 36.4551 74.2934 36.7151C74.0934 36.9751 73.9934 37.1451 73.9934 37.2251L74.0234 37.2551ZM73.8134 38.0951H73.7234C73.6634 38.0951 73.6034 38.0851 73.5434 38.0651C73.4634 38.0451 73.4034 38.0151 73.3634 37.9751C73.2034 37.8551 73.1234 37.6951 73.1234 37.4951C73.1234 36.6951 74.0334 35.4851 75.8534 33.8651C76.2934 33.4851 76.6234 33.2151 76.8434 33.0551C77.0834 32.8951 77.2734 32.8151 77.4134 32.8151C77.5734 32.8151 77.7334 32.9051 77.8934 33.0851C78.0334 33.1851 78.1034 33.3051 78.1034 33.4451C78.1034 33.6251 77.9934 33.9251 77.7734 34.3451C77.6934 34.4851 77.6334 34.6151 77.5934 34.7351C77.5534 34.8351 77.5334 34.8951 77.5334 34.9151V34.9451C77.5734 35.0051 77.6734 35.0651 77.8334 35.1251C78.0134 35.1651 78.2234 35.2051 78.4634 35.2451C78.7034 35.2651 78.9234 35.2751 79.1234 35.2751C79.4034 35.2751 79.7634 35.2451 80.2034 35.1851C80.6634 35.1251 81.3834 35.0051 82.3634 34.8251C83.3434 34.6451 84.7634 34.3751 86.6234 34.0151L89.5334 33.3851C89.7334 33.3451 89.8734 33.3251 89.9534 33.3251C90.0734 33.3251 90.1234 33.3451 90.1034 33.3851C90.1034 33.4251 90.0534 33.4751 89.9534 33.5351C89.8734 33.5951 89.7934 33.6351 89.7134 33.6551C89.2334 33.7751 88.6434 33.9151 87.9434 34.0751C87.0634 34.2751 86.1034 34.5051 85.0634 34.7651C84.7634 34.8251 84.4734 34.8751 84.1934 34.9151C82.6134 35.1951 81.4134 35.4051 80.5934 35.5451C79.7734 35.6651 79.1234 35.7251 78.6434 35.7251C78.2434 35.7251 77.9034 35.6851 77.6234 35.6051L77.0834 35.4551C76.4034 36.1151 75.7734 36.6951 75.1934 37.1951C74.6134 37.6751 74.1534 37.9751 73.8134 38.0951ZM88.8591 37.7951H88.7391C88.4191 37.7951 88.1491 37.7151 87.9291 37.5551C87.6891 37.3951 87.5691 37.1051 87.5691 36.6851L87.5991 36.3551C87.7791 35.4151 88.5291 34.2851 89.8491 32.9651C90.5691 32.2651 91.0791 31.9151 91.3791 31.9151L91.5291 31.9451C91.7491 32.0451 91.8591 32.1651 91.8591 32.3051C91.8591 32.4651 91.7391 32.6151 91.4991 32.7551C91.2191 32.9151 90.8391 33.2351 90.3591 33.7151C89.8991 34.1951 89.4691 34.7051 89.0691 35.2451C88.6491 35.7651 88.3991 36.1751 88.3191 36.4751L88.2591 36.8051C88.2591 36.9851 88.3191 37.1251 88.4391 37.2251C88.5591 37.3051 88.7191 37.3451 88.9191 37.3451H89.2191C90.3791 37.3451 92.0291 37.1251 94.1691 36.6851C96.3291 36.2251 98.1391 35.8251 99.5991 35.4851C99.8591 35.4051 100.099 35.3451 100.319 35.3051C101.419 35.0651 102.509 34.8151 103.589 34.5551C106.129 33.9751 108.429 33.4751 110.489 33.0551C112.729 32.5951 115.299 32.0351 118.199 31.3751C122.559 30.3751 127.089 29.4351 131.789 28.5551C136.489 27.6551 140.709 27.1351 144.449 26.9951H144.839C145.779 26.9951 146.999 27.0551 148.499 27.1751C150.019 27.2951 151.119 27.5051 151.799 27.8051C152.219 28.0651 152.429 28.2851 152.429 28.4651C152.429 28.5651 152.379 28.6451 152.279 28.7051L152.069 28.7651C151.889 28.7651 151.719 28.6751 151.559 28.4951C151.419 28.3951 151.279 28.3151 151.139 28.2551C150.999 28.1951 150.809 28.1451 150.569 28.1051C150.469 28.0651 150.369 28.0351 150.269 28.0151C149.489 27.8551 148.589 27.7351 147.569 27.6551C146.849 27.6151 146.089 27.5951 145.289 27.5951C142.629 27.5951 139.699 27.8251 136.499 28.2851C133.299 28.7451 130.049 29.3151 126.749 29.9951C123.449 30.6751 120.279 31.3551 117.239 32.0351C114.799 32.5751 112.549 33.0651 110.489 33.5051L100.439 35.6351C99.4591 35.8351 98.3991 36.0651 97.2591 36.3251C94.2591 37.0451 91.4591 37.5351 88.8591 37.7951ZM93.2991 30.7151C93.2391 30.7151 93.1891 30.7051 93.1491 30.6851C93.1091 30.6651 93.0791 30.6351 93.0591 30.5951C93.0191 30.5351 92.9991 30.4751 92.9991 30.4151C92.9991 30.3351 93.0191 30.2651 93.0591 30.2051C93.1191 30.1251 93.1891 30.0851 93.2691 30.0851L93.4491 30.1451C93.5291 30.2251 93.5691 30.3151 93.5691 30.4151C93.5691 30.4951 93.5391 30.5651 93.4791 30.6251C93.4391 30.6851 93.3791 30.7151 93.2991 30.7151Z" fill="black"/>
<path d="M66.8391 22.9151L66.594 22.8661L66.5342 23.1651H66.8391V22.9151ZM67.6791 22.1051L67.499 21.9317L67.4957 21.9353L67.6791 22.1051ZM69.2991 20.2751L69.4922 20.4341L69.4973 20.4275L69.2991 20.2751ZM71.0091 17.6351L70.7854 17.5233L70.783 17.5284L71.0091 17.6351ZM71.4591 16.1351L71.466 16.385L71.503 16.384L71.5382 16.3723L71.4591 16.1351ZM67.8891 20.7851L68.1057 20.9101L68.1092 20.9037L67.8891 20.7851ZM67.1391 22.1651L66.9153 22.0532L66.9111 22.0625L67.1391 22.1651ZM3.8391 58.3451L4.00129 58.1549L4.00101 58.1546L3.8391 58.3451ZM0.959102 54.1751L1.19049 54.0805L1.18996 54.0792L0.959102 54.1751ZM1.1991 43.2851L0.966057 43.1946L0.965765 43.1954L1.1991 43.2851ZM4.7991 37.4351L4.98776 37.5992L4.98863 37.5982L4.7991 37.4351ZM10.7991 32.6951L10.7304 32.4547L10.7041 32.4623L10.68 32.4753L10.7991 32.6951ZM11.0091 32.6351V32.3851H10.9741L10.9404 32.3947L11.0091 32.6351ZM11.3691 32.8751L11.1451 32.9871L11.152 32.9992L11.3691 32.8751ZM11.4291 33.5951L11.6371 33.7338L11.6457 33.7208L11.6527 33.7069L11.4291 33.5951ZM11.2491 33.6851V33.4351H11.1885L11.1347 33.4628L11.2491 33.6851ZM3.5991 40.1651L3.39106 40.0264L3.3889 40.0298L3.5991 40.1651ZM1.4991 44.6051L1.26009 44.5318L1.25982 44.5327L1.4991 44.6051ZM1.7691 53.9051L1.53869 54.0021L1.53932 54.0036L1.7691 53.9051ZM4.5291 57.8951L4.69561 57.7086L4.69373 57.707L4.5291 57.8951ZM8.3391 60.0251L8.41001 59.7854L8.41001 59.7854L8.3391 60.0251ZM17.8191 60.0851L17.7652 59.841L17.7646 59.8411L17.8191 60.0851ZM22.7091 58.7051L22.7919 58.9412L22.7993 58.9383L22.7091 58.7051ZM35.6391 52.1651L35.5012 51.9565L35.4974 51.9592L35.6391 52.1651ZM50.0391 40.8251L50.2068 41.0106L50.0391 40.8251ZM64.9491 25.1051L65.1416 25.2647L65.1554 25.248L65.1662 25.2292L64.9491 25.1051ZM65.3091 24.5051L65.5171 24.6438L65.5219 24.6366L65.5262 24.6292L65.3091 24.5051ZM65.4591 24.1751L65.2355 24.0633L65.2232 24.0879L65.2166 24.1145L65.4591 24.1751ZM65.5791 23.9351L65.3555 23.8233L65.3555 23.8233L65.5791 23.9351ZM65.7291 23.6051L65.9591 23.7037L65.9632 23.6929L65.7291 23.6051ZM66.0291 22.9751L66.2495 23.0938L66.2548 23.0826L66.0291 22.9751ZM67.4991 20.0651L67.282 19.9411L67.2809 19.9432L67.4991 20.0651ZM68.7591 18.0851L68.5562 17.9391L68.5552 17.9404L68.7591 18.0851ZM71.9991 16.3151H72.2491V16.2989L72.247 16.2828L71.9991 16.3151ZM70.8291 19.1351L70.6156 19.005L70.615 19.006L70.8291 19.1351ZM67.5291 23.3651L67.706 23.542L67.7128 23.5347L67.5291 23.3651ZM66.5391 24.4451L66.3461 24.2862L66.3451 24.2875L66.5391 24.4451ZM66.0591 25.0451L65.8591 24.8951L65.8496 24.9078L65.8417 24.9216L66.0591 25.0451ZM63.0291 32.9351L63.269 33.0054L63.2691 33.0051L63.0291 32.9351ZM60.4191 42.8951L60.1753 42.8396L60.175 42.8414L60.4191 42.8951ZM59.3691 48.1451H59.1191V48.2487L59.1923 48.3219L59.3691 48.1451ZM59.3991 48.1751L59.2223 48.3519L59.6491 48.7787V48.1751H59.3991ZM59.4591 48.0551L59.6673 48.1939L59.672 48.1861L59.4591 48.0551ZM60.2391 46.7351L60.0247 46.6065L60.0229 46.6096L60.2391 46.7351ZM61.4091 44.9051L61.6161 45.0453L61.6167 45.0444L61.4091 44.9051ZM74.7891 26.2451L74.5956 26.0868L74.5923 26.0909L74.7891 26.2451ZM75.3891 25.5251L75.58 25.6867L75.5843 25.6813L75.3891 25.5251ZM77.0391 23.5451L77.2288 23.7085L77.237 23.6979L77.0391 23.5451ZM81.6291 17.9951L81.8157 18.1617L81.8203 18.1562L81.6291 17.9951ZM89.2191 10.0751L89.3882 10.2592L89.3883 10.2592L89.2191 10.0751ZM98.1891 3.74511L98.3058 3.96623L98.3059 3.96616L98.1891 3.74511ZM104.549 1.34512L104.604 1.58895L104.606 1.58844L104.549 1.34512ZM111.059 0.595114V0.845331L111.07 0.844897L111.059 0.595114ZM111.629 1.28511L111.452 1.10834L111.443 1.11813L111.434 1.12894L111.629 1.28511ZM111.269 1.37511L111.493 1.26332L111.424 1.12511H111.269V1.37511ZM104.609 1.97511L104.655 2.22081L104.657 2.22044L104.609 1.97511ZM98.4591 4.16512L98.3439 3.94322L98.341 3.94479L98.4591 4.16512ZM89.5791 10.5551L89.7509 10.7367L89.7517 10.736L89.5791 10.5551ZM82.0491 18.4451L82.2369 18.6102L82.2382 18.6086L82.0491 18.4451ZM74.2491 27.8051L74.0522 27.6511L74.0506 27.6531L74.2491 27.8051ZM67.7391 36.9251L67.5327 36.784L67.5323 36.7847L67.7391 36.9251ZM61.0791 47.0351L61.2902 47.169L61.2904 47.1687L61.0791 47.0351ZM59.8191 48.9251L59.6169 48.7781L59.6169 48.7781L59.8191 48.9251ZM58.3191 48.3551L58.07 48.3344L58.0686 48.3508L58.0694 48.3673L58.3191 48.3551ZM58.3491 47.9951L58.101 47.9616L58.1 47.9744L58.3491 47.9951ZM60.5991 37.6151L60.3585 37.5471L60.3582 37.5482L60.5991 37.6151ZM63.8691 27.2951L64.1041 27.3804L63.6783 27.1336L63.8691 27.2951ZM49.6791 41.9951L49.5129 41.8084L49.5125 41.8087L49.6791 41.9951ZM36.0291 52.5851L36.164 52.7956L36.1651 52.7949L36.0291 52.5851ZM31.4991 55.2851L31.3764 55.0673L31.3745 55.0684L31.4991 55.2851ZM25.7991 58.1051L25.7009 57.8752L25.699 57.876L25.7991 58.1051ZM19.3791 60.3251L19.3159 60.0832L19.3139 60.0838L19.3791 60.3251ZM66.8391 23.1651C66.9198 23.1651 66.9821 23.1277 66.9985 23.1181C67.0272 23.1012 67.0553 23.0805 67.0808 23.0603C67.1327 23.0191 67.1956 22.962 67.2676 22.8926C67.4128 22.7526 67.6116 22.546 67.8625 22.275L67.4957 21.9353C67.2466 22.2043 67.0554 22.4026 66.9206 22.5327C66.8526 22.5982 66.8031 22.6424 66.7699 22.6687C66.762 22.675 66.7558 22.6796 66.7513 22.6828C66.7466 22.6862 66.7447 22.6872 66.7454 22.6869C66.7454 22.6868 66.7517 22.683 66.763 22.6787C66.7719 22.6753 66.7998 22.6651 66.8391 22.6651V23.1651ZM67.8592 22.2785C68.3844 21.7331 68.9287 21.1182 69.4921 20.434L69.1061 20.1162C68.5495 20.792 68.0138 21.3971 67.499 21.9317L67.8592 22.2785ZM69.4973 20.4275C70.3021 19.3812 70.8842 18.4851 71.2352 17.7419L70.783 17.5284C70.454 18.2252 69.8961 19.089 69.1009 20.1227L69.4973 20.4275ZM71.2327 17.7469C71.4143 17.3838 71.553 17.0812 71.6469 16.8412C71.7363 16.6127 71.7991 16.4076 71.7991 16.2551H71.2991C71.2991 16.3026 71.2719 16.4276 71.1813 16.659C71.0952 16.879 70.9639 17.1664 70.7855 17.5233L71.2327 17.7469ZM71.7991 16.2551C71.7991 16.1963 71.7935 16.0893 71.7266 16.0001C71.6866 15.9467 71.6273 15.9039 71.5527 15.8873C71.4837 15.872 71.4227 15.8837 71.3801 15.8979L71.5382 16.3723C71.5255 16.3765 71.4907 16.3857 71.4442 16.3754C71.3921 16.3638 71.3516 16.3335 71.3266 16.3001C71.3051 16.2715 71.2998 16.2475 71.299 16.2437C71.298 16.2388 71.2991 16.2414 71.2991 16.2551H71.7991ZM71.4522 15.8852C71.1891 15.8925 70.9262 16.0351 70.6722 16.2439C70.4129 16.4571 70.1315 16.7654 69.8283 17.1604C69.2212 17.9512 68.5013 19.1224 67.669 20.6665L68.1092 20.9037C68.937 19.3679 69.642 18.2241 70.2249 17.4649C70.5167 17.0848 70.7716 16.8094 70.9897 16.6301C71.2133 16.4463 71.3691 16.3877 71.466 16.385L71.4522 15.8852ZM67.6726 20.6602C67.3709 21.1831 67.1183 21.6477 66.9155 22.0533L67.3627 22.2769C67.5599 21.8826 67.8074 21.4271 68.1057 20.91L67.6726 20.6602ZM66.9111 22.0625C66.8205 22.264 66.7488 22.4301 66.697 22.5598C66.6476 22.6832 66.6091 22.7906 66.594 22.8661L67.0843 22.9641C67.0892 22.9396 67.1106 22.872 67.1612 22.7455C67.2094 22.6251 67.2778 22.4662 67.3671 22.2677L66.9111 22.0625ZM12.7191 60.9751C11.0815 60.9751 9.51494 60.7581 8.01862 60.325L7.87959 60.8053C9.42326 61.2521 11.0367 61.4751 12.7191 61.4751V60.9751ZM8.01862 60.325C6.53315 59.895 5.19465 59.1722 4.00129 58.1549L3.67692 58.5354C4.92355 59.5981 6.32505 60.3553 7.87959 60.8053L8.01862 60.325ZM4.00101 58.1546C2.83721 57.1654 1.89845 55.811 1.19049 54.0805L0.727715 54.2698C1.45976 56.0592 2.44099 57.4848 3.67719 58.5356L4.00101 58.1546ZM1.18996 54.0792C0.563143 52.5709 0.249102 50.9636 0.249102 49.2551H-0.250898C-0.250898 51.0266 0.0750605 52.6993 0.728244 54.2711L1.18996 54.0792ZM0.249102 49.2551C0.249102 47.3906 0.641583 45.4311 1.43244 43.3749L0.965765 43.1954C0.15662 45.2992 -0.250898 47.3196 -0.250898 49.2551H0.249102ZM1.43215 43.3756C2.22068 41.3451 3.40473 39.4196 4.98775 37.5992L4.61045 37.2711C2.99347 39.1306 1.77753 41.1051 0.966058 43.1946L1.43215 43.3756ZM4.98863 37.5982C6.56668 35.7637 8.54192 34.2021 10.9182 32.9149L10.68 32.4753C8.25628 33.7882 6.23152 35.3866 4.60958 37.2721L4.98863 37.5982ZM10.8678 32.9355L11.0778 32.8755L10.9404 32.3947L10.7304 32.4547L10.8678 32.9355ZM11.0091 32.8851C11.0454 32.8851 11.0659 32.8935 11.0804 32.9031C11.0965 32.9138 11.1203 32.9366 11.1455 32.9869L11.5927 32.7633C11.5379 32.6537 11.4617 32.5564 11.3578 32.4871C11.2523 32.4168 11.1328 32.3851 11.0091 32.3851V32.8851ZM11.152 32.9992C11.2106 33.1017 11.2391 33.209 11.2391 33.3251H11.7391C11.7391 33.1213 11.6876 32.9285 11.5862 32.7511L11.152 32.9992ZM11.2391 33.3251C11.2391 33.3909 11.2262 33.4419 11.2055 33.4833L11.6527 33.7069C11.712 33.5883 11.7391 33.4593 11.7391 33.3251H11.2391ZM11.2211 33.4564C11.2169 33.4628 11.2196 33.4562 11.233 33.4482C11.2396 33.4442 11.2476 33.4407 11.2564 33.4383C11.2652 33.4359 11.273 33.4351 11.2791 33.4351V33.9351C11.4404 33.9351 11.5615 33.8472 11.6371 33.7338L11.2211 33.4564ZM11.2791 33.4351H11.2491V33.9351H11.2791V33.4351ZM11.1347 33.4628C7.72535 35.2179 5.13944 37.4039 3.39109 40.0264L3.80711 40.3038C5.49876 37.7663 8.01286 35.6323 11.3635 33.9074L11.1347 33.4628ZM3.3889 40.0298C2.43781 41.507 1.72748 43.0077 1.26009 44.5318L1.73812 44.6784C2.19073 43.2025 2.8804 41.7432 3.8093 40.3005L3.3889 40.0298ZM1.25982 44.5327C0.793436 46.0738 0.559102 47.5782 0.559102 49.0451H1.0591C1.0591 47.632 1.28477 46.1764 1.73838 44.6775L1.25982 44.5327ZM0.559102 49.0451C0.559102 50.797 0.885209 52.4501 1.53869 54.0021L1.99951 53.8081C1.37299 52.3201 1.0591 50.7333 1.0591 49.0451H0.559102ZM1.53932 54.0036C2.27076 55.7103 3.21064 57.0737 4.36448 58.0833L4.69373 57.707C3.60756 56.7566 2.70744 55.4599 1.99889 53.8066L1.53932 54.0036ZM4.3626 58.0816C5.50974 59.1058 6.81228 59.8342 8.2682 60.2649L8.41001 59.7854C7.02592 59.376 5.78846 58.6844 4.69561 57.7086L4.3626 58.0816ZM8.2682 60.2649C9.71212 60.6919 11.2161 60.9051 12.7791 60.9051V60.4051C11.2621 60.4051 9.80608 60.1983 8.41001 59.7854L8.2682 60.2649ZM12.7791 60.9051C14.4583 60.9051 16.1566 60.7129 17.8736 60.3291L17.7646 59.8411C16.0816 60.2173 14.4199 60.4051 12.7791 60.4051V60.9051ZM17.873 60.3292C19.602 59.9472 21.2417 59.4846 22.7918 58.941L22.6264 58.4692C21.0965 59.0056 19.4762 59.463 17.7652 59.841L17.873 60.3292ZM22.7993 58.9383C28.0315 56.9135 32.3603 54.7252 35.7808 52.3711L35.4974 51.9592C32.118 54.285 27.8267 56.4567 22.6189 58.472L22.7993 58.9383ZM35.7769 52.3737C40.3895 49.3254 45.1994 45.5372 50.2068 41.0106L49.8715 40.6397C44.8788 45.153 40.0888 48.9248 35.5013 51.9565L35.7769 52.3737ZM50.2068 41.0106C55.2168 36.4815 60.195 31.2326 65.1416 25.2647L64.7566 24.9456C59.8232 30.8977 54.8614 36.1288 49.8715 40.6397L50.2068 41.0106ZM65.1662 25.2292C65.3259 24.9496 65.4423 24.7561 65.5171 24.6438L65.1011 24.3664C65.0159 24.4942 64.8923 24.7006 64.732 24.9811L65.1662 25.2292ZM65.5262 24.6292C65.6089 24.4844 65.673 24.3501 65.7016 24.2357L65.2166 24.1145C65.2052 24.1601 65.1693 24.2458 65.092 24.3811L65.5262 24.6292ZM65.6827 24.2869C65.7227 24.2069 65.7627 24.1269 65.8027 24.0469L65.3555 23.8233C65.3155 23.9033 65.2755 23.9833 65.2355 24.0633L65.6827 24.2869ZM65.8027 24.0469C65.8459 23.9606 65.8981 23.8455 65.9589 23.7036L65.4993 23.5066C65.4401 23.6448 65.3923 23.7497 65.3555 23.8233L65.8027 24.0469ZM65.9632 23.6929C66.0174 23.5483 66.1113 23.3497 66.2492 23.0936L65.809 22.8566C65.6669 23.1205 65.5608 23.3419 65.495 23.5173L65.9632 23.6929ZM66.2548 23.0826C66.854 21.8243 67.3413 20.86 67.7173 20.1871L67.2809 19.9432C66.8969 20.6302 66.4042 21.6059 65.8034 22.8676L66.2548 23.0826ZM67.7162 20.1892C68.1124 19.4958 68.528 18.8428 68.963 18.2298L68.5552 17.9404C68.1102 18.5675 67.6859 19.2344 67.282 19.9411L67.7162 20.1892ZM68.962 18.2311C69.5476 17.4173 70.0559 16.8181 70.4875 16.4249C70.9298 16.0219 71.2488 15.8751 71.4591 15.8751V15.3751C71.0494 15.3751 70.6084 15.6383 70.1507 16.0553C69.6823 16.4821 69.1506 17.1129 68.5562 17.9391L68.962 18.2311ZM71.4591 15.8751C71.5347 15.8751 71.5811 15.8991 71.6222 15.9517C71.6729 16.0164 71.7239 16.1382 71.7512 16.3475L72.247 16.2828C72.2143 16.0321 72.1453 15.8088 72.016 15.6435C71.8771 15.4661 71.6836 15.3751 71.4591 15.3751V15.8751ZM71.7491 16.3151C71.7491 16.567 71.6656 16.9165 71.4757 17.3743C71.2873 17.8283 71.0017 18.3714 70.6156 19.005L71.0426 19.2652C71.4365 18.6189 71.7359 18.0519 71.9375 17.5659C72.1376 17.0838 72.2491 16.6632 72.2491 16.3151H71.7491ZM70.615 19.006C69.8667 20.2467 68.7785 21.643 67.3454 23.1955L67.7128 23.5347C69.1597 21.9672 70.2715 20.5435 71.0432 19.2642L70.615 19.006ZM67.3523 23.1883C66.9678 23.5728 66.6322 23.9388 66.3461 24.2862L66.7321 24.604C67.006 24.2714 67.3304 23.9174 67.7059 23.5419L67.3523 23.1883ZM66.3451 24.2875C66.0863 24.606 65.9227 24.8103 65.8591 24.8951L66.2591 25.1951C66.3155 25.1199 66.4719 24.9242 66.7331 24.6028L66.3451 24.2875ZM65.8417 24.9216C64.8274 26.7069 63.8109 29.3588 62.7891 32.8652L63.2691 33.0051C64.2873 29.5114 65.2908 26.9033 66.2765 25.1686L65.8417 24.9216ZM62.7892 32.8648C61.7679 36.3491 60.8966 39.6741 60.1754 42.8396L60.6629 42.9507C61.3816 39.7962 62.2503 36.4811 63.269 33.0054L62.7892 32.8648ZM60.175 42.8414C59.8248 44.4319 59.5619 45.6662 59.3865 46.5436C59.2988 46.9821 59.2326 47.333 59.1882 47.5953C59.1453 47.8492 59.1191 48.0402 59.1191 48.1451H59.6191C59.6191 48.09 59.6367 47.9423 59.6812 47.6787C59.7244 47.4235 59.7895 47.0781 59.8768 46.6416C60.0513 45.769 60.3134 44.5383 60.6633 42.9489L60.175 42.8414ZM59.1923 48.3219L59.2223 48.3519L59.5759 47.9983L59.5459 47.9683L59.1923 48.3219ZM59.6491 48.1751C59.6491 48.1928 59.647 48.2069 59.6452 48.2157C59.6434 48.2248 59.6413 48.2316 59.64 48.2354C59.6376 48.2427 59.636 48.2453 59.6377 48.2419C59.6391 48.2391 59.6421 48.2335 59.6472 48.225C59.6523 48.2166 59.6588 48.2062 59.6671 48.1938L59.2511 47.9164C59.2284 47.9505 59.2071 47.9852 59.1905 48.0183C59.1795 48.0403 59.1491 48.1014 59.1491 48.1751H59.6491ZM59.672 48.1861C59.8339 47.9232 60.0953 47.4807 60.4553 46.8607L60.0229 46.6096C59.6629 47.2295 59.4044 47.6671 59.2462 47.9241L59.672 48.1861ZM60.4535 46.8637C60.811 46.2679 61.1985 45.6618 61.6161 45.0453L61.2021 44.7649C60.7797 45.3884 60.3872 46.0023 60.0247 46.6065L60.4535 46.8637ZM61.6167 45.0444C66.5544 37.6878 71.0108 31.4731 74.9859 26.3993L74.5923 26.0909C70.6074 31.1772 66.1438 37.4024 61.2015 44.7658L61.6167 45.0444ZM74.9826 26.4034C75.1616 26.1847 75.3607 25.9457 75.58 25.6866L75.1983 25.3636C74.9775 25.6245 74.7766 25.8656 74.5956 26.0868L74.9826 26.4034ZM75.5843 25.6813C76.0621 25.0841 76.6101 24.4265 77.2285 23.7082L76.8497 23.382C76.2281 24.1038 75.6761 24.7661 75.1939 25.3689L75.5843 25.6813ZM77.237 23.6979C78.7938 21.682 80.32 19.8367 81.8156 18.1616L81.4426 17.8286C79.9382 19.5136 78.4044 21.3682 76.8412 23.3923L77.237 23.6979ZM81.8203 18.1562C84.1734 15.3644 86.696 12.7321 89.3882 10.2592L89.05 9.891C86.3422 12.3782 83.8048 15.0259 81.4379 17.834L81.8203 18.1562ZM89.3883 10.2592C92.0925 7.7737 95.0648 5.67617 98.3058 3.96623L98.0724 3.524C94.7934 5.25407 91.7857 7.37653 89.0499 9.89105L89.3883 10.2592ZM98.3059 3.96616C100.408 2.85539 102.508 2.06362 104.604 1.58894L104.494 1.10129C102.35 1.58661 100.21 2.39484 98.0723 3.52407L98.3059 3.96616ZM104.606 1.58844C106.707 1.09296 108.858 0.845114 111.059 0.845114V0.345114C108.82 0.345114 106.631 0.59727 104.492 1.10179L104.606 1.58844ZM111.07 0.844897C111.296 0.835467 111.424 0.862294 111.487 0.893722C111.514 0.907313 111.521 0.917813 111.523 0.919865C111.524 0.921458 111.529 0.929801 111.529 0.955116H112.029C112.029 0.850432 112.004 0.746274 111.945 0.652867C111.887 0.559919 111.804 0.492918 111.711 0.446509C111.534 0.357936 111.302 0.334762 111.049 0.34533L111.07 0.844897ZM111.529 0.955116C111.529 0.99707 111.514 1.04621 111.452 1.10834L111.806 1.46189C111.944 1.32402 112.029 1.15316 112.029 0.955116H111.529ZM111.434 1.12894C111.406 1.16426 111.386 1.17983 111.377 1.18561C111.369 1.19029 111.374 1.18511 111.389 1.18511V1.68511C111.581 1.68511 111.725 1.56505 111.824 1.44129L111.434 1.12894ZM111.389 1.18511C111.385 1.18511 111.401 1.18426 111.426 1.19651C111.454 1.2107 111.479 1.23493 111.493 1.26332L111.046 1.48691C111.122 1.6408 111.272 1.68511 111.389 1.68511V1.18511ZM111.269 1.12511H110.939V1.62511H111.269V1.12511ZM110.939 1.12511C108.744 1.12511 106.618 1.32653 104.561 1.72979L104.657 2.22044C106.681 1.8237 108.774 1.62511 110.939 1.62511V1.12511ZM104.563 1.72942C102.516 2.11453 100.443 2.85352 98.3439 3.94324L98.5743 4.38699C100.636 3.31671 102.662 2.5957 104.655 2.2208L104.563 1.72942ZM98.341 3.94479C95.0021 5.7349 92.0236 7.87795 89.4066 10.3742L89.7517 10.736C92.3346 8.27229 95.2761 6.15533 98.5772 4.38545L98.341 3.94479ZM89.4073 10.3735C86.801 12.8395 84.2852 15.4755 81.86 18.2816L82.2382 18.6086C84.653 15.8147 87.1572 13.1908 89.7509 10.7367L89.4073 10.3735ZM81.8613 18.2801C78.9587 21.5831 76.3556 24.7067 74.0522 27.6511L74.446 27.9592C76.7426 25.0235 79.3395 21.9072 82.2369 18.6101L81.8613 18.2801ZM74.0506 27.6531C72.3467 29.8782 70.1738 32.9224 67.5328 36.784L67.9455 37.0662C70.5844 33.2078 72.7515 30.172 74.4476 27.9571L74.0506 27.6531ZM67.5323 36.7847C64.9112 40.6462 62.6896 44.0186 60.8678 46.9016L61.2904 47.1687C63.1086 44.2916 65.327 40.924 67.946 37.0655L67.5323 36.7847ZM60.868 46.9012C60.349 47.7196 59.9323 48.3444 59.6169 48.7781L60.0213 49.0722C60.3459 48.6258 60.7692 47.9906 61.2902 47.169L60.868 46.9012ZM59.6169 48.7781C59.4649 48.9871 59.3289 49.1311 59.2105 49.2209C59.092 49.3109 59.0065 49.3351 58.9491 49.3351V49.8351C59.1517 49.8351 59.3412 49.7494 59.5127 49.6193C59.6843 49.4891 59.8533 49.3032 60.0213 49.0722L59.6169 48.7781ZM58.9491 49.3351C58.8747 49.3351 58.8023 49.3065 58.7291 49.1636C58.6484 49.006 58.5882 48.741 58.5688 48.3429L58.0694 48.3673C58.09 48.7893 58.1548 49.1392 58.2841 49.3916C58.4209 49.6588 58.6435 49.8351 58.9491 49.8351V49.3351ZM58.5682 48.3759L58.5982 48.0159L58.1 47.9744L58.07 48.3344L58.5682 48.3759ZM58.5969 48.0286C58.9949 45.0832 59.742 41.6348 60.84 37.682L60.3582 37.5482C59.2562 41.5154 58.5033 44.987 58.1014 47.9616L58.5969 48.0286ZM60.8397 37.6832C61.9585 33.7272 63.0467 30.2933 64.1041 27.3804L63.6341 27.2098C62.5715 30.137 61.4797 33.583 60.3585 37.5471L60.8397 37.6832ZM63.6783 27.1336C58.9447 32.726 54.2229 37.6173 49.5129 41.8084L49.8453 42.1819C54.5754 37.9729 59.3135 33.0642 64.0599 27.4566L63.6783 27.1336ZM49.5125 41.8087C44.8001 46.0219 40.2603 49.5436 35.8931 52.3754L36.1651 52.7949C40.5579 49.9466 45.1181 46.4083 49.8457 42.1815L49.5125 41.8087ZM35.8942 52.3746C34.6192 53.1914 33.1135 54.0889 31.3764 55.0673L31.6218 55.5029C33.3647 54.5213 34.879 53.6188 36.164 52.7956L35.8942 52.3746ZM31.3745 55.0684C29.644 56.0629 27.7529 56.9986 25.7009 57.8752L25.8973 58.335C27.9653 57.4516 29.8742 56.5073 31.6237 55.5019L31.3745 55.0684ZM25.699 57.876C23.6512 58.7707 21.5236 59.5065 19.3159 60.0832L19.4423 60.567C21.6746 59.9838 23.827 59.2395 25.8992 58.3342L25.699 57.876ZM19.3139 60.0838C17.1144 60.6782 14.9163 60.9751 12.7191 60.9751V61.4751C14.9619 61.4751 17.2038 61.172 19.4443 60.5665L19.3139 60.0838ZM76.9634 34.6151V34.8651H77.0224L77.0752 34.8387L76.9634 34.6151ZM77.0834 34.5551L77.1952 34.7787L77.2315 34.7606L77.2602 34.7319L77.0834 34.5551ZM77.1134 34.4651L76.8898 34.3533L76.8634 34.4061V34.4651H77.1134ZM77.1434 34.2551H77.3934V34.1961L77.367 34.1433L77.1434 34.2551ZM77.0234 34.1351V33.8851H76.9828L76.9443 33.8979L77.0234 34.1351ZM76.9334 34.1651L76.8543 33.9279L76.7984 33.9466L76.7566 33.9883L76.9334 34.1651ZM76.8734 34.3451H76.6234V34.3699L76.6283 34.3941L76.8734 34.3451ZM76.9034 34.4951L76.658 34.5442L76.6609 34.5558L76.9034 34.4951ZM74.0234 37.2551L73.8466 37.4319L73.9198 37.5051H74.0234V37.2551ZM75.1034 36.5351L75.2566 36.733L75.2661 36.7249L75.1034 36.5351ZM76.1534 35.6351L76.3161 35.8249L76.4034 35.7501V35.6351H76.1534ZM76.1534 35.6051L75.9766 35.4283L75.9034 35.5016V35.6051H76.1534ZM76.4234 35.3351L76.6002 35.5119L76.6177 35.4944L76.6314 35.4738L76.4234 35.3351ZM76.3934 34.9751L76.1698 35.0869L76.1879 35.1232L76.2166 35.1519L76.3934 34.9751ZM75.7334 35.0951L75.9023 35.2794L75.9103 35.2721L75.9177 35.264L75.7334 35.0951ZM74.2934 36.7151L74.0952 36.5627L74.0952 36.5627L74.2934 36.7151ZM73.9934 37.2251H73.7434V37.3287L73.8166 37.4019L73.9934 37.2251ZM73.8134 38.0951V38.3451H73.8562L73.8966 38.3309L73.8134 38.0951ZM73.5434 38.0651L73.6225 37.8279L73.6133 37.8249L73.604 37.8226L73.5434 38.0651ZM73.3634 37.9751L73.5402 37.7983L73.5276 37.7858L73.5134 37.7751L73.3634 37.9751ZM75.8534 33.8651L75.69 33.6759L75.6872 33.6784L75.8534 33.8651ZM76.8434 33.0551L76.7046 32.8469L76.6964 32.8529L76.8434 33.0551ZM77.8934 33.0851L77.7065 33.2512L77.7252 33.2722L77.7481 33.2885L77.8934 33.0851ZM77.7734 34.3451L77.9906 34.4692L77.9949 34.4611L77.7734 34.3451ZM77.5934 34.7351L77.8255 34.828L77.8282 34.8211L77.8306 34.8142L77.5934 34.7351ZM77.5334 34.9451H77.2834V35.0208L77.3254 35.0838L77.5334 34.9451ZM77.8334 35.1251L77.7456 35.3592L77.762 35.3654L77.7792 35.3692L77.8334 35.1251ZM78.4634 35.2451L78.4223 35.4917L78.4324 35.4934L78.4426 35.4943L78.4634 35.2451ZM80.2034 35.1851L80.1711 34.9372L80.1696 34.9374L80.2034 35.1851ZM82.3634 34.8251L82.4086 35.071L82.4086 35.071L82.3634 34.8251ZM86.6234 34.0151L86.6709 34.2606L86.6763 34.2595L86.6234 34.0151ZM89.5334 33.3851L89.4844 33.1399L89.4805 33.1408L89.5334 33.3851ZM90.1034 33.3851L89.8798 33.2733L89.8534 33.3261V33.3851H90.1034ZM89.9534 33.5351L89.8248 33.3207L89.8137 33.3274L89.8034 33.3351L89.9534 33.5351ZM89.7134 33.6551L89.6528 33.4126L89.6528 33.4126L89.7134 33.6551ZM87.9434 34.0751L87.9988 34.3189L87.9991 34.3188L87.9434 34.0751ZM85.0634 34.7651L85.1125 35.0105L85.124 35.0077L85.0634 34.7651ZM84.1934 34.9151L84.158 34.6675L84.1498 34.669L84.1934 34.9151ZM80.5934 35.5451L80.6296 35.7926L80.6355 35.7916L80.5934 35.5451ZM77.6234 35.6051L77.6921 35.3647L77.6903 35.3642L77.6234 35.6051ZM77.0834 35.4551L77.1503 35.2142L77.0122 35.1759L76.9093 35.2757L77.0834 35.4551ZM75.1934 37.1951L75.3528 37.3878L75.3566 37.3845L75.1934 37.1951ZM77.0752 34.8387L77.1952 34.7787L76.9716 34.3315L76.8516 34.3915L77.0752 34.8387ZM77.2602 34.7319C77.3436 34.6485 77.3634 34.5437 77.3634 34.4651H76.8634C76.8634 34.465 76.8633 34.4548 76.8687 34.4386C76.8745 34.4211 76.8861 34.3989 76.9066 34.3783L77.2602 34.7319ZM77.337 34.5769C77.3723 34.5063 77.3934 34.4283 77.3934 34.3451H76.8934C76.8934 34.3441 76.8936 34.3437 76.8934 34.3445C76.8931 34.3454 76.8923 34.3483 76.8898 34.3533L77.337 34.5769ZM77.3934 34.3451V34.2551H76.8934V34.3451H77.3934ZM77.367 34.1433C77.3411 34.0915 77.3069 34.0351 77.2602 33.9883C77.2129 33.9411 77.1331 33.8851 77.0234 33.8851V34.3851C76.9537 34.3851 76.9139 34.3491 76.9066 34.3419C76.8999 34.3352 76.9057 34.3387 76.9198 34.3669L77.367 34.1433ZM76.9443 33.8979L76.8543 33.9279L77.0125 34.4023L77.1025 34.3723L76.9443 33.8979ZM76.7566 33.9883C76.6532 34.0918 76.6234 34.2266 76.6234 34.3451H77.1234C77.1234 34.3252 77.126 34.318 77.1256 34.3192C77.1253 34.32 77.1242 34.3231 77.1215 34.3275C77.1188 34.332 77.1151 34.337 77.1102 34.3419L76.7566 33.9883ZM76.6283 34.3941L76.6583 34.5441L77.1485 34.4461L77.1185 34.2961L76.6283 34.3941ZM76.6609 34.5558C76.6722 34.6013 76.6875 34.6523 76.7098 34.6969C76.7207 34.7187 76.7399 34.7527 76.7716 34.7844C76.8039 34.8166 76.8687 34.8651 76.9634 34.8651V34.3651C77.0481 34.3651 77.1029 34.4086 77.1252 34.4308C77.1469 34.4526 77.1561 34.4715 77.157 34.4733C77.1593 34.4779 77.1546 34.4689 77.1459 34.4345L76.6609 34.5558ZM74.0234 37.5051C74.0791 37.5051 74.128 37.4899 74.1585 37.4788C74.1931 37.4662 74.2284 37.4497 74.2628 37.4318C74.3317 37.3958 74.4138 37.3453 74.5071 37.2831C74.6944 37.1582 74.9449 36.974 75.2564 36.7328L74.9504 36.3374C74.6419 36.5762 74.4024 36.752 74.2297 36.8671C74.143 36.9249 74.0776 36.9644 74.0315 36.9885C74.0084 37.0005 73.9943 37.0065 73.9877 37.0089C73.977 37.0128 73.9927 37.0051 74.0234 37.0051V37.5051ZM75.2661 36.7249L76.3161 35.8249L75.9907 35.4453L74.9407 36.3453L75.2661 36.7249ZM76.1534 35.6351C76.4034 35.6351 76.4034 35.6351 76.4034 35.6351C76.4034 35.6351 76.4034 35.6351 76.4034 35.6351C76.4034 35.6351 76.4034 35.6351 76.4034 35.6351C76.4034 35.6351 76.4034 35.6351 76.4034 35.6351C76.4034 35.6351 76.4034 35.6351 76.4034 35.6351C76.4034 35.6351 76.4034 35.6351 76.4034 35.6351C76.4034 35.6351 76.4034 35.6351 76.4034 35.6351C76.4034 35.6351 76.4034 35.6351 76.4034 35.6351C76.4034 35.6351 76.4034 35.6351 76.4034 35.6351C76.4034 35.6351 76.4034 35.6351 76.4034 35.6351C76.4034 35.6351 76.4034 35.6351 76.4034 35.6351C76.4034 35.6351 76.4034 35.6351 76.4034 35.6351C76.4034 35.6351 76.4034 35.6351 76.4034 35.6351C76.4034 35.6351 76.4034 35.6351 76.4034 35.6351C76.4034 35.6351 76.4034 35.6351 76.4034 35.6351C76.4034 35.6351 76.4034 35.6351 76.4034 35.6351C76.4034 35.6351 76.4034 35.6351 76.4034 35.6351C76.4034 35.6351 76.4034 35.6351 76.4034 35.6351C76.4034 35.6351 76.4034 35.6351 76.4034 35.6351C76.4034 35.6351 76.4034 35.6351 76.4034 35.6351C76.4034 35.6351 76.4034 35.6351 76.4034 35.6351C76.4034 35.6351 76.4034 35.6351 76.4034 35.6351C76.4034 35.6351 76.4034 35.6351 76.4034 35.6351C76.4034 35.6351 76.4034 35.6351 76.4034 35.6351C76.4034 35.635 76.4034 35.635 76.4034 35.635C76.4034 35.635 76.4034 35.635 76.4034 35.635C76.4034 35.635 76.4034 35.635 76.4034 35.635C76.4034 35.635 76.4034 35.635 76.4034 35.635C76.4034 35.635 76.4034 35.635 76.4034 35.635C76.4034 35.635 76.4034 35.635 76.4034 35.635C76.4034 35.635 76.4034 35.635 76.4034 35.635C76.4034 35.635 76.4034 35.635 76.4034 35.635C76.4034 35.635 76.4034 35.635 76.4034 35.635C76.4034 35.635 76.4034 35.635 76.4034 35.635C76.4034 35.635 76.4034 35.635 76.4034 35.635C76.4034 35.635 76.4034 35.635 76.4034 35.635C76.4034 35.635 76.4034 35.635 76.4034 35.635C76.4034 35.635 76.4034 35.635 76.4034 35.635C76.4034 35.6349 76.4034 35.6349 76.4034 35.6349C76.4034 35.6349 76.4034 35.6349 76.4034 35.6349C76.4034 35.6349 76.4034 35.6349 76.4034 35.6349C76.4034 35.6349 76.4034 35.6349 76.4034 35.6349C76.4034 35.6349 76.4034 35.6349 76.4034 35.6349C76.4034 35.6349 76.4034 35.6349 76.4034 35.6349C76.4034 35.6349 76.4034 35.6349 76.4034 35.6349C76.4034 35.6349 76.4034 35.6349 76.4034 35.6349C76.4034 35.6349 76.4034 35.6349 76.4034 35.6349C76.4034 35.6349 76.4034 35.6349 76.4034 35.6349C76.4034 35.6348 76.4034 35.6348 76.4034 35.6348C76.4034 35.6348 76.4034 35.6348 76.4034 35.6348C76.4034 35.6348 76.4034 35.6348 76.4034 35.6348C76.4034 35.6348 76.4034 35.6348 76.4034 35.6348C76.4034 35.6348 76.4034 35.6348 76.4034 35.6348C76.4034 35.6348 76.4034 35.6348 76.4034 35.6348C76.4034 35.6348 76.4034 35.6348 76.4034 35.6348C76.4034 35.6348 76.4034 35.6348 76.4034 35.6348C76.4034 35.6348 76.4034 35.6347 76.4034 35.6347C76.4034 35.6347 76.4034 35.6347 76.4034 35.6347C76.4034 35.6347 76.4034 35.6347 76.4034 35.6347C76.4034 35.6347 76.4034 35.6347 76.4034 35.6347C76.4034 35.6347 76.4034 35.6347 76.4034 35.6347C76.4034 35.6347 76.4034 35.6347 76.4034 35.6347C76.4034 35.6347 76.4034 35.6347 76.4034 35.6347C76.4034 35.6347 76.4034 35.6347 76.4034 35.6346C76.4034 35.6346 76.4034 35.6346 76.4034 35.6346C76.4034 35.6346 76.4034 35.6346 76.4034 35.6346C76.4034 35.6346 76.4034 35.6346 76.4034 35.6346C76.4034 35.6346 76.4034 35.6346 76.4034 35.6346C76.4034 35.6346 76.4034 35.6346 76.4034 35.6346C76.4034 35.6346 76.4034 35.6346 76.4034 35.6346C76.4034 35.6346 76.4034 35.6345 76.4034 35.6345C76.4034 35.6345 76.4034 35.6345 76.4034 35.6345C76.4034 35.6345 76.4034 35.6345 76.4034 35.6345C76.4034 35.6345 76.4034 35.6345 76.4034 35.6345C76.4034 35.6345 76.4034 35.6345 76.4034 35.6345C76.4034 35.6345 76.4034 35.6345 76.4034 35.6345C76.4034 35.6345 76.4034 35.6344 76.4034 35.6344C76.4034 35.6344 76.4034 35.6344 76.4034 35.6344C76.4034 35.6344 76.4034 35.6344 76.4034 35.6344C76.4034 35.6344 76.4034 35.6344 76.4034 35.6344C76.4034 35.6344 76.4034 35.6344 76.4034 35.6344C76.4034 35.6344 76.4034 35.6344 76.4034 35.6343C76.4034 35.6343 76.4034 35.6343 76.4034 35.6343C76.4034 35.6343 76.4034 35.6343 76.4034 35.6343C76.4034 35.6343 76.4034 35.6343 76.4034 35.6343C76.4034 35.6343 76.4034 35.6343 76.4034 35.6343C76.4034 35.6343 76.4034 35.6343 76.4034 35.6343C76.4034 35.6342 76.4034 35.6342 76.4034 35.6342C76.4034 35.6342 76.4034 35.6342 76.4034 35.6342C76.4034 35.6342 76.4034 35.6342 76.4034 35.6342C76.4034 35.6342 76.4034 35.6342 76.4034 35.6342C76.4034 35.6342 76.4034 35.6342 76.4034 35.6341C76.4034 35.6341 76.4034 35.6341 76.4034 35.6341C76.4034 35.6341 76.4034 35.6341 76.4034 35.6341C76.4034 35.6341 76.4034 35.6341 76.4034 35.6341C76.4034 35.6341 76.4034 35.6341 76.4034 35.6341C76.4034 35.6341 76.4034 35.634 76.4034 35.634C76.4034 35.634 76.4034 35.634 76.4034 35.634C76.4034 35.634 76.4034 35.634 76.4034 35.634C76.4034 35.634 76.4034 35.634 76.4034 35.634C76.4034 35.634 76.4034 35.634 76.4034 35.6339C76.4034 35.6339 76.4034 35.6339 76.4034 35.6339C76.4034 35.6339 76.4034 35.6339 76.4034 35.6339C76.4034 35.6339 76.4034 35.6339 76.4034 35.6339C76.4034 35.6339 76.4034 35.6339 76.4034 35.6339C76.4034 35.6338 76.4034 35.6338 76.4034 35.6338C76.4034 35.6338 76.4034 35.6338 76.4034 35.6338C76.4034 35.6338 76.4034 35.6338 76.4034 35.6338C76.4034 35.6338 76.4034 35.6338 76.4034 35.6338C76.4034 35.6337 76.4034 35.6337 76.4034 35.6337C76.4034 35.6337 76.4034 35.6337 76.4034 35.6337C76.4034 35.6337 76.4034 35.6337 76.4034 35.6337C76.4034 35.6337 76.4034 35.6337 76.4034 35.6337C76.4034 35.6336 76.4034 35.6336 76.4034 35.6336C76.4034 35.6336 76.4034 35.6336 76.4034 35.6336C76.4034 35.6336 76.4034 35.6336 76.4034 35.6336C76.4034 35.6336 76.4034 35.6336 76.4034 35.6336C76.4034 35.6335 76.4034 35.6335 76.4034 35.6335C76.4034 35.6335 76.4034 35.6335 76.4034 35.6335C76.4034 35.6335 76.4034 35.6335 76.4034 35.6335C76.4034 35.6335 76.4034 35.6335 76.4034 35.6334C76.4034 35.6334 76.4034 35.6334 76.4034 35.6334C76.4034 35.6334 76.4034 35.6334 76.4034 35.6334C76.4034 35.6334 76.4034 35.6334 76.4034 35.6334C76.4034 35.6333 76.4034 35.6333 76.4034 35.6333C76.4034 35.6333 76.4034 35.6333 76.4034 35.6333C76.4034 35.6333 76.4034 35.6333 76.4034 35.6333C76.4034 35.6333 76.4034 35.6333 76.4034 35.6332C76.4034 35.6332 76.4034 35.6332 76.4034 35.6332C76.4034 35.6332 76.4034 35.6332 76.4034 35.6332C76.4034 35.6332 76.4034 35.6332 76.4034 35.6332C76.4034 35.6331 76.4034 35.6331 76.4034 35.6331C76.4034 35.6331 76.4034 35.6331 76.4034 35.6331C76.4034 35.6331 76.4034 35.6331 76.4034 35.6331C76.4034 35.6331 76.4034 35.633 76.4034 35.633C76.4034 35.633 76.4034 35.633 76.4034 35.633C76.4034 35.633 76.4034 35.633 76.4034 35.633C76.4034 35.633 76.4034 35.6329 76.4034 35.6329C76.4034 35.6329 76.4034 35.6329 76.4034 35.6329C76.4034 35.6329 76.4034 35.6329 76.4034 35.6329C76.4034 35.6329 76.4034 35.6329 76.4034 35.6328C76.4034 35.6328 76.4034 35.6328 76.4034 35.6328C76.4034 35.6328 76.4034 35.6328 76.4034 35.6328C76.4034 35.6328 76.4034 35.6328 76.4034 35.6327C76.4034 35.6327 76.4034 35.6327 76.4034 35.6327C76.4034 35.6327 76.4034 35.6327 76.4034 35.6327C76.4034 35.6327 76.4034 35.6327 76.4034 35.6326C76.4034 35.6326 76.4034 35.6326 76.4034 35.6326C76.4034 35.6326 76.4034 35.6326 76.4034 35.6326C76.4034 35.6326 76.4034 35.6326 76.4034 35.6325C76.4034 35.6325 76.4034 35.6325 76.4034 35.6325C76.4034 35.6325 76.4034 35.6325 76.4034 35.6325C76.4034 35.6325 76.4034 35.6324 76.4034 35.6324C76.4034 35.6324 76.4034 35.6324 76.4034 35.6324C76.4034 35.6324 76.4034 35.6324 76.4034 35.6324C76.4034 35.6324 76.4034 35.6323 76.4034 35.6323C76.4034 35.6323 76.4034 35.6323 76.4034 35.6323C76.4034 35.6323 76.4034 35.6323 76.4034 35.6323C76.4034 35.6322 76.4034 35.6322 76.4034 35.6322C76.4034 35.6322 76.4034 35.6322 76.4034 35.6322C76.4034 35.6322 76.4034 35.6322 76.4034 35.6322C76.4034 35.6321 76.4034 35.6321 76.4034 35.6321C76.4034 35.6321 76.4034 35.6321 76.4034 35.6321C76.4034 35.6321 76.4034 35.6321 76.4034 35.632C76.4034 35.632 76.4034 35.632 76.4034 35.632C76.4034 35.632 76.4034 35.632 76.4034 35.632C76.4034 35.632 76.4034 35.6319 76.4034 35.6319C76.4034 35.6319 76.4034 35.6319 76.4034 35.6319C76.4034 35.6319 76.4034 35.6319 76.4034 35.6318C76.4034 35.6318 76.4034 35.6318 76.4034 35.6318C76.4034 35.6318 76.4034 35.6318 76.4034 35.6318C76.4034 35.6318 76.4034 35.6317 76.4034 35.6317C76.4034 35.6317 76.4034 35.6317 76.4034 35.6317C76.4034 35.6317 76.4034 35.6317 76.4034 35.6317C76.4034 35.6316 76.4034 35.6316 76.4034 35.6316C76.4034 35.6316 76.4034 35.6316 76.4034 35.6316C76.4034 35.6316 76.4034 35.6315 76.4034 35.6315C76.4034 35.6315 76.4034 35.6315 76.4034 35.6315C76.4034 35.6315 76.4034 35.6315 76.4034 35.6315C76.4034 35.6314 76.4034 35.6314 76.4034 35.6314C76.4034 35.6314 76.4034 35.6314 76.4034 35.6314C76.4034 35.6314 76.4034 35.6313 76.4034 35.6313C76.4034 35.6313 76.4034 35.6313 76.4034 35.6313C76.4034 35.6313 76.4034 35.6313 76.4034 35.6312C76.4034 35.6312 76.4034 35.6312 76.4034 35.6312C76.4034 35.6312 76.4034 35.6312 76.4034 35.6312C76.4034 35.6311 76.4034 35.6311 76.4034 35.6311C76.4034 35.6311 76.4034 35.6311 76.4034 35.6311C76.4034 35.6311 76.4034 35.631 76.4034 35.631C76.4034 35.631 76.4034 35.631 76.4034 35.631C76.4034 35.631 76.4034 35.631 76.4034 35.6309C76.4034 35.6309 76.4034 35.6309 76.4034 35.6309C76.4034 35.6309 76.4034 35.6309 76.4034 35.6309C76.4034 35.6308 76.4034 35.6308 76.4034 35.6308C76.4034 35.6308 76.4034 35.6308 76.4034 35.6308C76.4034 35.6308 76.4034 35.6307 76.4034 35.6307C76.4034 35.6307 76.4034 35.6307 76.4034 35.6307C76.4034 35.6307 76.4034 35.6306 76.4034 35.6306C76.4034 35.6306 76.4034 35.6306 76.4034 35.6306C76.4034 35.6306 76.4034 35.6306 76.4034 35.6305C76.4034 35.6305 76.4034 35.6305 76.4034 35.6305C76.4034 35.6305 76.4034 35.6305 76.4034 35.6304C76.4034 35.6304 76.4034 35.6304 76.4034 35.6304C76.4034 35.6304 76.4034 35.6304 76.4034 35.6304C76.4034 35.6303 76.4034 35.6303 76.4034 35.6303C76.4034 35.6303 76.4034 35.6303 76.4034 35.6303C76.4034 35.6302 76.4034 35.6302 76.4034 35.6302C76.4034 35.6302 76.4034 35.6302 76.4034 35.6302C76.4034 35.6301 76.4034 35.6301 76.4034 35.6301C76.4034 35.6301 76.4034 35.6301 76.4034 35.6301C76.4034 35.6301 76.4034 35.63 76.4034 35.63C76.4034 35.63 76.4034 35.63 76.4034 35.63C76.4034 35.63 76.4034 35.6299 76.4034 35.6299C76.4034 35.6299 76.4034 35.6299 76.4034 35.6299C76.4034 35.6299 76.4034 35.6298 76.4034 35.6298C76.4034 35.6298 76.4034 35.6298 76.4034 35.6298C76.4034 35.6298 76.4034 35.6297 76.4034 35.6297C76.4034 35.6297 76.4034 35.6297 76.4034 35.6297C76.4034 35.6297 76.4034 35.6296 76.4034 35.6296C76.4034 35.6296 76.4034 35.6296 76.4034 35.6296C76.4034 35.6296 76.4034 35.6295 76.4034 35.6295C76.4034 35.6295 76.4034 35.6295 76.4034 35.6295C76.4034 35.6295 76.4034 35.6294 76.4034 35.6294C76.4034 35.6294 76.4034 35.6294 76.4034 35.6294C76.4034 35.6294 76.4034 35.6293 76.4034 35.6293C76.4034 35.6293 76.4034 35.6293 76.4034 35.6293C76.4034 35.6293 76.4034 35.6292 76.4034 35.6292C76.4034 35.6292 76.4034 35.6292 76.4034 35.6292C76.4034 35.6292 76.4034 35.6291 76.4034 35.6291C76.4034 35.6291 76.4034 35.6291 76.4034 35.6291C76.4034 35.629 76.4034 35.629 76.4034 35.629C76.4034 35.629 76.4034 35.629 76.4034 35.629C76.4034 35.6289 76.4034 35.6289 76.4034 35.6289C76.4034 35.6289 76.4034 35.6289 76.4034 35.6289C76.4034 35.6288 76.4034 35.6288 76.4034 35.6288C76.4034 35.6288 76.4034 35.6288 76.4034 35.6287C76.4034 35.6287 76.4034 35.6287 76.4034 35.6287C76.4034 35.6287 76.4034 35.6287 76.4034 35.6286C76.4034 35.6286 76.4034 35.6286 76.4034 35.6286C76.4034 35.6286 76.4034 35.6285 76.4034 35.6285C76.4034 35.6285 76.4034 35.6285 76.4034 35.6285C76.4034 35.6285 76.4034 35.6284 76.4034 35.6284C76.4034 35.6284 76.4034 35.6284 76.4034 35.6284C76.4034 35.6283 76.4034 35.6283 76.4034 35.6283C76.4034 35.6283 76.4034 35.6283 76.4034 35.6282C76.4034 35.6282 76.4034 35.6282 76.4034 35.6282C76.4034 35.6282 76.4034 35.6282 76.4034 35.6281C76.4034 35.6281 76.4034 35.6281 76.4034 35.6281C76.4034 35.6281 76.4034 35.628 76.4034 35.628C76.4034 35.628 76.4034 35.628 76.4034 35.628C76.4034 35.6279 76.4034 35.6279 76.4034 35.6279C76.4034 35.6279 76.4034 35.6279 76.4034 35.6278C76.4034 35.6278 76.4034 35.6278 76.4034 35.6278C76.4034 35.6278 76.4034 35.6278 76.4034 35.6277C76.4034 35.6277 76.4034 35.6277 76.4034 35.6277C76.4034 35.6277 76.4034 35.6276 76.4034 35.6276C76.4034 35.6276 76.4034 35.6276 76.4034 35.6276C76.4034 35.6275 76.4034 35.6275 76.4034 35.6275C76.4034 35.6275 76.4034 35.6275 76.4034 35.6274C76.4034 35.6274 76.4034 35.6274 76.4034 35.6274C76.4034 35.6274 76.4034 35.6273 76.4034 35.6273C76.4034 35.6273 76.4034 35.6273 76.4034 35.6273C76.4034 35.6272 76.4034 35.6272 76.4034 35.6272C76.4034 35.6272 76.4034 35.6272 76.4034 35.6271C76.4034 35.6271 76.4034 35.6271 76.4034 35.6271C76.4034 35.6271 76.4034 35.627 76.4034 35.627C76.4034 35.627 76.4034 35.627 76.4034 35.627C76.4034 35.6269 76.4034 35.6269 76.4034 35.6269C76.4034 35.6269 76.4034 35.6269 76.4034 35.6268C76.4034 35.6268 76.4034 35.6268 76.4034 35.6268C76.4034 35.6268 76.4034 35.6267 76.4034 35.6267C76.4034 35.6267 76.4034 35.6267 76.4034 35.6267C76.4034 35.6266 76.4034 35.6266 76.4034 35.6266C76.4034 35.6266 76.4034 35.6265 76.4034 35.6265C76.4034 35.6265 76.4034 35.6265 76.4034 35.6265C76.4034 35.6264 76.4034 35.6264 76.4034 35.6264C76.4034 35.6264 76.4034 35.6264 76.4034 35.6263C76.4034 35.6263 76.4034 35.6263 76.4034 35.6263C76.4034 35.6263 76.4034 35.6262 76.4034 35.6262C76.4034 35.6262 76.4034 35.6262 76.4034 35.6261C76.4034 35.6261 76.4034 35.6261 76.4034 35.6261C76.4034 35.6261 76.4034 35.626 76.4034 35.626C76.4034 35.626 76.4034 35.626 76.4034 35.626C76.4034 35.6259 76.4034 35.6259 76.4034 35.6259C76.4034 35.6259 76.4034 35.6258 76.4034 35.6258C76.4034 35.6258 76.4034 35.6258 76.4034 35.6258C76.4034 35.6257 76.4034 35.6257 76.4034 35.6257C76.4034 35.6257 76.4034 35.6256 76.4034 35.6256C76.4034 35.6256 76.4034 35.6256 76.4034 35.6256C76.4034 35.6255 76.4034 35.6255 76.4034 35.6255C76.4034 35.6255 76.4034 35.6254 76.4034 35.6254C76.4034 35.6254 76.4034 35.6254 76.4034 35.6254C76.4034 35.6253 76.4034 35.6253 76.4034 35.6253C76.4034 35.6253 76.4034 35.6252 76.4034 35.6252C76.4034 35.6252 76.4034 35.6252 76.4034 35.6252C76.4034 35.6251 76.4034 35.6251 76.4034 35.6251C76.4034 35.6251 76.4034 35.625 76.4034 35.625C76.4034 35.625 76.4034 35.625 76.4034 35.625C76.4034 35.6249 76.4034 35.6249 76.4034 35.6249C76.4034 35.6249 76.4034 35.6248 76.4034 35.6248C76.4034 35.6248 76.4034 35.6248 76.4034 35.6247C76.4034 35.6247 76.4034 35.6247 76.4034 35.6247C76.4034 35.6247 76.4034 35.6246 76.4034 35.6246C76.4034 35.6246 76.4034 35.6246 76.4034 35.6245C76.4034 35.6245 76.4034 35.6245 76.4034 35.6245C76.4034 35.6244 76.4034 35.6244 76.4034 35.6244C76.4034 35.6244 76.4034 35.6244 76.4034 35.6243C76.4034 35.6243 76.4034 35.6243 76.4034 35.6243C76.4034 35.6242 76.4034 35.6242 76.4034 35.6242C76.4034 35.6242 76.4034 35.6241 76.4034 35.6241C76.4034 35.6241 76.4034 35.6241 76.4034 35.624C76.4034 35.624 76.4034 35.624 76.4034 35.624C76.4034 35.624 76.4034 35.6239 76.4034 35.6239C76.4034 35.6239 76.4034 35.6239 76.4034 35.6238C76.4034 35.6238 76.4034 35.6238 76.4034 35.6238C76.4034 35.6237 76.4034 35.6237 76.4034 35.6237C76.4034 35.6237 76.4034 35.6236 76.4034 35.6236C76.4034 35.6236 76.4034 35.6236 76.4034 35.6235C76.4034 35.6235 76.4034 35.6235 76.4034 35.6235C76.4034 35.6234 76.4034 35.6234 76.4034 35.6234C76.4034 35.6234 76.4034 35.6233 76.4034 35.6233C76.4034 35.6233 76.4034 35.6233 76.4034 35.6233C76.4034 35.6232 76.4034 35.6232 76.4034 35.6232C76.4034 35.6232 76.4034 35.6231 76.4034 35.6231C76.4034 35.6231 76.4034 35.6231 76.4034 35.623C76.4034 35.623 76.4034 35.623 76.4034 35.623C76.4034 35.6229 76.4034 35.6229 76.4034 35.6229C76.4034 35.6229 76.4034 35.6228 76.4034 35.6228C76.4034 35.6228 76.4034 35.6228 76.4034 35.6227C76.4034 35.6227 76.4034 35.6227 76.4034 35.6227C76.4034 35.6226 76.4034 35.6226 76.4034 35.6226C76.4034 35.6226 76.4034 35.6225 76.4034 35.6225C76.4034 35.6225 76.4034 35.6225 76.4034 35.6224C76.4034 35.6224 76.4034 35.6224 76.4034 35.6224C76.4034 35.6223 76.4034 35.6223 76.4034 35.6223C76.4034 35.6222 76.4034 35.6222 76.4034 35.6222C76.4034 35.6222 76.4034 35.6221 76.4034 35.6221C76.4034 35.6221 76.4034 35.6221 76.4034 35.622C76.4034 35.622 76.4034 35.622 76.4034 35.622C76.4034 35.6219 76.4034 35.6219 76.4034 35.6219C76.4034 35.6219 76.4034 35.6218 76.4034 35.6218C76.4034 35.6218 76.4034 35.6218 76.4034 35.6217C76.4034 35.6217 76.4034 35.6217 76.4034 35.6217C76.4034 35.6216 76.4034 35.6216 76.4034 35.6216C76.4034 35.6215 76.4034 35.6215 76.4034 35.6215C76.4034 35.6215 76.4034 35.6214 76.4034 35.6214C76.4034 35.6214 76.4034 35.6214 76.4034 35.6213C76.4034 35.6213 76.4034 35.6213 76.4034 35.6213C76.4034 35.6212 76.4034 35.6212 76.4034 35.6212C76.4034 35.6212 76.4034 35.6211 76.4034 35.6211C76.4034 35.6211 76.4034 35.621 76.4034 35.621C76.4034 35.621 76.4034 35.621 76.4034 35.6209C76.4034 35.6209 76.4034 35.6209 76.4034 35.6209C76.4034 35.6208 76.4034 35.6208 76.4034 35.6208C76.4034 35.6207 76.4034 35.6207 76.4034 35.6207C76.4034 35.6207 76.4034 35.6206 76.4034 35.6206C76.4034 35.6206 76.4034 35.6206 76.4034 35.6205C76.4034 35.6205 76.4034 35.6205 76.4034 35.6204C76.4034 35.6204 76.4034 35.6204 76.4034 35.6204C76.4034 35.6203 76.4034 35.6203 76.4034 35.6203C76.4034 35.6203 76.4034 35.6202 76.4034 35.6202C76.4034 35.6202 76.4034 35.6201 76.4034 35.6201C76.4034 35.6201 76.4034 35.6201 76.4034 35.62C76.4034 35.62 76.4034 35.62 76.4034 35.62C76.4034 35.6199 76.4034 35.6199 76.4034 35.6199C76.4034 35.6198 76.4034 35.6198 76.4034 35.6198C76.4034 35.6198 76.4034 35.6197 76.4034 35.6197C76.4034 35.6197 76.4034 35.6196 76.4034 35.6196C76.4034 35.6196 76.4034 35.6196 76.4034 35.6195C76.4034 35.6195 76.4034 35.6195 76.4034 35.6194C76.4034 35.6194 76.4034 35.6194 76.4034 35.6194C76.4034 35.6193 76.4034 35.6193 76.4034 35.6193C76.4034 35.6193 76.4034 35.6192 76.4034 35.6192C76.4034 35.6192 76.4034 35.6191 76.4034 35.6191C76.4034 35.6191 76.4034 35.6191 76.4034 35.619C76.4034 35.619 76.4034 35.619 76.4034 35.6189C76.4034 35.6189 76.4034 35.6189 76.4034 35.6189C76.4034 35.6188 76.4034 35.6188 76.4034 35.6188C76.4034 35.6187 76.4034 35.6187 76.4034 35.6187C76.4034 35.6186 76.4034 35.6186 76.4034 35.6186C76.4034 35.6186 76.4034 35.6185 76.4034 35.6185C76.4034 35.6185 76.4034 35.6184 76.4034 35.6184C76.4034 35.6184 76.4034 35.6184 76.4034 35.6183C76.4034 35.6183 76.4034 35.6183 76.4034 35.6182C76.4034 35.6182 76.4034 35.6182 76.4034 35.6182C76.4034 35.6181 76.4034 35.6181 76.4034 35.6181C76.4034 35.618 76.4034 35.618 76.4034 35.618C76.4034 35.6179 76.4034 35.6179 76.4034 35.6179C76.4034 35.6179 76.4034 35.6178 76.4034 35.6178C76.4034 35.6178 76.4034 35.6177 76.4034 35.6177C76.4034 35.6177 76.4034 35.6177 76.4034 35.6176C76.4034 35.6176 76.4034 35.6176 76.4034 35.6175C76.4034 35.6175 76.4034 35.6175 76.4034 35.6174C76.4034 35.6174 76.4034 35.6174 76.4034 35.6174C76.4034 35.6173 76.4034 35.6173 76.4034 35.6173C76.4034 35.6172 76.4034 35.6172 76.4034 35.6172C76.4034 35.6171 76.4034 35.6171 76.4034 35.6171C76.4034 35.617 76.4034 35.617 76.4034 35.617C76.4034 35.617 76.4034 35.6169 76.4034 35.6169C76.4034 35.6169 76.4034 35.6168 76.4034 35.6168C76.4034 35.6168 76.4034 35.6167 76.4034 35.6167C76.4034 35.6167 76.4034 35.6167 76.4034 35.6166C76.4034 35.6166 76.4034 35.6166 76.4034 35.6165C76.4034 35.6165 76.4034 35.6165 76.4034 35.6164C76.4034 35.6164 76.4034 35.6164 76.4034 35.6163C76.4034 35.6163 76.4034 35.6163 76.4034 35.6163C76.4034 35.6162 76.4034 35.6162 76.4034 35.6162C76.4034 35.6161 76.4034 35.6161 76.4034 35.6161C76.4034 35.616 76.4034 35.616 76.4034 35.616C76.4034 35.6159 76.4034 35.6159 76.4034 35.6159C76.4034 35.6158 76.4034 35.6158 76.4034 35.6158C76.4034 35.6158 76.4034 35.6157 76.4034 35.6157C76.4034 35.6157 76.4034 35.6156 76.4034 35.6156C76.4034 35.6156 76.4034 35.6155 76.4034 35.6155C76.4034 35.6155 76.4034 35.6154 76.4034 35.6154C76.4034 35.6154 76.4034 35.6153 76.4034 35.6153C76.4034 35.6153 76.4034 35.6152 76.4034 35.6152C76.4034 35.6152 76.4034 35.6152 76.4034 35.6151C76.4034 35.6151 76.4034 35.6151 76.4034 35.615C76.4034 35.615 76.4034 35.615 76.4034 35.6149C76.4034 35.6149 76.4034 35.6149 76.4034 35.6148C76.4034 35.6148 76.4034 35.6148 76.4034 35.6147C76.4034 35.6147 76.4034 35.6147 76.4034 35.6146C76.4034 35.6146 76.4034 35.6146 76.4034 35.6145C76.4034 35.6145 76.4034 35.6145 76.4034 35.6144C76.4034 35.6144 76.4034 35.6144 76.4034 35.6143C76.4034 35.6143 76.4034 35.6143 76.4034 35.6143C76.4034 35.6142 76.4034 35.6142 76.4034 35.6142C76.4034 35.6141 76.4034 35.6141 76.4034 35.6141C76.4034 35.614 76.4034 35.614 76.4034 35.614C76.4034 35.6139 76.4034 35.6139 76.4034 35.6139C76.4034 35.6138 76.4034 35.6138 76.4034 35.6138C76.4034 35.6137 76.4034 35.6137 76.4034 35.6137C76.4034 35.6136 76.4034 35.6136 76.4034 35.6136C76.4034 35.6135 76.4034 35.6135 76.4034 35.6135C76.4034 35.6134 76.4034 35.6134 76.4034 35.6134C76.4034 35.6133 76.4034 35.6133 76.4034 35.6133C76.4034 35.6132 76.4034 35.6132 76.4034 35.6132C76.4034 35.6131 76.4034 35.6131 76.4034 35.6131C76.4034 35.613 76.4034 35.613 76.4034 35.613C76.4034 35.6129 76.4034 35.6129 76.4034 35.6129C76.4034 35.6128 76.4034 35.6128 76.4034 35.6128C76.4034 35.6127 76.4034 35.6127 76.4034 35.6127C76.4034 35.6126 76.4034 35.6126 76.4034 35.6126C76.4034 35.6125 76.4034 35.6125 76.4034 35.6125C76.4034 35.6124 76.4034 35.6124 76.4034 35.6124C76.4034 35.6123 76.4034 35.6123 76.4034 35.6123C76.4034 35.6122 76.4034 35.6122 76.4034 35.6121C76.4034 35.6121 76.4034 35.6121 76.4034 35.612C76.4034 35.612 76.4034 35.612 76.4034 35.6119C76.4034 35.6119 76.4034 35.6119 76.4034 35.6118C76.4034 35.6118 76.4034 35.6118 76.4034 35.6117C76.4034 35.6117 76.4034 35.6117 76.4034 35.6116C76.4034 35.6116 76.4034 35.6116 76.4034 35.6115C76.4034 35.6115 76.4034 35.6115 76.4034 35.6114C76.4034 35.6114 76.4034 35.6114 76.4034 35.6113C76.4034 35.6113 76.4034 35.6113 76.4034 35.6112C76.4034 35.6112 76.4034 35.6111 76.4034 35.6111C76.4034 35.6111 76.4034 35.611 76.4034 35.611C76.4034 35.611 76.4034 35.6109 76.4034 35.6109C76.4034 35.6109 76.4034 35.6108 76.4034 35.6108C76.4034 35.6108 76.4034 35.6107 76.4034 35.6107C76.4034 35.6107 76.4034 35.6106 76.4034 35.6106C76.4034 35.6105 76.4034 35.6105 76.4034 35.6105C76.4034 35.6104 76.4034 35.6104 76.4034 35.6104C76.4034 35.6103 76.4034 35.6103 76.4034 35.6103C76.4034 35.6102 76.4034 35.6102 76.4034 35.6102C76.4034 35.6101 76.4034 35.6101 76.4034 35.6101C76.4034 35.61 76.4034 35.61 76.4034 35.6099C76.4034 35.6099 76.4034 35.6099 76.4034 35.6098C76.4034 35.6098 76.4034 35.6098 76.4034 35.6097C76.4034 35.6097 76.4034 35.6097 76.4034 35.6096C76.4034 35.6096 76.4034 35.6095 76.4034 35.6095C76.4034 35.6095 76.4034 35.6094 76.4034 35.6094C76.4034 35.6094 76.4034 35.6093 76.4034 35.6093C76.4034 35.6093 76.4034 35.6092 76.4034 35.6092C76.4034 35.6092 76.4034 35.6091 76.4034 35.6091C76.4034 35.609 76.4034 35.609 76.4034 35.609C76.4034 35.6089 76.4034 35.6089 76.4034 35.6089C76.4034 35.6088 76.4034 35.6088 76.4034 35.6087C76.4034 35.6087 76.4034 35.6087 76.4034 35.6086C76.4034 35.6086 76.4034 35.6086 76.4034 35.6085C76.4034 35.6085 76.4034 35.6085 76.4034 35.6084C76.4034 35.6084 76.4034 35.6083 76.4034 35.6083C76.4034 35.6083 76.4034 35.6082 76.4034 35.6082C76.4034 35.6082 76.4034 35.6081 76.4034 35.6081C76.4034 35.608 76.4034 35.608 76.4034 35.608C76.4034 35.6079 76.4034 35.6079 76.4034 35.6079C76.4034 35.6078 76.4034 35.6078 76.4034 35.6078C76.4034 35.6077 76.4034 35.6077 76.4034 35.6076C76.4034 35.6076 76.4034 35.6076 76.4034 35.6075C76.4034 35.6075 76.4034 35.6075 76.4034 35.6074C76.4034 35.6074 76.4034 35.6073 76.4034 35.6073C76.4034 35.6073 76.4034 35.6072 76.4034 35.6072C76.4034 35.6072 76.4034 35.6071 76.4034 35.6071C76.4034 35.607 76.4034 35.607 76.4034 35.607C76.4034 35.6069 76.4034 35.6069 76.4034 35.6068C76.4034 35.6068 76.4034 35.6068 76.4034 35.6067C76.4034 35.6067 76.4034 35.6067 76.4034 35.6066C76.4034 35.6066 76.4034 35.6065 76.4034 35.6065C76.4034 35.6065 76.4034 35.6064 76.4034 35.6064C76.4034 35.6064 76.4034 35.6063 76.4034 35.6063C76.4034 35.6062 76.4034 35.6062 76.4034 35.6062C76.4034 35.6061 76.4034 35.6061 76.4034 35.606C76.4034 35.606 76.4034 35.606 76.4034 35.6059C76.4034 35.6059 76.4034 35.6059 76.4034 35.6058C76.4034 35.6058 76.4034 35.6057 76.4034 35.6057C76.4034 35.6057 76.4034 35.6056 76.4034 35.6056C76.4034 35.6055 76.4034 35.6055 76.4034 35.6055C76.4034 35.6054 76.4034 35.6054 76.4034 35.6054C76.4034 35.6053 76.4034 35.6053 76.4034 35.6052C76.4034 35.6052 76.4034 35.6052 76.4034 35.6051H75.9034C75.9034 35.6052 75.9034 35.6052 75.9034 35.6052C75.9034 35.6053 75.9034 35.6053 75.9034 35.6054C75.9034 35.6054 75.9034 35.6054 75.9034 35.6055C75.9034 35.6055 75.9034 35.6055 75.9034 35.6056C75.9034 35.6056 75.9034 35.6057 75.9034 35.6057C75.9034 35.6057 75.9034 35.6058 75.9034 35.6058C75.9034 35.6059 75.9034 35.6059 75.9034 35.6059C75.9034 35.606 75.9034 35.606 75.9034 35.606C75.9034 35.6061 75.9034 35.6061 75.9034 35.6062C75.9034 35.6062 75.9034 35.6062 75.9034 35.6063C75.9034 35.6063 75.9034 35.6064 75.9034 35.6064C75.9034 35.6064 75.9034 35.6065 75.9034 35.6065C75.9034 35.6065 75.9034 35.6066 75.9034 35.6066C75.9034 35.6067 75.9034 35.6067 75.9034 35.6067C75.9034 35.6068 75.9034 35.6068 75.9034 35.6068C75.9034 35.6069 75.9034 35.6069 75.9034 35.607C75.9034 35.607 75.9034 35.607 75.9034 35.6071C75.9034 35.6071 75.9034 35.6072 75.9034 35.6072C75.9034 35.6072 75.9034 35.6073 75.9034 35.6073C75.9034 35.6073 75.9034 35.6074 75.9034 35.6074C75.9034 35.6075 75.9034 35.6075 75.9034 35.6075C75.9034 35.6076 75.9034 35.6076 75.9034 35.6076C75.9034 35.6077 75.9034 35.6077 75.9034 35.6078C75.9034 35.6078 75.9034 35.6078 75.9034 35.6079C75.9034 35.6079 75.9034 35.6079 75.9034 35.608C75.9034 35.608 75.9034 35.608 75.9034 35.6081C75.9034 35.6081 75.9034 35.6082 75.9034 35.6082C75.9034 35.6082 75.9034 35.6083 75.9034 35.6083C75.9034 35.6083 75.9034 35.6084 75.9034 35.6084C75.9034 35.6085 75.9034 35.6085 75.9034 35.6085C75.9034 35.6086 75.9034 35.6086 75.9034 35.6086C75.9034 35.6087 75.9034 35.6087 75.9034 35.6087C75.9034 35.6088 75.9034 35.6088 75.9034 35.6089C75.9034 35.6089 75.9034 35.6089 75.9034 35.609C75.9034 35.609 75.9034 35.609 75.9034 35.6091C75.9034 35.6091 75.9034 35.6092 75.9034 35.6092C75.9034 35.6092 75.9034 35.6093 75.9034 35.6093C75.9034 35.6093 75.9034 35.6094 75.9034 35.6094C75.9034 35.6094 75.9034 35.6095 75.9034 35.6095C75.9034 35.6095 75.9034 35.6096 75.9034 35.6096C75.9034 35.6097 75.9034 35.6097 75.9034 35.6097C75.9034 35.6098 75.9034 35.6098 75.9034 35.6098C75.9034 35.6099 75.9034 35.6099 75.9034 35.6099C75.9034 35.61 75.9034 35.61 75.9034 35.6101C75.9034 35.6101 75.9034 35.6101 75.9034 35.6102C75.9034 35.6102 75.9034 35.6102 75.9034 35.6103C75.9034 35.6103 75.9034 35.6103 75.9034 35.6104C75.9034 35.6104 75.9034 35.6104 75.9034 35.6105C75.9034 35.6105 75.9034 35.6105 75.9034 35.6106C75.9034 35.6106 75.9034 35.6107 75.9034 35.6107C75.9034 35.6107 75.9034 35.6108 75.9034 35.6108C75.9034 35.6108 75.9034 35.6109 75.9034 35.6109C75.9034 35.6109 75.9034 35.611 75.9034 35.611C75.9034 35.611 75.9034 35.6111 75.9034 35.6111C75.9034 35.6111 75.9034 35.6112 75.9034 35.6112C75.9034 35.6113 75.9034 35.6113 75.9034 35.6113C75.9034 35.6114 75.9034 35.6114 75.9034 35.6114C75.9034 35.6115 75.9034 35.6115 75.9034 35.6115C75.9034 35.6116 75.9034 35.6116 75.9034 35.6116C75.9034 35.6117 75.9034 35.6117 75.9034 35.6117C75.9034 35.6118 75.9034 35.6118 75.9034 35.6118C75.9034 35.6119 75.9034 35.6119 75.9034 35.6119C75.9034 35.612 75.9034 35.612 75.9034 35.612C75.9034 35.6121 75.9034 35.6121 75.9034 35.6121C75.9034 35.6122 75.9034 35.6122 75.9034 35.6123C75.9034 35.6123 75.9034 35.6123 75.9034 35.6124C75.9034 35.6124 75.9034 35.6124 75.9034 35.6125C75.9034 35.6125 75.9034 35.6125 75.9034 35.6126C75.9034 35.6126 75.9034 35.6126 75.9034 35.6127C75.9034 35.6127 75.9034 35.6127 75.9034 35.6128C75.9034 35.6128 75.9034 35.6128 75.9034 35.6129C75.9034 35.6129 75.9034 35.6129 75.9034 35.613C75.9034 35.613 75.9034 35.613 75.9034 35.6131C75.9034 35.6131 75.9034 35.6131 75.9034 35.6132C75.9034 35.6132 75.9034 35.6132 75.9034 35.6133C75.9034 35.6133 75.9034 35.6133 75.9034 35.6134C75.9034 35.6134 75.9034 35.6134 75.9034 35.6135C75.9034 35.6135 75.9034 35.6135 75.9034 35.6136C75.9034 35.6136 75.9034 35.6136 75.9034 35.6137C75.9034 35.6137 75.9034 35.6137 75.9034 35.6138C75.9034 35.6138 75.9034 35.6138 75.9034 35.6139C75.9034 35.6139 75.9034 35.6139 75.9034 35.614C75.9034 35.614 75.9034 35.614 75.9034 35.6141C75.9034 35.6141 75.9034 35.6141 75.9034 35.6142C75.9034 35.6142 75.9034 35.6142 75.9034 35.6143C75.9034 35.6143 75.9034 35.6143 75.9034 35.6143C75.9034 35.6144 75.9034 35.6144 75.9034 35.6144C75.9034 35.6145 75.9034 35.6145 75.9034 35.6145C75.9034 35.6146 75.9034 35.6146 75.9034 35.6146C75.9034 35.6147 75.9034 35.6147 75.9034 35.6147C75.9034 35.6148 75.9034 35.6148 75.9034 35.6148C75.9034 35.6149 75.9034 35.6149 75.9034 35.6149C75.9034 35.615 75.9034 35.615 75.9034 35.615C75.9034 35.6151 75.9034 35.6151 75.9034 35.6151C75.9034 35.6152 75.9034 35.6152 75.9034 35.6152C75.9034 35.6152 75.9034 35.6153 75.9034 35.6153C75.9034 35.6153 75.9034 35.6154 75.9034 35.6154C75.9034 35.6154 75.9034 35.6155 75.9034 35.6155C75.9034 35.6155 75.9034 35.6156 75.9034 35.6156C75.9034 35.6156 75.9034 35.6157 75.9034 35.6157C75.9034 35.6157 75.9034 35.6158 75.9034 35.6158C75.9034 35.6158 75.9034 35.6158 75.9034 35.6159C75.9034 35.6159 75.9034 35.6159 75.9034 35.616C75.9034 35.616 75.9034 35.616 75.9034 35.6161C75.9034 35.6161 75.9034 35.6161 75.9034 35.6162C75.9034 35.6162 75.9034 35.6162 75.9034 35.6163C75.9034 35.6163 75.9034 35.6163 75.9034 35.6163C75.9034 35.6164 75.9034 35.6164 75.9034 35.6164C75.9034 35.6165 75.9034 35.6165 75.9034 35.6165C75.9034 35.6166 75.9034 35.6166 75.9034 35.6166C75.9034 35.6167 75.9034 35.6167 75.9034 35.6167C75.9034 35.6167 75.9034 35.6168 75.9034 35.6168C75.9034 35.6168 75.9034 35.6169 75.9034 35.6169C75.9034 35.6169 75.9034 35.617 75.9034 35.617C75.9034 35.617 75.9034 35.617 75.9034 35.6171C75.9034 35.6171 75.9034 35.6171 75.9034 35.6172C75.9034 35.6172 75.9034 35.6172 75.9034 35.6173C75.9034 35.6173 75.9034 35.6173 75.9034 35.6174C75.9034 35.6174 75.9034 35.6174 75.9034 35.6174C75.9034 35.6175 75.9034 35.6175 75.9034 35.6175C75.9034 35.6176 75.9034 35.6176 75.9034 35.6176C75.9034 35.6177 75.9034 35.6177 75.9034 35.6177C75.9034 35.6177 75.9034 35.6178 75.9034 35.6178C75.9034 35.6178 75.9034 35.6179 75.9034 35.6179C75.9034 35.6179 75.9034 35.6179 75.9034 35.618C75.9034 35.618 75.9034 35.618 75.9034 35.6181C75.9034 35.6181 75.9034 35.6181 75.9034 35.6182C75.9034 35.6182 75.9034 35.6182 75.9034 35.6182C75.9034 35.6183 75.9034 35.6183 75.9034 35.6183C75.9034 35.6184 75.9034 35.6184 75.9034 35.6184C75.9034 35.6184 75.9034 35.6185 75.9034 35.6185C75.9034 35.6185 75.9034 35.6186 75.9034 35.6186C75.9034 35.6186 75.9034 35.6186 75.9034 35.6187C75.9034 35.6187 75.9034 35.6187 75.9034 35.6188C75.9034 35.6188 75.9034 35.6188 75.9034 35.6189C75.9034 35.6189 75.9034 35.6189 75.9034 35.6189C75.9034 35.619 75.9034 35.619 75.9034 35.619C75.9034 35.6191 75.9034 35.6191 75.9034 35.6191C75.9034 35.6191 75.9034 35.6192 75.9034 35.6192C75.9034 35.6192 75.9034 35.6193 75.9034 35.6193C75.9034 35.6193 75.9034 35.6193 75.9034 35.6194C75.9034 35.6194 75.9034 35.6194 75.9034 35.6194C75.9034 35.6195 75.9034 35.6195 75.9034 35.6195C75.9034 35.6196 75.9034 35.6196 75.9034 35.6196C75.9034 35.6196 75.9034 35.6197 75.9034 35.6197C75.9034 35.6197 75.9034 35.6198 75.9034 35.6198C75.9034 35.6198 75.9034 35.6198 75.9034 35.6199C75.9034 35.6199 75.9034 35.6199 75.9034 35.62C75.9034 35.62 75.9034 35.62 75.9034 35.62C75.9034 35.6201 75.9034 35.6201 75.9034 35.6201C75.9034 35.6201 75.9034 35.6202 75.9034 35.6202C75.9034 35.6202 75.9034 35.6203 75.9034 35.6203C75.9034 35.6203 75.9034 35.6203 75.9034 35.6204C75.9034 35.6204 75.9034 35.6204 75.9034 35.6204C75.9034 35.6205 75.9034 35.6205 75.9034 35.6205C75.9034 35.6206 75.9034 35.6206 75.9034 35.6206C75.9034 35.6206 75.9034 35.6207 75.9034 35.6207C75.9034 35.6207 75.9034 35.6207 75.9034 35.6208C75.9034 35.6208 75.9034 35.6208 75.9034 35.6209C75.9034 35.6209 75.9034 35.6209 75.9034 35.6209C75.9034 35.621 75.9034 35.621 75.9034 35.621C75.9034 35.621 75.9034 35.6211 75.9034 35.6211C75.9034 35.6211 75.9034 35.6212 75.9034 35.6212C75.9034 35.6212 75.9034 35.6212 75.9034 35.6213C75.9034 35.6213 75.9034 35.6213 75.9034 35.6213C75.9034 35.6214 75.9034 35.6214 75.9034 35.6214C75.9034 35.6214 75.9034 35.6215 75.9034 35.6215C75.9034 35.6215 75.9034 35.6215 75.9034 35.6216C75.9034 35.6216 75.9034 35.6216 75.9034 35.6217C75.9034 35.6217 75.9034 35.6217 75.9034 35.6217C75.9034 35.6218 75.9034 35.6218 75.9034 35.6218C75.9034 35.6218 75.9034 35.6219 75.9034 35.6219C75.9034 35.6219 75.9034 35.6219 75.9034 35.622C75.9034 35.622 75.9034 35.622 75.9034 35.622C75.9034 35.6221 75.9034 35.6221 75.9034 35.6221C75.9034 35.6221 75.9034 35.6222 75.9034 35.6222C75.9034 35.6222 75.9034 35.6222 75.9034 35.6223C75.9034 35.6223 75.9034 35.6223 75.9034 35.6224C75.9034 35.6224 75.9034 35.6224 75.9034 35.6224C75.9034 35.6225 75.9034 35.6225 75.9034 35.6225C75.9034 35.6225 75.9034 35.6226 75.9034 35.6226C75.9034 35.6226 75.9034 35.6226 75.9034 35.6227C75.9034 35.6227 75.9034 35.6227 75.9034 35.6227C75.9034 35.6228 75.9034 35.6228 75.9034 35.6228C75.9034 35.6228 75.9034 35.6229 75.9034 35.6229C75.9034 35.6229 75.9034 35.6229 75.9034 35.623C75.9034 35.623 75.9034 35.623 75.9034 35.623C75.9034 35.6231 75.9034 35.6231 75.9034 35.6231C75.9034 35.6231 75.9034 35.6232 75.9034 35.6232C75.9034 35.6232 75.9034 35.6232 75.9034 35.6233C75.9034 35.6233 75.9034 35.6233 75.9034 35.6233C75.9034 35.6233 75.9034 35.6234 75.9034 35.6234C75.9034 35.6234 75.9034 35.6234 75.9034 35.6235C75.9034 35.6235 75.9034 35.6235 75.9034 35.6235C75.9034 35.6236 75.9034 35.6236 75.9034 35.6236C75.9034 35.6236 75.9034 35.6237 75.9034 35.6237C75.9034 35.6237 75.9034 35.6237 75.9034 35.6238C75.9034 35.6238 75.9034 35.6238 75.9034 35.6238C75.9034 35.6239 75.9034 35.6239 75.9034 35.6239C75.9034 35.6239 75.9034 35.624 75.9034 35.624C75.9034 35.624 75.9034 35.624 75.9034 35.624C75.9034 35.6241 75.9034 35.6241 75.9034 35.6241C75.9034 35.6241 75.9034 35.6242 75.9034 35.6242C75.9034 35.6242 75.9034 35.6242 75.9034 35.6243C75.9034 35.6243 75.9034 35.6243 75.9034 35.6243C75.9034 35.6244 75.9034 35.6244 75.9034 35.6244C75.9034 35.6244 75.9034 35.6244 75.9034 35.6245C75.9034 35.6245 75.9034 35.6245 75.9034 35.6245C75.9034 35.6246 75.9034 35.6246 75.9034 35.6246C75.9034 35.6246 75.9034 35.6247 75.9034 35.6247C75.9034 35.6247 75.9034 35.6247 75.9034 35.6247C75.9034 35.6248 75.9034 35.6248 75.9034 35.6248C75.9034 35.6248 75.9034 35.6249 75.9034 35.6249C75.9034 35.6249 75.9034 35.6249 75.9034 35.625C75.9034 35.625 75.9034 35.625 75.9034 35.625C75.9034 35.625 75.9034 35.6251 75.9034 35.6251C75.9034 35.6251 75.9034 35.6251 75.9034 35.6252C75.9034 35.6252 75.9034 35.6252 75.9034 35.6252C75.9034 35.6252 75.9034 35.6253 75.9034 35.6253C75.9034 35.6253 75.9034 35.6253 75.9034 35.6254C75.9034 35.6254 75.9034 35.6254 75.9034 35.6254C75.9034 35.6254 75.9034 35.6255 75.9034 35.6255C75.9034 35.6255 75.9034 35.6255 75.9034 35.6256C75.9034 35.6256 75.9034 35.6256 75.9034 35.6256C75.9034 35.6256 75.9034 35.6257 75.9034 35.6257C75.9034 35.6257 75.9034 35.6257 75.9034 35.6258C75.9034 35.6258 75.9034 35.6258 75.9034 35.6258C75.9034 35.6258 75.9034 35.6259 75.9034 35.6259C75.9034 35.6259 75.9034 35.6259 75.9034 35.626C75.9034 35.626 75.9034 35.626 75.9034 35.626C75.9034 35.626 75.9034 35.6261 75.9034 35.6261C75.9034 35.6261 75.9034 35.6261 75.9034 35.6261C75.9034 35.6262 75.9034 35.6262 75.9034 35.6262C75.9034 35.6262 75.9034 35.6263 75.9034 35.6263C75.9034 35.6263 75.9034 35.6263 75.9034 35.6263C75.9034 35.6264 75.9034 35.6264 75.9034 35.6264C75.9034 35.6264 75.9034 35.6264 75.9034 35.6265C75.9034 35.6265 75.9034 35.6265 75.9034 35.6265C75.9034 35.6265 75.9034 35.6266 75.9034 35.6266C75.9034 35.6266 75.9034 35.6266 75.9034 35.6267C75.9034 35.6267 75.9034 35.6267 75.9034 35.6267C75.9034 35.6267 75.9034 35.6268 75.9034 35.6268C75.9034 35.6268 75.9034 35.6268 75.9034 35.6268C75.9034 35.6269 75.9034 35.6269 75.9034 35.6269C75.9034 35.6269 75.9034 35.6269 75.9034 35.627C75.9034 35.627 75.9034 35.627 75.9034 35.627C75.9034 35.627 75.9034 35.6271 75.9034 35.6271C75.9034 35.6271 75.9034 35.6271 75.9034 35.6271C75.9034 35.6272 75.9034 35.6272 75.9034 35.6272C75.9034 35.6272 75.9034 35.6272 75.9034 35.6273C75.9034 35.6273 75.9034 35.6273 75.9034 35.6273C75.9034 35.6273 75.9034 35.6274 75.9034 35.6274C75.9034 35.6274 75.9034 35.6274 75.9034 35.6274C75.9034 35.6275 75.9034 35.6275 75.9034 35.6275C75.9034 35.6275 75.9034 35.6275 75.9034 35.6276C75.9034 35.6276 75.9034 35.6276 75.9034 35.6276C75.9034 35.6276 75.9034 35.6277 75.9034 35.6277C75.9034 35.6277 75.9034 35.6277 75.9034 35.6277C75.9034 35.6278 75.9034 35.6278 75.9034 35.6278C75.9034 35.6278 75.9034 35.6278 75.9034 35.6278C75.9034 35.6279 75.9034 35.6279 75.9034 35.6279C75.9034 35.6279 75.9034 35.6279 75.9034 35.628C75.9034 35.628 75.9034 35.628 75.9034 35.628C75.9034 35.628 75.9034 35.6281 75.9034 35.6281C75.9034 35.6281 75.9034 35.6281 75.9034 35.6281C75.9034 35.6282 75.9034 35.6282 75.9034 35.6282C75.9034 35.6282 75.9034 35.6282 75.9034 35.6282C75.9034 35.6283 75.9034 35.6283 75.9034 35.6283C75.9034 35.6283 75.9034 35.6283 75.9034 35.6284C75.9034 35.6284 75.9034 35.6284 75.9034 35.6284C75.9034 35.6284 75.9034 35.6285 75.9034 35.6285C75.9034 35.6285 75.9034 35.6285 75.9034 35.6285C75.9034 35.6285 75.9034 35.6286 75.9034 35.6286C75.9034 35.6286 75.9034 35.6286 75.9034 35.6286C75.9034 35.6287 75.9034 35.6287 75.9034 35.6287C75.9034 35.6287 75.9034 35.6287 75.9034 35.6287C75.9034 35.6288 75.9034 35.6288 75.9034 35.6288C75.9034 35.6288 75.9034 35.6288 75.9034 35.6289C75.9034 35.6289 75.9034 35.6289 75.9034 35.6289C75.9034 35.6289 75.9034 35.6289 75.9034 35.629C75.9034 35.629 75.9034 35.629 75.9034 35.629C75.9034 35.629 75.9034 35.629 75.9034 35.6291C75.9034 35.6291 75.9034 35.6291 75.9034 35.6291C75.9034 35.6291 75.9034 35.6292 75.9034 35.6292C75.9034 35.6292 75.9034 35.6292 75.9034 35.6292C75.9034 35.6292 75.9034 35.6293 75.9034 35.6293C75.9034 35.6293 75.9034 35.6293 75.9034 35.6293C75.9034 35.6293 75.9034 35.6294 75.9034 35.6294C75.9034 35.6294 75.9034 35.6294 75.9034 35.6294C75.9034 35.6294 75.9034 35.6295 75.9034 35.6295C75.9034 35.6295 75.9034 35.6295 75.9034 35.6295C75.9034 35.6295 75.9034 35.6296 75.9034 35.6296C75.9034 35.6296 75.9034 35.6296 75.9034 35.6296C75.9034 35.6296 75.9034 35.6297 75.9034 35.6297C75.9034 35.6297 75.9034 35.6297 75.9034 35.6297C75.9034 35.6297 75.9034 35.6298 75.9034 35.6298C75.9034 35.6298 75.9034 35.6298 75.9034 35.6298C75.9034 35.6298 75.9034 35.6299 75.9034 35.6299C75.9034 35.6299 75.9034 35.6299 75.9034 35.6299C75.9034 35.6299 75.9034 35.63 75.9034 35.63C75.9034 35.63 75.9034 35.63 75.9034 35.63C75.9034 35.63 75.9034 35.6301 75.9034 35.6301C75.9034 35.6301 75.9034 35.6301 75.9034 35.6301C75.9034 35.6301 75.9034 35.6301 75.9034 35.6302C75.9034 35.6302 75.9034 35.6302 75.9034 35.6302C75.9034 35.6302 75.9034 35.6302 75.9034 35.6303C75.9034 35.6303 75.9034 35.6303 75.9034 35.6303C75.9034 35.6303 75.9034 35.6303 75.9034 35.6304C75.9034 35.6304 75.9034 35.6304 75.9034 35.6304C75.9034 35.6304 75.9034 35.6304 75.9034 35.6304C75.9034 35.6305 75.9034 35.6305 75.9034 35.6305C75.9034 35.6305 75.9034 35.6305 75.9034 35.6305C75.9034 35.6306 75.9034 35.6306 75.9034 35.6306C75.9034 35.6306 75.9034 35.6306 75.9034 35.6306C75.9034 35.6306 75.9034 35.6307 75.9034 35.6307C75.9034 35.6307 75.9034 35.6307 75.9034 35.6307C75.9034 35.6307 75.9034 35.6308 75.9034 35.6308C75.9034 35.6308 75.9034 35.6308 75.9034 35.6308C75.9034 35.6308 75.9034 35.6308 75.9034 35.6309C75.9034 35.6309 75.9034 35.6309 75.9034 35.6309C75.9034 35.6309 75.9034 35.6309 75.9034 35.6309C75.9034 35.631 75.9034 35.631 75.9034 35.631C75.9034 35.631 75.9034 35.631 75.9034 35.631C75.9034 35.631 75.9034 35.6311 75.9034 35.6311C75.9034 35.6311 75.9034 35.6311 75.9034 35.6311C75.9034 35.6311 75.9034 35.6311 75.9034 35.6312C75.9034 35.6312 75.9034 35.6312 75.9034 35.6312C75.9034 35.6312 75.9034 35.6312 75.9034 35.6312C75.9034 35.6313 75.9034 35.6313 75.9034 35.6313C75.9034 35.6313 75.9034 35.6313 75.9034 35.6313C75.9034 35.6313 75.9034 35.6314 75.9034 35.6314C75.9034 35.6314 75.9034 35.6314 75.9034 35.6314C75.9034 35.6314 75.9034 35.6314 75.9034 35.6315C75.9034 35.6315 75.9034 35.6315 75.9034 35.6315C75.9034 35.6315 75.9034 35.6315 75.9034 35.6315C75.9034 35.6315 75.9034 35.6316 75.9034 35.6316C75.9034 35.6316 75.9034 35.6316 75.9034 35.6316C75.9034 35.6316 75.9034 35.6316 75.9034 35.6317C75.9034 35.6317 75.9034 35.6317 75.9034 35.6317C75.9034 35.6317 75.9034 35.6317 75.9034 35.6317C75.9034 35.6317 75.9034 35.6318 75.9034 35.6318C75.9034 35.6318 75.9034 35.6318 75.9034 35.6318C75.9034 35.6318 75.9034 35.6318 75.9034 35.6318C75.9034 35.6319 75.9034 35.6319 75.9034 35.6319C75.9034 35.6319 75.9034 35.6319 75.9034 35.6319C75.9034 35.6319 75.9034 35.632 75.9034 35.632C75.9034 35.632 75.9034 35.632 75.9034 35.632C75.9034 35.632 75.9034 35.632 75.9034 35.632C75.9034 35.6321 75.9034 35.6321 75.9034 35.6321C75.9034 35.6321 75.9034 35.6321 75.9034 35.6321C75.9034 35.6321 75.9034 35.6321 75.9034 35.6322C75.9034 35.6322 75.9034 35.6322 75.9034 35.6322C75.9034 35.6322 75.9034 35.6322 75.9034 35.6322C75.9034 35.6322 75.9034 35.6322 75.9034 35.6323C75.9034 35.6323 75.9034 35.6323 75.9034 35.6323C75.9034 35.6323 75.9034 35.6323 75.9034 35.6323C75.9034 35.6323 75.9034 35.6324 75.9034 35.6324C75.9034 35.6324 75.9034 35.6324 75.9034 35.6324C75.9034 35.6324 75.9034 35.6324 75.9034 35.6324C75.9034 35.6324 75.9034 35.6325 75.9034 35.6325C75.9034 35.6325 75.9034 35.6325 75.9034 35.6325C75.9034 35.6325 75.9034 35.6325 75.9034 35.6325C75.9034 35.6326 75.9034 35.6326 75.9034 35.6326C75.9034 35.6326 75.9034 35.6326 75.9034 35.6326C75.9034 35.6326 75.9034 35.6326 75.9034 35.6326C75.9034 35.6327 75.9034 35.6327 75.9034 35.6327C75.9034 35.6327 75.9034 35.6327 75.9034 35.6327C75.9034 35.6327 75.9034 35.6327 75.9034 35.6327C75.9034 35.6328 75.9034 35.6328 75.9034 35.6328C75.9034 35.6328 75.9034 35.6328 75.9034 35.6328C75.9034 35.6328 75.9034 35.6328 75.9034 35.6328C75.9034 35.6329 75.9034 35.6329 75.9034 35.6329C75.9034 35.6329 75.9034 35.6329 75.9034 35.6329C75.9034 35.6329 75.9034 35.6329 75.9034 35.6329C75.9034 35.6329 75.9034 35.633 75.9034 35.633C75.9034 35.633 75.9034 35.633 75.9034 35.633C75.9034 35.633 75.9034 35.633 75.9034 35.633C75.9034 35.633 75.9034 35.6331 75.9034 35.6331C75.9034 35.6331 75.9034 35.6331 75.9034 35.6331C75.9034 35.6331 75.9034 35.6331 75.9034 35.6331C75.9034 35.6331 75.9034 35.6331 75.9034 35.6332C75.9034 35.6332 75.9034 35.6332 75.9034 35.6332C75.9034 35.6332 75.9034 35.6332 75.9034 35.6332C75.9034 35.6332 75.9034 35.6332 75.9034 35.6332C75.9034 35.6333 75.9034 35.6333 75.9034 35.6333C75.9034 35.6333 75.9034 35.6333 75.9034 35.6333C75.9034 35.6333 75.9034 35.6333 75.9034 35.6333C75.9034 35.6333 75.9034 35.6333 75.9034 35.6334C75.9034 35.6334 75.9034 35.6334 75.9034 35.6334C75.9034 35.6334 75.9034 35.6334 75.9034 35.6334C75.9034 35.6334 75.9034 35.6334 75.9034 35.6334C75.9034 35.6335 75.9034 35.6335 75.9034 35.6335C75.9034 35.6335 75.9034 35.6335 75.9034 35.6335C75.9034 35.6335 75.9034 35.6335 75.9034 35.6335C75.9034 35.6335 75.9034 35.6335 75.9034 35.6336C75.9034 35.6336 75.9034 35.6336 75.9034 35.6336C75.9034 35.6336 75.9034 35.6336 75.9034 35.6336C75.9034 35.6336 75.9034 35.6336 75.9034 35.6336C75.9034 35.6336 75.9034 35.6336 75.9034 35.6337C75.9034 35.6337 75.9034 35.6337 75.9034 35.6337C75.9034 35.6337 75.9034 35.6337 75.9034 35.6337C75.9034 35.6337 75.9034 35.6337 75.9034 35.6337C75.9034 35.6337 75.9034 35.6337 75.9034 35.6338C75.9034 35.6338 75.9034 35.6338 75.9034 35.6338C75.9034 35.6338 75.9034 35.6338 75.9034 35.6338C75.9034 35.6338 75.9034 35.6338 75.9034 35.6338C75.9034 35.6338 75.9034 35.6338 75.9034 35.6339C75.9034 35.6339 75.9034 35.6339 75.9034 35.6339C75.9034 35.6339 75.9034 35.6339 75.9034 35.6339C75.9034 35.6339 75.9034 35.6339 75.9034 35.6339C75.9034 35.6339 75.9034 35.6339 75.9034 35.6339C75.9034 35.634 75.9034 35.634 75.9034 35.634C75.9034 35.634 75.9034 35.634 75.9034 35.634C75.9034 35.634 75.9034 35.634 75.9034 35.634C75.9034 35.634 75.9034 35.634 75.9034 35.634C75.9034 35.634 75.9034 35.6341 75.9034 35.6341C75.9034 35.6341 75.9034 35.6341 75.9034 35.6341C75.9034 35.6341 75.9034 35.6341 75.9034 35.6341C75.9034 35.6341 75.9034 35.6341 75.9034 35.6341C75.9034 35.6341 75.9034 35.6341 75.9034 35.6341C75.9034 35.6342 75.9034 35.6342 75.9034 35.6342C75.9034 35.6342 75.9034 35.6342 75.9034 35.6342C75.9034 35.6342 75.9034 35.6342 75.9034 35.6342C75.9034 35.6342 75.9034 35.6342 75.9034 35.6342C75.9034 35.6342 75.9034 35.6342 75.9034 35.6343C75.9034 35.6343 75.9034 35.6343 75.9034 35.6343C75.9034 35.6343 75.9034 35.6343 75.9034 35.6343C75.9034 35.6343 75.9034 35.6343 75.9034 35.6343C75.9034 35.6343 75.9034 35.6343 75.9034 35.6343C75.9034 35.6343 75.9034 35.6343 75.9034 35.6343C75.9034 35.6344 75.9034 35.6344 75.9034 35.6344C75.9034 35.6344 75.9034 35.6344 75.9034 35.6344C75.9034 35.6344 75.9034 35.6344 75.9034 35.6344C75.9034 35.6344 75.9034 35.6344 75.9034 35.6344C75.9034 35.6344 75.9034 35.6344 75.9034 35.6344C75.9034 35.6344 75.9034 35.6345 75.9034 35.6345C75.9034 35.6345 75.9034 35.6345 75.9034 35.6345C75.9034 35.6345 75.9034 35.6345 75.9034 35.6345C75.9034 35.6345 75.9034 35.6345 75.9034 35.6345C75.9034 35.6345 75.9034 35.6345 75.9034 35.6345C75.9034 35.6345 75.9034 35.6345 75.9034 35.6345C75.9034 35.6345 75.9034 35.6346 75.9034 35.6346C75.9034 35.6346 75.9034 35.6346 75.9034 35.6346C75.9034 35.6346 75.9034 35.6346 75.9034 35.6346C75.9034 35.6346 75.9034 35.6346 75.9034 35.6346C75.9034 35.6346 75.9034 35.6346 75.9034 35.6346C75.9034 35.6346 75.9034 35.6346 75.9034 35.6346C75.9034 35.6346 75.9034 35.6346 75.9034 35.6346C75.9034 35.6347 75.9034 35.6347 75.9034 35.6347C75.9034 35.6347 75.9034 35.6347 75.9034 35.6347C75.9034 35.6347 75.9034 35.6347 75.9034 35.6347C75.9034 35.6347 75.9034 35.6347 75.9034 35.6347C75.9034 35.6347 75.9034 35.6347 75.9034 35.6347C75.9034 35.6347 75.9034 35.6347 75.9034 35.6347C75.9034 35.6347 75.9034 35.6347 75.9034 35.6347C75.9034 35.6347 75.9034 35.6348 75.9034 35.6348C75.9034 35.6348 75.9034 35.6348 75.9034 35.6348C75.9034 35.6348 75.9034 35.6348 75.9034 35.6348C75.9034 35.6348 75.9034 35.6348 75.9034 35.6348C75.9034 35.6348 75.9034 35.6348 75.9034 35.6348C75.9034 35.6348 75.9034 35.6348 75.9034 35.6348C75.9034 35.6348 75.9034 35.6348 75.9034 35.6348C75.9034 35.6348 75.9034 35.6348 75.9034 35.6348C75.9034 35.6348 75.9034 35.6348 75.9034 35.6349C75.9034 35.6349 75.9034 35.6349 75.9034 35.6349C75.9034 35.6349 75.9034 35.6349 75.9034 35.6349C75.9034 35.6349 75.9034 35.6349 75.9034 35.6349C75.9034 35.6349 75.9034 35.6349 75.9034 35.6349C75.9034 35.6349 75.9034 35.6349 75.9034 35.6349C75.9034 35.6349 75.9034 35.6349 75.9034 35.6349C75.9034 35.6349 75.9034 35.6349 75.9034 35.6349C75.9034 35.6349 75.9034 35.6349 75.9034 35.6349C75.9034 35.6349 75.9034 35.6349 75.9034 35.6349C75.9034 35.6349 75.9034 35.6349 75.9034 35.635C75.9034 35.635 75.9034 35.635 75.9034 35.635C75.9034 35.635 75.9034 35.635 75.9034 35.635C75.9034 35.635 75.9034 35.635 75.9034 35.635C75.9034 35.635 75.9034 35.635 75.9034 35.635C75.9034 35.635 75.9034 35.635 75.9034 35.635C75.9034 35.635 75.9034 35.635 75.9034 35.635C75.9034 35.635 75.9034 35.635 75.9034 35.635C75.9034 35.635 75.9034 35.635 75.9034 35.635C75.9034 35.635 75.9034 35.635 75.9034 35.635C75.9034 35.635 75.9034 35.635 75.9034 35.635C75.9034 35.635 75.9034 35.635 75.9034 35.635C75.9034 35.635 75.9034 35.635 75.9034 35.635C75.9034 35.635 75.9034 35.635 75.9034 35.635C75.9034 35.635 75.9034 35.635 75.9034 35.6351C75.9034 35.6351 75.9034 35.6351 75.9034 35.6351C75.9034 35.6351 75.9034 35.6351 75.9034 35.6351C75.9034 35.6351 75.9034 35.6351 75.9034 35.6351C75.9034 35.6351 75.9034 35.6351 75.9034 35.6351C75.9034 35.6351 75.9034 35.6351 75.9034 35.6351C75.9034 35.6351 75.9034 35.6351 75.9034 35.6351C75.9034 35.6351 75.9034 35.6351 75.9034 35.6351C75.9034 35.6351 75.9034 35.6351 75.9034 35.6351C75.9034 35.6351 75.9034 35.6351 75.9034 35.6351C75.9034 35.6351 75.9034 35.6351 75.9034 35.6351C75.9034 35.6351 75.9034 35.6351 75.9034 35.6351C75.9034 35.6351 75.9034 35.6351 75.9034 35.6351C75.9034 35.6351 75.9034 35.6351 75.9034 35.6351C75.9034 35.6351 75.9034 35.6351 75.9034 35.6351C75.9034 35.6351 75.9034 35.6351 75.9034 35.6351C75.9034 35.6351 75.9034 35.6351 75.9034 35.6351C75.9034 35.6351 75.9034 35.6351 75.9034 35.6351C75.9034 35.6351 75.9034 35.6351 75.9034 35.6351C75.9034 35.6351 75.9034 35.6351 75.9034 35.6351C75.9034 35.6351 75.9034 35.6351 75.9034 35.6351C75.9034 35.6351 75.9034 35.6351 75.9034 35.6351C75.9034 35.6351 75.9034 35.6351 75.9034 35.6351C75.9034 35.6351 75.9034 35.6351 75.9034 35.6351C75.9034 35.6351 75.9034 35.6351 76.1534 35.6351ZM76.3302 35.7819C76.4502 35.6619 76.5402 35.5719 76.6002 35.5119L76.2466 35.1583C76.1866 35.2183 76.0966 35.3083 75.9766 35.4283L76.3302 35.7819ZM76.6314 35.4738C76.6932 35.3811 76.7334 35.2737 76.7334 35.1551H76.2334C76.2334 35.1565 76.2336 35.1691 76.2154 35.1964L76.6314 35.4738ZM76.7334 35.1551C76.7334 35.0054 76.6574 34.8856 76.5702 34.7983L76.2166 35.1519C76.2324 35.1677 76.237 35.1764 76.2373 35.1769C76.2373 35.177 76.2363 35.1749 76.2352 35.1708C76.2342 35.1665 76.2334 35.1612 76.2334 35.1551H76.7334ZM76.617 34.8633C76.573 34.7753 76.5244 34.6937 76.469 34.6305C76.421 34.5756 76.325 34.4851 76.1834 34.4851V34.9851C76.1411 34.9851 76.1118 34.9708 76.0992 34.963C76.0876 34.9559 76.0858 34.9518 76.0928 34.9597C76.1074 34.9765 76.1338 35.0149 76.1698 35.0869L76.617 34.8633ZM76.1834 34.4851C76.1056 34.4851 76.0393 34.5126 75.9946 34.536C75.9465 34.5611 75.8994 34.5941 75.8547 34.6299C75.7652 34.7015 75.6627 34.8023 75.5491 34.9262L75.9177 35.264C76.0241 35.148 76.1066 35.0687 76.1671 35.0203C76.1974 34.9961 76.2166 34.9841 76.2259 34.9793C76.2387 34.9726 76.2212 34.9851 76.1834 34.9851V34.4851ZM75.5645 34.9108C75.3161 35.1385 75.0594 35.4057 74.7945 35.7114L75.1723 36.0388C75.4274 35.7446 75.6707 35.4917 75.9023 35.2794L75.5645 34.9108ZM74.7945 35.7114C74.5319 36.0143 74.2987 36.2981 74.0952 36.5627L74.4916 36.8675C74.688 36.6121 74.9149 36.3359 75.1723 36.0388L74.7945 35.7114ZM74.0952 36.5627C73.9925 36.6963 73.9104 36.8131 73.8529 36.9109C73.8242 36.9597 73.7988 37.0084 73.78 37.0554C73.7627 37.0988 73.7434 37.1588 73.7434 37.2251H74.2434C74.2434 37.2514 74.2366 37.2602 74.2443 37.2411C74.2505 37.2256 74.2626 37.2005 74.2839 37.1644C74.3264 37.0922 74.3943 36.994 74.4916 36.8675L74.0952 36.5627ZM73.8166 37.4019L73.8466 37.4319L74.2002 37.0783L74.1702 37.0483L73.8166 37.4019ZM73.8134 37.8451H73.7234V38.3451H73.8134V37.8451ZM73.7234 37.8451C73.6917 37.8451 73.6584 37.8399 73.6225 37.8279L73.4643 38.3023C73.5484 38.3303 73.6351 38.3451 73.7234 38.3451V37.8451ZM73.604 37.8226C73.5491 37.8088 73.5367 37.7949 73.5402 37.7983L73.1866 38.1519C73.2701 38.2354 73.3777 38.2814 73.4828 38.3077L73.604 37.8226ZM73.5134 37.7751C73.4163 37.7023 73.3734 37.6164 73.3734 37.4951H72.8734C72.8734 37.7738 72.9904 38.0079 73.2134 38.1751L73.5134 37.7751ZM73.3734 37.4951C73.3734 37.1798 73.5583 36.7328 74.0057 36.1379C74.4466 35.5516 75.1155 34.8566 76.0196 34.0519L75.6872 33.6784C74.7713 34.4936 74.0752 35.2136 73.6061 35.8374C73.1435 36.4524 72.8734 37.0104 72.8734 37.4951H73.3734ZM76.0168 34.0543C76.4561 33.675 76.7794 33.4108 76.9904 33.2573L76.6964 32.8529C76.4674 33.0195 76.1307 33.2953 75.69 33.6759L76.0168 34.0543ZM76.9821 33.2631C77.2165 33.1069 77.3528 33.0651 77.4134 33.0651V32.5651C77.194 32.5651 76.9503 32.6834 76.7047 32.8471L76.9821 33.2631ZM77.4134 33.0651C77.4723 33.0651 77.5699 33.0975 77.7065 33.2512L78.0803 32.919C77.8969 32.7128 77.6744 32.5651 77.4134 32.5651V33.0651ZM77.7481 33.2885C77.8393 33.3537 77.8534 33.4046 77.8534 33.4451H78.3534C78.3534 33.2056 78.2275 33.0165 78.0387 32.8817L77.7481 33.2885ZM77.8534 33.4451C77.8534 33.4913 77.8376 33.5787 77.7862 33.7191C77.7363 33.8552 77.659 34.0246 77.5519 34.2291L77.9949 34.4611C78.1078 34.2456 78.1955 34.0551 78.2556 33.8912C78.3141 33.7316 78.3534 33.5789 78.3534 33.4451H77.8534ZM77.5563 34.2211C77.4703 34.3717 77.4026 34.5169 77.3562 34.6561L77.8306 34.8142C77.8642 34.7134 77.9165 34.5985 77.9905 34.4692L77.5563 34.2211ZM77.3613 34.6423C77.3405 34.6941 77.3235 34.7393 77.3112 34.7761C77.3051 34.7943 77.2993 34.8134 77.2946 34.832C77.2912 34.8455 77.2834 34.8778 77.2834 34.9151H77.7834C77.7834 34.9315 77.7815 34.9432 77.7809 34.9468C77.7802 34.9515 77.7795 34.9539 77.7797 34.9533C77.78 34.9518 77.7816 34.9459 77.7856 34.9342C77.7933 34.9109 77.8063 34.8761 77.8255 34.828L77.3613 34.6423ZM77.2834 34.9151V34.9451H77.7834V34.9151H77.2834ZM77.3254 35.0838C77.3748 35.1579 77.4454 35.2109 77.5098 35.2495C77.5772 35.29 77.6573 35.3261 77.7456 35.3592L77.9212 34.891C77.8495 34.8641 77.7996 34.8403 77.767 34.8207C77.7314 34.7994 77.732 34.7924 77.7414 34.8064L77.3254 35.0838ZM77.7792 35.3692C77.9646 35.4104 78.1792 35.4512 78.4223 35.4917L78.5045 34.9985C78.2676 34.959 78.0622 34.9199 77.8876 34.8811L77.7792 35.3692ZM78.4426 35.4943C78.6882 35.5147 78.9152 35.5251 79.1234 35.5251V35.0251C78.9316 35.0251 78.7186 35.0155 78.4842 34.996L78.4426 35.4943ZM79.1234 35.5251C79.4193 35.5251 79.7916 35.4936 80.2372 35.4328L80.1696 34.9374C79.7351 34.9967 79.3875 35.0251 79.1234 35.0251V35.5251ZM80.2357 35.433C80.7026 35.3721 81.428 35.2511 82.4086 35.071L82.3182 34.5792C81.3388 34.7591 80.6242 34.8781 80.1711 34.9372L80.2357 35.433ZM82.4086 35.071C83.3898 34.8908 84.8107 34.6206 86.6709 34.2606L86.5759 33.7697C84.7161 34.1296 83.297 34.3994 82.3182 34.5792L82.4086 35.071ZM86.6763 34.2595L89.5863 33.6295L89.4805 33.1408L86.5705 33.7708L86.6763 34.2595ZM89.5824 33.6303C89.7836 33.59 89.9012 33.5751 89.9534 33.5751V33.0751C89.8456 33.0751 89.6832 33.1002 89.4844 33.14L89.5824 33.6303ZM89.9534 33.5751C89.9772 33.5751 89.9925 33.5761 90.0011 33.5772C90.0117 33.5784 90.0043 33.5787 89.9881 33.5722C89.9762 33.5675 89.9177 33.5428 89.8817 33.4707C89.8392 33.3857 89.8623 33.3083 89.8798 33.2733L90.327 33.4969C90.3545 33.442 90.3788 33.347 90.3289 33.2471C90.2853 33.16 90.2106 33.1227 90.1737 33.108C90.1006 33.0787 90.0157 33.0751 89.9534 33.0751V33.5751ZM89.8534 33.3851C89.8534 33.3421 89.8669 33.3111 89.8755 33.2956C89.8838 33.2806 89.8909 33.2741 89.8891 33.2758C89.8879 33.277 89.8827 33.282 89.8712 33.2904C89.86 33.2986 89.8447 33.3088 89.8248 33.3207L90.082 33.7495C90.1398 33.7148 90.1969 33.6751 90.2427 33.6294C90.2814 33.5907 90.3534 33.5069 90.3534 33.3851H89.8534ZM89.8034 33.3351C89.7445 33.3793 89.6943 33.4022 89.6528 33.4126L89.774 33.8977C89.8925 33.868 90.0023 33.811 90.1034 33.7351L89.8034 33.3351ZM89.6528 33.4126C89.175 33.532 88.5867 33.6716 87.8877 33.8314L87.9991 34.3188C88.7001 34.1586 89.2918 34.0182 89.774 33.8977L89.6528 33.4126ZM87.888 33.8313C87.006 34.0318 86.0442 34.2622 85.0028 34.5226L85.124 35.0077C86.1626 34.748 87.1208 34.5184 87.9988 34.3189L87.888 33.8313ZM85.0144 34.52C84.7185 34.5791 84.4331 34.6283 84.158 34.6676L84.2288 35.1626C84.5137 35.1219 84.8083 35.0711 85.1124 35.0103L85.0144 34.52ZM84.1498 34.669C82.5699 34.9489 81.3705 35.1588 80.5513 35.2987L80.6355 35.7916C81.4563 35.6514 82.6569 35.4413 84.237 35.1613L84.1498 34.669ZM80.5572 35.2978C79.7419 35.4171 79.1057 35.4751 78.6434 35.4751V35.9751C79.1411 35.9751 79.8049 35.9132 80.6296 35.7925L80.5572 35.2978ZM78.6434 35.4751C78.2586 35.4751 77.9432 35.4365 77.6921 35.3647L77.5547 35.8455C77.8636 35.9338 78.2282 35.9751 78.6434 35.9751V35.4751ZM77.6903 35.3642L77.1503 35.2142L77.0165 35.696L77.5565 35.846L77.6903 35.3642ZM76.9093 35.2757C76.232 35.9331 75.6057 36.5096 75.0302 37.0058L75.3566 37.3845C75.9411 36.8806 76.5748 36.2972 77.2575 35.6345L76.9093 35.2757ZM75.034 37.0025C74.4575 37.4796 74.026 37.755 73.7302 37.8594L73.8966 38.3309C74.2808 38.1953 74.7693 37.8706 75.3528 37.3877L75.034 37.0025ZM88.8591 37.7951V38.0451H88.8716L88.884 38.0439L88.8591 37.7951ZM87.9291 37.5551L88.0763 37.3528L88.0678 37.3471L87.9291 37.5551ZM87.5691 36.6851L87.3201 36.6625L87.3191 36.6738V36.6851H87.5691ZM87.5991 36.3551L87.3536 36.3081L87.3512 36.3202L87.3501 36.3325L87.5991 36.3551ZM89.8491 32.9651L89.6748 32.7858L89.6723 32.7883L89.8491 32.9651ZM91.3791 31.9151L91.4281 31.67L91.4039 31.6651H91.3791V31.9151ZM91.5291 31.9451L91.6326 31.7175L91.6064 31.7056L91.5781 31.7L91.5291 31.9451ZM91.4991 32.7551L91.6231 32.9722L91.6251 32.9711L91.4991 32.7551ZM90.3591 33.7151L90.1823 33.5383L90.1786 33.5421L90.3591 33.7151ZM89.0691 35.2451L89.2638 35.4023L89.27 35.3939L89.0691 35.2451ZM88.3191 36.4751L88.0775 36.4107L88.0749 36.4205L88.0731 36.4304L88.3191 36.4751ZM88.2591 36.8051L88.0131 36.7604L88.0091 36.7826V36.8051H88.2591ZM88.4391 37.2251L88.2791 37.4172L88.2893 37.4257L88.3004 37.4331L88.4391 37.2251ZM94.1691 36.6851L94.2195 36.93L94.2212 36.9296L94.1691 36.6851ZM99.5991 35.4851L99.6558 35.7286L99.6643 35.7266L99.6726 35.7241L99.5991 35.4851ZM100.319 35.3051L100.364 35.5512L100.372 35.5494L100.319 35.3051ZM103.589 34.5551L103.533 34.3114L103.531 34.3121L103.589 34.5551ZM110.489 33.0551L110.539 33.3001L110.539 33.3L110.489 33.0551ZM118.199 31.3751L118.255 31.6189L118.255 31.6188L118.199 31.3751ZM131.789 28.5551L131.835 28.8008L131.836 28.8007L131.789 28.5551ZM144.449 26.9951V26.7449L144.44 26.7453L144.449 26.9951ZM148.499 27.1751L148.479 27.4243L148.479 27.4243L148.499 27.1751ZM151.799 27.8051L151.931 27.5926L151.916 27.5834L151.9 27.5764L151.799 27.8051ZM152.279 28.7051L152.348 28.9455L152.379 28.9364L152.408 28.9195L152.279 28.7051ZM152.069 28.7651V29.0151H152.104L152.138 29.0055L152.069 28.7651ZM151.559 28.4951L151.746 28.329L151.727 28.308L151.704 28.2917L151.559 28.4951ZM151.139 28.2551L151.238 28.0253L151.238 28.0253L151.139 28.2551ZM150.569 28.1051L150.476 28.3372L150.501 28.3473L150.528 28.3517L150.569 28.1051ZM150.269 28.0151L150.219 28.26L150.22 28.2603L150.269 28.0151ZM147.569 27.6551L147.589 27.4058L147.583 27.4055L147.569 27.6551ZM136.499 28.2851L136.535 28.5326L136.535 28.5326L136.499 28.2851ZM126.749 29.9951L126.8 30.24L126.8 30.24L126.749 29.9951ZM117.239 32.0351L117.293 32.2792L117.294 32.2791L117.239 32.0351ZM110.489 33.5051L110.541 33.7497L110.541 33.7496L110.489 33.5051ZM100.439 35.6351L100.489 35.8801L100.491 35.8797L100.439 35.6351ZM97.2591 36.3251L97.2035 36.0814L97.2008 36.082L97.2591 36.3251ZM93.1491 30.6851L93.0373 30.9087L93.0373 30.9087L93.1491 30.6851ZM93.0591 30.5951L93.2827 30.4833L93.2757 30.4694L93.2671 30.4564L93.0591 30.5951ZM93.0591 30.2051L92.8588 30.0549L92.8511 30.0664L93.0591 30.2051ZM93.2691 30.0851L93.3482 29.8479L93.3097 29.8351H93.2691V30.0851ZM93.4491 30.1451L93.6259 29.9683L93.5841 29.9266L93.5282 29.9079L93.4491 30.1451ZM93.4791 30.6251L93.3023 30.4483L93.2848 30.4658L93.2711 30.4864L93.4791 30.6251ZM88.8591 37.5451H88.7391V38.0451H88.8591V37.5451ZM88.7391 37.5451C88.4623 37.5451 88.2463 37.4766 88.0761 37.3529L87.7821 37.7573C88.052 37.9536 88.3759 38.0451 88.7391 38.0451V37.5451ZM88.0678 37.3471C87.9256 37.2523 87.8191 37.0624 87.8191 36.6851H87.3191C87.3191 37.1479 87.4526 37.5379 87.7904 37.7631L88.0678 37.3471ZM87.8181 36.7078L87.8481 36.3778L87.3501 36.3325L87.3201 36.6625L87.8181 36.7078ZM87.8446 36.4021C88.0098 35.5396 88.7131 34.4547 90.0259 33.1419L89.6723 32.7883C88.3451 34.1155 87.5484 35.2906 87.3536 36.3081L87.8446 36.4021ZM90.0234 33.1444C90.3786 32.799 90.6747 32.5474 90.9131 32.3837C91.1625 32.2126 91.3105 32.1651 91.3791 32.1651V31.6651C91.1477 31.6651 90.8907 31.7927 90.6301 31.9715C90.3585 32.1579 90.0396 32.4313 89.6748 32.7859L90.0234 33.1444ZM91.3301 32.1603L91.4801 32.1903L91.5781 31.7L91.4281 31.67L91.3301 32.1603ZM91.4257 32.1727C91.5185 32.2149 91.5683 32.2528 91.5923 32.279C91.6034 32.2912 91.6072 32.2988 91.6082 32.3013C91.6091 32.3032 91.6091 32.3039 91.6091 32.3051H92.1091C92.1091 32.0089 91.8727 31.8267 91.6326 31.7175L91.4257 32.1727ZM91.6091 32.3051C91.6091 32.3253 91.5938 32.4104 91.3731 32.5392L91.6251 32.9711C91.8844 32.8198 92.1091 32.6049 92.1091 32.3051H91.6091ZM91.3751 32.5381C91.0643 32.7156 90.6647 33.056 90.1823 33.5383L90.5359 33.8919C91.0135 33.4143 91.3739 33.1146 91.6231 32.9722L91.3751 32.5381ZM90.1786 33.5421C89.7112 34.0298 89.2744 34.5479 88.8682 35.0963L89.27 35.3939C89.6638 34.8623 90.087 34.3604 90.5396 33.8881L90.1786 33.5421ZM88.8746 35.088C88.4522 35.611 88.1721 36.056 88.0775 36.4107L88.5607 36.5395C88.6261 36.2942 88.846 35.9192 89.2636 35.4022L88.8746 35.088ZM88.0731 36.4304L88.0131 36.7604L88.5051 36.8498L88.5651 36.5198L88.0731 36.4304ZM88.0091 36.8051C88.0091 37.0467 88.093 37.2621 88.2791 37.4172L88.5991 37.0331C88.5452 36.9881 88.5091 36.9235 88.5091 36.8051H88.0091ZM88.3004 37.4331C88.4745 37.5492 88.6882 37.5951 88.9191 37.5951V37.0951C88.75 37.0951 88.6437 37.061 88.5778 37.0171L88.3004 37.4331ZM88.9191 37.5951H89.2191V37.0951H88.9191V37.5951ZM89.2191 37.5951C90.4049 37.5951 92.0747 37.371 94.2195 36.93L94.1188 36.4402C91.9835 36.8793 90.3533 37.0951 89.2191 37.0951V37.5951ZM94.2212 36.9296C96.3821 36.4694 98.1937 36.0691 99.6558 35.7286L99.5424 35.2416C98.0845 35.5811 96.2761 35.9808 94.117 36.4406L94.2212 36.9296ZM99.6726 35.7241C99.9251 35.6464 100.155 35.589 100.364 35.5511L100.274 35.0591C100.043 35.1012 99.7931 35.1639 99.5256 35.2462L99.6726 35.7241ZM100.372 35.5494C101.474 35.309 102.566 35.0586 103.648 34.7982L103.531 34.3121C102.452 34.5716 101.364 34.8212 100.266 35.0609L100.372 35.5494ZM103.645 34.7988C106.183 34.2192 108.481 33.7196 110.539 33.3001L110.439 32.8102C108.377 33.2306 106.075 33.7311 103.533 34.3114L103.645 34.7988ZM110.539 33.3C112.782 32.8396 115.353 32.2792 118.255 31.6189L118.144 31.1314C115.245 31.7911 112.677 32.3507 110.439 32.8102L110.539 33.3ZM118.255 31.6188C122.611 30.6196 127.138 29.6803 131.835 28.8008L131.743 28.3094C127.04 29.19 122.507 30.1306 118.143 31.1314L118.255 31.6188ZM131.836 28.8007C136.527 27.9024 140.734 27.3844 144.458 27.2449L144.44 26.7453C140.684 26.8859 136.451 27.4078 131.742 28.3096L131.836 28.8007ZM144.449 27.2451H144.839V26.7451H144.449V27.2451ZM144.839 27.2451C145.77 27.2451 146.982 27.3046 148.479 27.4243L148.519 26.9259C147.016 26.8057 145.788 26.7451 144.839 26.7451V27.2451ZM148.479 27.4243C149.994 27.544 151.059 27.7518 151.698 28.0338L151.9 27.5764C151.179 27.2584 150.044 27.0463 148.519 26.9259L148.479 27.4243ZM151.668 28.0177C151.869 28.1425 152.007 28.2496 152.091 28.3377C152.18 28.4312 152.179 28.4714 152.179 28.4651H152.679C152.679 28.2788 152.573 28.1191 152.452 27.9925C152.327 27.8606 152.149 27.7277 151.931 27.5926L151.668 28.0177ZM152.179 28.4651C152.179 28.4691 152.179 28.4702 152.179 28.4695C152.179 28.4692 152.179 28.4687 152.179 28.4683C152.179 28.4678 152.18 28.4676 152.18 28.4676C152.18 28.4677 152.179 28.4682 152.178 28.4691C152.178 28.4701 152.176 28.4716 152.174 28.4736C152.17 28.4776 152.162 28.4836 152.15 28.4907L152.408 28.9195C152.568 28.8232 152.679 28.6689 152.679 28.4651H152.179ZM152.21 28.4647L152 28.5247L152.138 29.0055L152.348 28.9455L152.21 28.4647ZM152.069 28.5151C151.982 28.5151 151.875 28.4746 151.746 28.329L151.372 28.6612C151.563 28.8756 151.796 29.0151 152.069 29.0151V28.5151ZM151.704 28.2917C151.552 28.1826 151.396 28.0932 151.238 28.0253L151.041 28.4849C151.162 28.537 151.287 28.6077 151.414 28.6985L151.704 28.2917ZM151.238 28.0253C151.072 27.9542 150.86 27.9001 150.61 27.8585L150.528 28.3517C150.758 28.3901 150.927 28.436 151.041 28.4849L151.238 28.0253ZM150.662 27.873C150.549 27.8276 150.434 27.7931 150.318 27.77L150.22 28.2603C150.304 28.2771 150.39 28.3026 150.476 28.3372L150.662 27.873ZM150.319 27.7702C149.527 27.6077 148.616 27.4865 147.589 27.4059L147.55 27.9044C148.562 27.9838 149.451 28.1026 150.219 28.26L150.319 27.7702ZM147.583 27.4055C146.858 27.3652 146.093 27.3451 145.289 27.3451V27.8451C146.085 27.8451 146.84 27.865 147.555 27.9047L147.583 27.4055ZM145.289 27.3451C142.615 27.3451 139.673 27.5763 136.464 28.0377L136.535 28.5326C139.725 28.0739 142.643 27.8451 145.289 27.8451V27.3451ZM136.464 28.0377C133.258 28.4984 130.003 29.0693 126.699 29.7503L126.8 30.24C130.095 29.5609 133.34 28.9918 136.535 28.5326L136.464 28.0377ZM126.699 29.7503C123.397 30.4305 120.226 31.1108 117.185 31.7911L117.294 32.2791C120.332 31.5994 123.501 30.9197 126.8 30.24L126.699 29.7503ZM117.185 31.791C114.746 32.3309 112.496 32.8208 110.437 33.2606L110.541 33.7496C112.602 33.3095 114.853 32.8193 117.293 32.2792L117.185 31.791ZM110.437 33.2605L100.387 35.3905L100.491 35.8797L110.541 33.7497L110.437 33.2605ZM100.389 35.3902C99.407 35.5906 98.3451 35.821 97.2035 36.0814L97.3147 36.5689C98.4531 36.3092 99.5112 36.0796 100.489 35.8801L100.389 35.3902ZM97.2008 36.082C94.2099 36.7998 91.4212 37.2877 88.8342 37.5464L88.884 38.0439C91.497 37.7826 94.3083 37.2904 97.3174 36.5682L97.2008 36.082ZM93.2991 30.4651C93.2653 30.4651 93.2564 30.4593 93.2609 30.4615L93.0373 30.9087C93.1218 30.951 93.2129 30.9651 93.2991 30.9651V30.4651ZM93.2609 30.4615C93.2636 30.4629 93.2684 30.4658 93.2734 30.4708C93.2784 30.4758 93.2813 30.4806 93.2827 30.4833L92.8355 30.7069C92.8797 30.7953 92.9489 30.8645 93.0373 30.9087L93.2609 30.4615ZM93.2671 30.4564C93.2489 30.4291 93.2491 30.4165 93.2491 30.4151H92.7491C92.7491 30.5337 92.7893 30.6411 92.8511 30.7338L93.2671 30.4564ZM93.2491 30.4151C93.2491 30.3789 93.2574 30.3583 93.2671 30.3438L92.8511 30.0664C92.7808 30.1719 92.7491 30.2914 92.7491 30.4151H93.2491ZM93.2591 30.3551C93.2734 30.3361 93.2815 30.3317 93.2806 30.3322C93.2801 30.3325 93.2783 30.3334 93.2754 30.3342C93.2725 30.3349 93.2702 30.3351 93.2691 30.3351V29.8351C93.0909 29.8351 92.9532 29.9296 92.8591 30.0551L93.2591 30.3551ZM93.19 30.3223L93.37 30.3823L93.5282 29.9079L93.3482 29.8479L93.19 30.3223ZM93.2723 30.3219C93.3122 30.3617 93.3191 30.3903 93.3191 30.4151H93.8191C93.8191 30.2399 93.7461 30.0885 93.6259 29.9683L93.2723 30.3219ZM93.3191 30.4151C93.3191 30.4245 93.3186 30.4321 93.3023 30.4483L93.6559 30.8019C93.7596 30.6982 93.8191 30.5658 93.8191 30.4151H93.3191ZM93.2711 30.4864C93.2718 30.4853 93.274 30.4823 93.2781 30.4787C93.2823 30.4749 93.2871 30.4716 93.2923 30.469C93.3031 30.4636 93.3077 30.4651 93.2991 30.4651V30.9651C93.4519 30.9651 93.5951 30.9018 93.6871 30.7638L93.2711 30.4864Z" fill="black"/>
</svg>